<?xml version="1.0" standalone="no"?>
<!DOCTYPE svg PUBLIC "-//W3C//DTD SVG 1.1//EN" "http://www.w3.org/Graphics/SVG/1.1/DTD/svg11.dtd" >
<svg>
<metadata>
Created by FontForge 20090914 at Mon Nov  9 03:59:22 2015
 By www-data
Copyright (c) 2010 by Font Diner, Inc DBA Sideshow. All rights reserved. Available under the Apache 2.0 licence.
http://www.apache.org/licenses/LICENSE-2.0.html
</metadata>
<defs>
<font id="Rochester-Regular" horiz-adv-x="809" >
  <font-face 
    font-family="Rochester"
    font-weight="400"
    font-stretch="normal"
    units-per-em="2048"
    panose-1="2 0 5 4 0 0 0 2 0 2"
    ascent="1638"
    descent="-410"
    x-height="818.995"
    cap-height="1731"
    bbox="-261.003 -528.002 2109 2109"
    underline-thickness="102"
    underline-position="-103"
    unicode-range="U+0020-U+FB02"
  />
<missing-glyph horiz-adv-x="471" 
 />
    <glyph glyph-name=".notdef" horiz-adv-x="471" 
 />
    <glyph glyph-name="space" unicode=" " horiz-adv-x="471" 
 />
    <glyph glyph-name="exclam" unicode="!" horiz-adv-x="430" 
d="M123 92c0 12.667 2.33301 24.667 7 36s11 21.166 19 29.499s17.667 14.833 29 19.5s23.666 7 36.999 7c12.667 0 24.667 -2.33301 36 -7s21.166 -11.167 29.499 -19.5s14.833 -18.166 19.5 -29.499s7 -23.333 7 -36s-2.33301 -24.667 -7 -36
s-11.167 -21.166 -19.5 -29.499s-18.166 -14.833 -29.499 -19.5s-23.333 -7 -36 -7s-24.667 2.33301 -36 7s-21.166 11.167 -29.499 19.5s-14.833 18.166 -19.5 29.499s-7 23.333 -7 36zM195 1374c0.666992 10.667 4.66895 19.9961 12.002 27.9961s15.833 14.667 25.5 20
s19.667 9.33301 30 12s18.5 4 24.5 4c12 0 21.833 -2.5 29.5 -7.5s11.5 -18.833 11.5 -41.5c0 -19.333 -1.16699 -46.666 -3.5 -81.999s-5.33301 -76.166 -9 -122.499s-7.83398 -96.333 -12.501 -150l-14.5 -164l-15 -165c-5 -54.333 -9.33301 -105.166 -13 -152.499
l-9.5 -127c-2.66699 -37.333 -4.33398 -66.666 -5.00098 -87.999l-51 2c0 106 -0.833008 211.667 -2.5 317s-2.5 212 -2.5 320c0 66 0.166992 131.667 0.5 197s1.83301 132 4.5 200z" />
    <glyph glyph-name="quotedbl" unicode="&#x22;" horiz-adv-x="410" 
d="M82 1403h92v-328h-61zM297 1075h-61v328h92z" />
    <glyph glyph-name="numbersign" unicode="#" horiz-adv-x="942" 
d="M799 696c6 0 10.832 -5.33398 14.499 -16.001s5.5 -21.667 5.5 -33s-2.5 -18.5 -7.5 -21.5s-10.5 -4.5 -16.5 -4.5c-10.667 0 -31.167 0.333008 -61.5 1s-70.833 1 -121.5 1v-73.5v-49.5c0 -13.333 0.166992 -24.666 0.5 -33.999s0.833008 -18 1.5 -26
c0 -7.33301 -5.5 -12.5 -16.5 -15.5s-21.833 -4.5 -32.5 -4.5c-11.333 0 -18.5 2.5 -21.5 7.5s-4.5 10.5 -4.5 16.5c0 10.667 0.333008 31 1 61s1 69.333 1 118c-31.333 1.33301 -62.5 2 -93.5 2h-91.5v-74.5v-50c0 -13.667 0.166992 -25.167 0.5 -34.5
s0.833008 -18 1.5 -26c0 -7.33301 -5.5 -12.5 -16.5 -15.5s-21.833 -4.5 -32.5 -4.5c-11.333 0 -18.5 2.5 -21.5 7.5s-4.5 10.5 -4.5 16.5c0 10.667 0.333008 31.167 1 61.5s1 70.833 1 121.5h-73.5h-49.5c-13.333 0 -24.666 -0.166992 -33.999 -0.5s-18 -0.833008 -26 -1.5
c-7.33301 0 -12.5 5.5 -15.5 16.5s-4.5 21.833 -4.5 32.5c0 11.333 2.5 18.5 7.5 21.5s10.5 4.5 16.5 4.5c10.667 0 31 -0.333008 61 -1s69.333 -1 118 -1c1.33301 30 2 60.5 2 91.5v93.5h-74.5h-50c-13.667 0 -25.167 -0.166992 -34.5 -0.5s-18 -0.833008 -26 -1.5
c-7.33301 0 -12.5 5.5 -15.5 16.5s-4.5 21.833 -4.5 32.5c0 11.333 2.5 18.5 7.5 21.5s10.5 4.5 16.5 4.5c10.667 0 31.167 -0.333008 61.5 -1s70.833 -1 121.5 -1v72.5v50c0 13.667 -0.166992 25.167 -0.5 34.5s-0.833008 18 -1.5 26c0 6 5.33301 10.833 16 14.5
s21.667 5.5 33 5.5s18.5 -2.5 21.5 -7.5s4.5 -10.5 4.5 -16.5c0 -10.667 -0.333008 -31 -1 -61s-1 -70 -1 -120h91.5c31 0 62.167 -0.666992 93.5 -2v75v51c0 14 -0.166992 25.667 -0.5 35s-0.833008 18 -1.5 26c0 6 5.33301 10.833 16 14.5s21.667 5.5 33 5.5
s18.5 -2.5 21.5 -7.5s4.5 -10.5 4.5 -16.5c0 -10.667 -0.333008 -31.167 -1 -61.5s-1 -70.833 -1 -121.5h72.5h50c13.667 0 25.167 0.166992 34.5 0.5s18 0.833008 26 1.5c6 0 10.833 -5.33301 14.5 -16s5.5 -21.667 5.5 -33s-2.5 -18.5 -7.5 -21.5s-10.5 -4.5 -16.5 -4.5
c-10.667 0 -31 0.333008 -61 1s-70 1 -120 1v-93.5c0 -31 -0.666992 -61.5 -2 -91.5h75h51c14 0 25.667 0.166992 35 0.5s18 0.833008 26 1.5zM357.999 880.999v-91.5c0 -31 -0.666992 -62.167 -2 -93.5h93.5c31 0 61.5 -0.666992 91.5 -2c1.33301 31.333 2 62.5 2 93.5
v91.5c-30 1.33301 -60.5 2 -91.5 2h-93.5z" />
    <glyph glyph-name="dollar" unicode="$" horiz-adv-x="1034" 
d="M471 213c-48 3.33301 -93.6689 12.832 -137.002 28.499s-81.333 35.5 -114 59.5s-58.667 51.167 -78 81.5s-29 62.5 -29 96.5c0 18.667 2.83301 36.334 8.5 53.001s13 32 22 46s19.5 27 31.5 39s24 23 36 33c28.667 22.667 61.334 42.334 98.001 59.001l23 -47
c-16.667 -12.667 -31 -27.667 -43 -45c-11.333 -15.333 -21.333 -34 -30 -56s-13 -47.333 -13 -76c0 -27.333 4.83301 -53.333 14.5 -78s24 -46.834 43 -66.501s42.5 -36.167 70.5 -49.5s60.333 -22.333 97 -27v518c-39.333 20.667 -78 42.167 -116 64.5
s-71.833 47.166 -101.5 74.499s-53.667 58.333 -72 93s-27.5 74.334 -27.5 119.001c0 53.333 8.66699 100.333 26 141s40.5 75.5 69.5 104.5s62.667 52.333 101 70s78.5 30.5 120.5 38.5v135h61v-129c4.66699 1.33301 9 2 13 2h14
c38.667 -0.666992 76.167 -5.66699 112.5 -15s68.5 -23.166 96.5 -41.499s50.333 -41 67 -68s25 -58.5 25 -94.5c0 -21.333 -3 -41.166 -9 -59.499s-13.667 -35.333 -23 -51s-20.166 -29.834 -32.499 -42.501s-24.833 -24 -37.5 -34c-30 -23.333 -63.667 -43 -101 -59
l-36 39c19.333 16.667 37 35.667 53 57c13.333 18 25.5 39 36.5 63s16.5 51 16.5 81c0 33.333 -5.16699 61.5 -15.5 84.5s-24.5 41.833 -42.5 56.5s-38.833 25.167 -62.5 31.5s-48.5 9.5 -74.5 9.5v-528l134.5 -72c45 -24 85.667 -50.5 122 -79.5s65.833 -61.833 88.5 -98.5
s34 -80.334 34 -131.001c0 -42 -8.33301 -82.667 -25 -122s-41.167 -74.333 -73.5 -105s-72 -55.5 -119 -74.5s-100.833 -29.167 -161.5 -30.5v-211h-61v213zM787.998 476.999c0 32 -7.00098 60.8311 -21.001 86.498s-32.667 49.334 -56 71.001s-50.5 41.834 -81.5 60.501
s-63.5 37 -97.5 55v-488c38.667 0.666992 73.834 6.5 105.501 17.5s58.667 26 81 45s39.5 41.5 51.5 67.5s18 54.333 18 85zM255.997 1217c0 -30.667 5.66797 -58.5 17.001 -83.5s26.666 -48 45.999 -69s42 -40.5 68 -58.5s54 -35.333 84 -52v494
c-28 -4.66699 -55 -13.167 -81 -25.5s-49 -28.166 -69 -47.499s-35.833 -42.333 -47.5 -69s-17.5 -56.334 -17.5 -89.001z" />
    <glyph glyph-name="percent" unicode="%" horiz-adv-x="1290" 
d="M952 1188c-23.333 -9.33301 -49.668 -16.832 -79.001 -22.499s-61 -8.5 -95 -8.5c-40 0 -75 3.16699 -105 9.5s-56.333 14.166 -79 23.499c6 -20.667 10.833 -42.167 14.5 -64.5s5.5 -45.833 5.5 -70.5c0 -46 -6 -88.5 -18 -127.5s-28.833 -72.667 -50.5 -101
s-47.5 -50.333 -77.5 -66s-63 -23.5 -99 -23.5s-69 7.83301 -99 23.5s-56 37.667 -78 66s-39 62 -51 101s-18 81.5 -18 127.5s6 88.333 18 127s29 72.167 51 100.5s48 50.333 78 66s63 23.5 99 23.5c38.667 0 74.334 -9.5 107.001 -28.5s60.334 -45.5 83.001 -79.5
c23.333 -14.667 52.666 -27.667 87.999 -39s79 -17 131 -17c30.667 0 58.167 2 82.5 6s45.833 9 64.5 15s35.167 12.833 49.5 20.5s26.833 15.167 37.5 22.5l35 51l75 -53l-868 -1241l-76 53zM921.998 0.000976562c-36 0 -69 7.83301 -99 23.5s-56 37.667 -78 66
s-39 61.833 -51 100.5s-18 81 -18 127s6 88.5 18 127.5s29 72.667 51 101s48 50.333 78 66s63 23.5 99 23.5s69 -7.83301 99 -23.5s55.833 -37.667 77.5 -66s38.5 -62 50.5 -101s18 -81.5 18 -127.5s-6 -88.333 -18 -127s-28.833 -72.167 -50.5 -100.5
s-47.5 -50.333 -77.5 -66s-63 -23.5 -99 -23.5zM368.998 788.001c25.333 0 46 6.66699 62 20s28.5 31.833 37.5 55.5s15.167 51.834 18.5 84.501s5 68.334 5 107.001c0 38 -1.66699 73.333 -5 106s-9.5 60.834 -18.5 84.501s-21.5 42.167 -37.5 55.5s-36.667 20 -62 20
c-26 0 -47 -6.66699 -63 -20s-28.5 -31.833 -37.5 -55.5s-15 -51.834 -18 -84.501s-4.5 -68 -4.5 -106c0 -38.667 1.5 -74.334 4.5 -107.001s9 -60.834 18 -84.501s21.5 -42.167 37.5 -55.5s37 -20 63 -20zM921.998 51.001c25.333 0 46 6.66699 62 20s28.5 31.833 37.5 55.5
s15 51.834 18 84.501s4.5 68 4.5 106c0 38.667 -1.5 74.334 -4.5 107.001s-9 60.834 -18 84.501s-21.5 42.167 -37.5 55.5s-36.667 20 -62 20c-26 0 -47 -6.66699 -63 -20s-28.5 -31.833 -37.5 -55.5s-15 -51.834 -18 -84.501s-4.5 -68.334 -4.5 -107.001
c0 -38 1.5 -73.333 4.5 -106s9 -60.834 18 -84.501s21.5 -42.167 37.5 -55.5s37 -20 63 -20z" />
    <glyph glyph-name="ampersand" unicode="&#x26;" horiz-adv-x="1516" 
d="M1280 559c25.333 0 46.0029 6.99219 62.0029 20.9922s24 29.667 24 47c0 8.66699 -2.5 17.334 -7.5 26.001s-12.667 16.334 -23 23.001s-24 12 -41 16s-37.5 6 -61.5 6c-31.333 0 -61.666 -3.66699 -90.999 -11s-59 -16.666 -89 -27.999c28 -28 50.333 -60.5 67 -97.5
s25 -79.5 25 -127.5c0 -70 -13.833 -132 -41.5 -186s-64.667 -99.333 -111 -136s-99.833 -64.5 -160.5 -83.5s-123.667 -28.5 -189 -28.5s-129 9.66699 -191 29s-117.5 48.333 -166.5 87s-88.333 87.334 -118 146.001s-44.5 127 -44.5 205c0 72 11.5 135.167 34.5 189.5
s52.667 101 89 140s76.5 71.167 120.5 96.5s87 45 129 59c-26 13.333 -51.5 29.666 -76.5 48.999s-47.167 41 -66.5 65s-34.833 50.5 -46.5 79.5s-17.5 60.167 -17.5 93.5c0 46.667 10 89 30 127s46.167 70.333 78.5 97s69.166 47.167 110.499 61.5
s83.666 21.5 126.999 21.5c52 0 96.667 -5.83301 134 -17.5s67.666 -26.667 90.999 -45s40.5 -39.166 51.5 -62.499s16.5 -46.333 16.5 -69c0 -19.333 -3.5 -38 -10.5 -56s-17 -33.833 -30 -47.5s-28.833 -24.5 -47.5 -32.5s-39.334 -12 -62.001 -12
c-17.333 0 -33 3.16699 -47 9.5s-26.333 13.5 -37 21.5s-19.334 16 -26.001 24s-11 13.667 -13 17l33 20c3.33301 -3.33301 8.16602 -7.33301 14.499 -12s13.5 -9.16699 21.5 -13.5s16.5 -8 25.5 -11s18.5 -4.5 28.5 -4.5c26.667 0 48 9.66699 64 29s24 42 24 68
c0 15.333 -3.5 30.833 -10.5 46.5s-17.833 30 -32.5 43s-33.5 23.5 -56.5 31.5s-50.5 12 -82.5 12c-42 0 -79 -7.66699 -111 -23s-58.667 -35.833 -80 -61.5s-37.5 -54.667 -48.5 -87s-16.5 -65.5 -16.5 -99.5c0 -25.333 3.16699 -50 9.5 -74s15.666 -46.5 27.999 -67.5
s28 -40 47 -57s41.5 -30.5 67.5 -40.5c13.333 3.33301 26 5.5 38 6.5s23 1.5 33 1.5c17.333 0 31 -2.5 41 -7.5s15 -12.167 15 -21.5c0 -14 -5.66699 -24.667 -17 -32s-26.333 -11 -45 -11c-11.333 0 -23.5 1 -36.5 3s-26.833 5.33301 -41.5 10
c-46 -10.667 -86.333 -29.167 -121 -55.5s-63.667 -57.833 -87 -94.5s-40.833 -76.834 -52.5 -120.501s-17.5 -88.167 -17.5 -133.5c0 -54.667 8.5 -108.667 25.5 -162s42.833 -101 77.5 -143s77.667 -76 129 -102s111.666 -39 180.999 -39
c48.667 0 95.834 7.66699 141.501 23s86 38 121 68s63.167 67 84.5 111s32 94.667 32 152c0 46 -7.66699 86.5 -23 121.5s-35.666 64.833 -60.999 89.5l-81.5 -34c-27 -11.333 -54.667 -21.666 -83 -30.999s-57.166 -16.833 -86.499 -22.5s-59.666 -8.5 -90.999 -8.5
c-24 0 -44.833 3 -62.5 9s-32.334 13.833 -44.001 23.5s-20.334 20.834 -26.001 33.501s-8.5 26 -8.5 40c0 21.333 5.83301 40.333 17.5 57s27.5 30.834 47.5 42.501s43.5 20.5 70.5 26.5s55.5 9 85.5 9c32 0 65.167 -3.5 99.5 -10.5s68.166 -17.833 101.499 -32.5
c42 20.667 86.333 39.167 133 55.5s97.334 24.5 152.001 24.5c36.667 0 68.334 -4.83301 95.001 -14.5s48.834 -22.167 66.501 -37.5s30.667 -32.666 39 -51.999s12.5 -38.666 12.5 -57.999c0 -18 -3.33301 -35.333 -10 -52s-16.5 -31.667 -29.5 -45s-28.833 -24 -47.5 -32
s-39.667 -12 -63 -12zM735.003 736.992c-38 0 -69.667 -5.16797 -95 -15.501s-38 -24.166 -38 -41.499c0 -10.667 6 -19.5 18 -26.5s31.333 -10.5 58 -10.5c30.667 0 62.5 6.66699 95.5 20s68.167 29.333 105.5 48c-25.333 9.33301 -50.333 16 -75 20s-47.667 6 -69 6z" />
    <glyph glyph-name="quotesingle" unicode="'" horiz-adv-x="276" 
d="M174 1075h-72l-20 328h113z" />
    <glyph glyph-name="parenleft" unicode="(" horiz-adv-x="686" 
d="M602 1620c-12.667 -4.66699 -29.834 -15 -51.501 -31s-44.834 -38.667 -69.501 -68s-49.834 -66 -75.501 -110s-48.834 -96.333 -69.501 -157s-37.5 -130.334 -50.5 -209.001s-19.5 -167.667 -19.5 -267s6.5 -188.333 19.5 -267s29.833 -148.334 50.5 -209.001
s43.834 -113 69.501 -157s50.834 -80.5 75.501 -109.5s47.834 -51.5 69.501 -67.5s38.834 -26.333 51.501 -31l-16 -48c-19.333 6.66699 -44.333 19.167 -75 37.5s-63 43.333 -97 75s-68.333 70.667 -103 117s-66 101.333 -94 165s-50.667 136.5 -68 218.5s-26 174 -26 276
c0 102.667 8.66699 194.834 26 276.501s40 154.334 68 218.001s59.333 118.667 94 165s69 85.333 103 117s66.333 56.667 97 75s55.667 30.833 75 37.5z" />
    <glyph glyph-name="parenright" unicode=")" horiz-adv-x="686" 
d="M100 1667c19.333 -6.66699 44.333 -19.1631 75 -37.4961s63 -43.333 97 -75s68.333 -70.667 103 -117s66 -101.333 94 -165s50.667 -136.334 68 -218.001s26 -173.834 26 -276.501s-8.66699 -194.834 -26 -276.501s-40 -154.334 -68 -218.001s-59.333 -118.667 -94 -165
s-69 -85.333 -103 -117s-66.333 -56.667 -97 -75s-55.667 -30.833 -75 -37.5l-16 48c12.667 4.66699 29.834 15 51.501 31s44.834 38.5 69.501 67.5s49.834 65.5 75.501 109.5s48.834 96.333 69.501 157s37.5 130.5 50.5 209.5s19.5 167.833 19.5 266.5
s-6.5 187.5 -19.5 266.5s-29.833 148.833 -50.5 209.5s-43.834 113 -69.501 157s-50.834 80.667 -75.501 110s-47.834 52 -69.501 68s-38.834 26.333 -51.501 31z" />
    <glyph glyph-name="asterisk" unicode="*" horiz-adv-x="799" 
d="M477 889l-80 225l-73 -209l-121 49l155 183l-217 -37l-18 129l233 -41l-153 178l129 51l69 -205l86 224l101 -84l-146 -166l236 41l-23 -129l-211 39l142 -160z" />
    <glyph glyph-name="plus" unicode="+" horiz-adv-x="829" 
d="M461 870v-256h246v-82h-246v-266h-92v266h-246v82h246v256h92z" />
    <glyph glyph-name="comma" unicode="," horiz-adv-x="399" 
d="M172 225c15.333 0 29.3311 -3.1709 41.998 -9.50391s23.667 -15.166 33 -26.499s16.5 -24.666 21.5 -39.999s7.5 -31.666 7.5 -48.999c0 -34.667 -7.66699 -66.667 -23 -96s-32 -54.666 -50 -75.999c-21.333 -25.333 -45.333 -48.333 -72 -69l-29 26
c6 4 13.167 10.5 21.5 19.5s16 19.167 23 30.5s13 23.333 18 36s7.5 25 7.5 37c0 8 -4.66699 14.833 -14 20.5s-19.666 12.5 -30.999 20.5s-21.666 18.167 -30.999 30.5s-14 29.5 -14 51.5c0 12.667 2.33301 24.667 7 36s11.167 21.333 19.5 30s18 15.5 29 20.5
s22.5 7.5 34.5 7.5z" />
    <glyph glyph-name="hyphen" unicode="-" horiz-adv-x="737" 
d="M123 614h491v-82h-491v82z" />
    <glyph glyph-name="period" unicode="." horiz-adv-x="389" 
d="M82 92c0 12.667 2.33301 24.667 7 36s11.167 21.166 19.5 29.499s18.166 14.833 29.499 19.5s23.333 7 36 7s24.667 -2.33301 36 -7s21.166 -11.167 29.499 -19.5s14.833 -18.166 19.5 -29.499s7 -23.333 7 -36s-2.33301 -24.667 -7 -36s-11.167 -21.166 -19.5 -29.499
s-18.166 -14.833 -29.499 -19.5s-23.333 -7 -36 -7s-24.667 2.33301 -36 7s-21.166 11.167 -29.499 19.5s-14.833 18.166 -19.5 29.499s-7 23.333 -7 36z" />
    <glyph glyph-name="slash" unicode="/" horiz-adv-x="788" 
d="M199 -113l-72 19l463 1722l72 -18z" />
    <glyph glyph-name="zero" unicode="0" horiz-adv-x="1167" 
d="M584 51c56 0 102.498 19.5 139.498 58.5s66.333 90.833 88 155.5s36.834 138.834 45.501 222.501s13 170.5 13 260.5c0 59.333 -1.83301 117.833 -5.5 175.5s-9.83398 112.334 -18.501 164.001s-20.167 99.334 -34.5 143.001s-32.166 81.334 -53.499 113.001
s-46.333 56.334 -75 74.001s-61.667 26.5 -99 26.5c-38 0 -71.333 -8.83301 -100 -26.5s-53.667 -42.334 -75 -74.001s-39.166 -69.334 -53.499 -113.001s-25.833 -91.334 -34.5 -143.001s-14.834 -106.334 -18.501 -164.001s-5.5 -116.167 -5.5 -175.5
c0 -90 4.33301 -176.833 13 -260.5s23.834 -157.834 45.501 -222.501s51 -116.5 88 -155.5s83.833 -58.5 140.5 -58.5zM583.998 0c-77.333 0 -144.166 18.833 -200.499 56.5s-103.166 89.667 -140.499 156s-65 145.166 -83 236.499s-27 191 -27 299
c0 107.333 9 206.666 27 297.999s45.667 170.166 83 236.499s84.166 118.333 140.499 156s123.166 56.5 200.499 56.5c76.667 0 143.334 -18.833 200.001 -56.5s103.5 -89.667 140.5 -156s64.5 -145.166 82.5 -236.499s27 -190.666 27 -297.999c0 -108 -9 -207.667 -27 -299
s-45.5 -170.166 -82.5 -236.499s-83.833 -118.333 -140.5 -156s-123.334 -56.5 -200.001 -56.5z" />
    <glyph glyph-name="one" unicode="1" horiz-adv-x="778" 
d="M72 72l184.001 5.99902c25.333 1.33301 43.666 7.16602 54.999 17.499s17 28.5 17 54.5v1079c-26 -13.333 -54.333 -25.333 -85 -36c-26 -9.33301 -56.333 -17.666 -91 -24.999s-71.667 -11 -111 -11v51c36.667 0 73.667 8.5 111 25.5s71.833 39 103.5 66
s59.334 57.667 83.001 92s40.5 68.833 50.5 103.5h92v-1345c0 -26 5.66699 -44.167 17 -54.5s29.666 -16.166 54.999 -17.499l154 -6v-72h-635v72z" />
    <glyph glyph-name="two" unicode="2" horiz-adv-x="1096" 
d="M82 0c0 6 -0.329102 12.5049 -0.996094 19.5049s-1 13.5 -1 19.5c0 84.667 11.167 159.167 33.5 223.5s51.666 121.5 87.999 171.5s77.833 94.667 124.5 134s94.334 76.333 143.001 111l143 101.5c46.667 33 88.167 68.333 124.5 106s65.666 79 87.999 124
s33.5 97.167 33.5 156.5c0 46 -7.66699 88 -23 126s-36.666 70.5 -63.999 97.5s-59.666 47.833 -96.999 62.5s-77.666 22 -120.999 22c-51.333 0 -97 -9.83301 -137 -29.5s-73.833 -44.167 -101.5 -73.5s-48.834 -61.333 -63.501 -96s-22 -67.334 -22 -98.001
s4.5 -56.834 13.5 -78.501s21 -39.5 36 -53.5s32 -24.167 51 -30.5s38.833 -9.5 59.5 -9.5c22.667 0 44.834 3.33301 66.501 10s41.834 16 60.501 28l33 -40c-10 -15.333 -22.667 -31.333 -38 -48s-32.666 -31.834 -51.999 -45.501s-40.5 -24.834 -63.5 -33.501
s-47.5 -13 -73.5 -13c-27.333 0 -53.833 4.66699 -79.5 14s-48.334 23.833 -68.001 43.5s-35.5 44.667 -47.5 75s-18 66.833 -18 109.5c0 43.333 10.167 89.666 30.5 138.999s50.166 94.833 89.499 136.5s87.5 76.167 144.5 103.5s122.167 41 195.5 41
c54 0 106.167 -10.333 156.5 -31s95 -49.167 134 -85.5s70.333 -79.666 94 -129.999s35.5 -104.833 35.5 -163.5c0 -65.333 -9.5 -121.666 -28.5 -168.999s-44.667 -88.833 -77 -124.5s-69.833 -67.167 -112.5 -94.5s-87.167 -53.5 -133.5 -78.5l-141 -76.5
c-47.667 -26 -92.834 -55.5 -135.501 -88.5s-81.334 -71.333 -116.001 -115s-62.334 -95.834 -83.001 -156.501c10 13.333 20.667 25.666 32 36.999s24.166 21.333 38.499 30s30.166 15.334 47.499 20.001s36.666 7 57.999 7c24 0 48.5 -3.5 73.5 -10.5
s50.333 -15.833 76 -26.5s51.334 -22.167 77.001 -34.5s51.167 -23.833 76.5 -34.5s50.333 -19.5 75 -26.5s48.667 -10.5 72 -10.5c20 0 38 1.33301 54 4s30.5 7.66699 43.5 15s24.833 17.833 35.5 31.5s21 31.5 31 53.5l35 -8c-3.33301 -29.333 -9.83301 -59.333 -19.5 -90
s-23.834 -58.667 -42.501 -84s-42.334 -46 -71.001 -62s-64 -24 -106 -24c-26 0 -52.167 4.83301 -78.5 14.5s-52.5 21.667 -78.5 36s-51.667 30 -77 47s-50.333 32.667 -75 47s-48.667 26.333 -72 36s-46 14.5 -68 14.5c-21.333 0 -40.333 -4.33301 -57 -13
s-31.167 -19.834 -43.5 -33.501s-22.666 -28.5 -30.999 -44.5s-15.333 -31.167 -21 -45.5s-10 -27 -13 -38s-5.16699 -17.833 -6.5 -20.5h-45z" />
    <glyph glyph-name="three" unicode="3" horiz-adv-x="1126" 
d="M410 799c42 22 84.8281 48.3359 128.495 79.0029s83.167 65.167 118.5 103.5s64.333 80.833 87 127.5s34 97 34 151c0 34.667 -5.5 64.667 -16.5 90s-25.667 46.166 -44 62.499s-39.833 28.333 -64.5 36s-50.667 11.5 -78 11.5c-31.333 0 -61.666 -6 -90.999 -18
s-55.666 -28.833 -78.999 -50.5s-42 -47.167 -56 -76.5s-21 -61.333 -21 -96c0 -31.333 5.66699 -58.5 17 -81.5s24 -42.167 38 -57.5c16 -18 34.333 -33.333 55 -46l-22 -45c-36.667 8 -68.167 19.333 -94.5 34s-48.166 31.5 -65.499 50.5s-30.166 39.667 -38.499 62
s-12.5 45.166 -12.5 68.499c0 36.667 9.16699 73.167 27.5 109.5s44.666 69.166 78.999 98.499s75.833 53.166 124.5 71.499s103.334 27.5 164.001 27.5c42.667 0 84.5 -4.66699 125.5 -14s77.333 -23.833 109 -43.5s57.167 -44.667 76.5 -75s29 -66.5 29 -108.5
c0 -34.667 -8.16699 -68.667 -24.5 -102s-37 -65.5 -62 -96.5s-52.667 -60 -83 -87s-59.333 -51.5 -87 -73.5s-52.5 -40.833 -74.5 -56.5s-37.333 -27.5 -46 -35.5c71.333 -2.66699 135 -15 191 -37s103.167 -50.667 141.5 -86s67.666 -76 87.999 -122s30.5 -94 30.5 -144
c0 -48 -7 -92 -21 -132s-33.333 -76 -58 -108s-53.667 -60 -87 -84s-69.166 -44 -107.499 -60s-78.333 -28 -120 -36s-83.167 -12 -124.5 -12c-52.667 0 -103.334 6.33301 -152.001 19s-91.667 31.834 -129 57.501s-67.166 57.834 -89.499 96.501s-33.5 84 -33.5 136
c0 28 3.83301 55.833 11.5 83.5s18 54 31 79s28.333 48.667 46 71s36.834 42.166 57.501 59.499l36 -27c-16 -32 -27.833 -64.5 -35.5 -97.5s-11.5 -65.833 -11.5 -98.5c0 -53.333 9 -100 27 -140s41.667 -73.333 71 -100s62.833 -46.667 100.5 -60s76.167 -20 115.5 -20
c38.667 0 76.667 6.66699 114 20s70.833 33 100.5 59s53.5 58.5 71.5 97.5s27 84.167 27 135.5c0 44 -8.83301 88.5 -26.5 133.5s-44.167 85.667 -79.5 122s-79.5 66 -132.5 89s-114.833 34.5 -185.5 34.5z" />
    <glyph glyph-name="four" unicode="4" horiz-adv-x="1065" 
d="M72 549c111.333 98.667 202.169 193.835 272.502 285.502s125.5 177.834 165.5 258.501s67.333 155 82 223s22 127.667 22 179h164c0 -60 -9.5 -119.5 -28.5 -178.5s-44.167 -116.833 -75.5 -173.5s-66.666 -111.334 -105.999 -164.001s-79.333 -102.5 -120 -149.5
l-118.5 -131l-100.5 -106.5c9.33301 1.33301 19.166 2.66602 29.499 3.99902s23.166 2 38.499 2c44 0 85 -7.16699 123 -21.5s74.167 -30.833 108.5 -49.5l100 -55.5c32.333 -18.333 64.5 -31.5 96.5 -39.5c4 118.667 6 243.667 6 375v135l143 41
c0 -32.667 -0.166992 -69.834 -0.5 -111.501s-0.833008 -86.334 -1.5 -134.001s-1.5 -97.667 -2.5 -150s-2.16699 -105.5 -3.5 -159.5c14.667 2 29.167 5.33301 43.5 10s30.5 12.334 48.5 23.001l25 -31c-17.333 -14.667 -36.333 -26.5 -57 -35.5
s-41.334 -15.5 -62.001 -19.5c-2 -62.667 -4.33301 -125.667 -7 -189s-5.66699 -125.333 -9 -186h-143l10 183.5c3.33301 62.333 6 126.833 8 193.5c-34.667 8 -68.5 21.5 -101.5 40.5l-101.5 58c-34.667 19.667 -71 36.834 -109 51.501s-79.333 22 -124 22
c-22.667 0 -43.167 -2.33301 -61.5 -7s-34.833 -10.334 -49.5 -17.001s-27.5 -13.5 -38.5 -20.5l-28.5 -17.5z" />
    <glyph glyph-name="five" unicode="5" horiz-adv-x="1188" 
d="M270 1452l483.999 0.00488281c20 0 39.833 0.5 59.5 1.5s38.167 3 55.5 6s33.166 7.33301 47.499 13s26.166 13.167 35.499 22.5l35 -27c-21.333 -25.333 -42.666 -48.666 -63.999 -69.999s-45.5 -39.666 -72.5 -54.999s-58.333 -27.333 -94 -36s-78.167 -13 -127.5 -13
h-295l-25 -303c90 -2.66699 171.333 -11.834 244 -27.501s137.167 -36.334 193.5 -62.001s104.833 -55.5 145.5 -89.5s74.167 -70.5 100.5 -109.5s45.666 -79.667 57.999 -122s18.5 -84.833 18.5 -127.5c0 -60.667 -11.667 -119.334 -35 -176.001s-56.666 -107 -99.999 -151
s-95.666 -79.333 -156.999 -106s-130 -40 -206 -40c-58.667 0 -115.167 7.5 -169.5 22.5s-102.166 36.667 -143.499 65s-74.5 62.666 -99.5 102.999s-37.5 85.833 -37.5 136.5c0 28 3.66699 55.833 11 83.5s17.5 54 30.5 79s28.333 48.667 46 71
s36.834 42.166 57.501 59.499l37 -27c-16.667 -32 -28.667 -64.5 -36 -97.5s-11 -65.833 -11 -98.5c0 -45.333 7.16699 -88.833 21.5 -130.5s35.5 -78.5 63.5 -110.5s63 -57.5 105 -76.5s90.667 -28.5 146 -28.5c52 0 98.667 9.66699 140 29s76.166 45.166 104.499 77.499
s50 69.833 65 112.5s22.5 87.667 22.5 135c0 40.667 -5.83301 82 -17.5 124s-29.667 82.5 -54 121.5s-55.333 75.667 -93 110s-82.167 64.166 -133.5 89.499s-110 45.5 -176 60.5s-139.667 22.5 -221 22.5z" />
    <glyph glyph-name="six" unicode="6" horiz-adv-x="1106" 
d="M600 821c-36 0 -71.668 -9.16699 -107.001 -27.5s-66.666 -43.5 -93.999 -75.5s-49.5 -70 -66.5 -114s-25.5 -91.667 -25.5 -143c0 -59.333 7.33301 -114.166 22 -164.499s34.667 -93.833 60 -130.5s55 -65.334 89 -86.001s70.667 -31 110 -31
c34 0 67.333 9.16699 100 27.5s61.5 44.5 86.5 78.5s45.167 75 60.5 123s23 102 23 162c0 58 -6 110.5 -18 157.5s-29 87 -51 120s-49 58.5 -81 76.5s-68 27 -108 27zM773.999 1454c-27.333 -12 -57.002 -27.498 -89.002 -46.498s-64.5 -42.833 -97.5 -71.5
s-65.5 -62.5 -97.5 -101.5s-61.333 -84.333 -88 -136s-50 -110.334 -70 -176.001s-34.333 -139.167 -43 -220.5c6.66699 11.333 18.834 27 36.501 47s40.167 39.833 67.5 59.5s59.333 36.667 96 51s77.667 21.5 123 21.5c62.667 0 119.334 -10.667 170.001 -32
s93.5 -50.166 128.5 -86.499s62 -78.5 81 -126.5s28.5 -99 28.5 -153c0 -76 -11.833 -144 -35.5 -204s-55.5 -110.833 -95.5 -152.5s-86.5 -73.5 -139.5 -95.5s-108.833 -33 -167.5 -33c-66 0 -127.167 14.667 -183.5 44s-104.833 71 -145.5 125s-72.5 119 -95.5 195
s-34.5 160.667 -34.5 254c0 77.333 8.83301 151.666 26.5 222.999s42 138.166 73 200.499s67.167 119.5 108.5 171.5s85.5 97.667 132.5 137s95.667 71.333 146 96s99.833 41 148.5 49z" />
    <glyph glyph-name="seven" unicode="7" horiz-adv-x="963" 
d="M68 1249c0 36.667 3.82812 70.0029 11.4951 100.003s19.5 55.833 35.5 77.5s36 38.5 60 50.5s52.333 18 85 18c38.667 0 77 -4.33301 115 -13s76.167 -18 114.5 -28s77.666 -19.333 117.999 -28s82.166 -13 125.499 -13c28 0 52.167 2.5 72.5 7.5
s37.166 10.833 50.499 17.5c15.333 7.33301 28.333 16 39 26l25 -30c-65.333 -68.667 -121.666 -133.834 -168.999 -195.501s-87.666 -120.334 -120.999 -176.001s-60.166 -108.834 -80.499 -159.501s-36.166 -99.167 -47.499 -145.5s-19 -90.5 -23 -132.5
s-6 -82.333 -6 -121c0 -59.333 2.83301 -111 8.5 -155s12 -82.5 19 -115.5l19 -87c5.66699 -25 8.5 -48.5 8.5 -70.5c0 -28 -7.16699 -47.667 -21.5 -59s-32.166 -17 -53.499 -17c-23.333 0 -44.166 3.16699 -62.499 9.5s-34 18.166 -47 35.499s-23 41.333 -30 72
s-10.5 70.334 -10.5 119.001c0 99.333 9.66699 198 29 296s47.333 192.667 84 284s81.334 177.666 134.001 258.999s112.334 155 179.001 221c-9.33301 -2 -19.833 -3.5 -31.5 -4.5s-23.5 -1.5 -35.5 -1.5c-28 0 -59.333 2.16699 -94 6.5s-70 9.33301 -106 15
s-71.833 10.667 -107.5 15s-68.5 6.5 -98.5 6.5c-40 0 -71.833 -6.16699 -95.5 -18.5s-37.5 -34.166 -41.5 -65.499h-51z" />
    <glyph glyph-name="eight" unicode="8" horiz-adv-x="1188" 
d="M1083 446c0 -71.333 -13.8311 -135.666 -41.498 -192.999s-64 -106.166 -109 -146.499s-96.333 -71.5 -154 -93.5s-116.5 -33 -176.5 -33c-66.667 0 -129.167 9.83301 -187.5 29.5s-109.333 47.5 -153 83.5s-78 79.333 -103 130s-37.5 107.334 -37.5 170.001
c0 60.667 10.667 114 32 160s49.333 86.833 84 122.5s74.334 67.667 119.001 96s90 55.166 136 80.499c-32.667 22.667 -63.334 46.5 -92.001 71.5s-53.834 51.5 -75.501 79.5s-38.834 58 -51.501 90s-19 67 -19 105c0 50 10 94.667 30 134s46.333 72.666 79 99.999
s69.834 48.166 111.501 62.499s84.167 21.5 127.5 21.5c50 0 96.167 -6.83301 138.5 -20.5s79 -33 110 -58s55.333 -55.167 73 -90.5s26.5 -74.666 26.5 -117.999c0 -39.333 -6.33301 -74.166 -19 -104.499s-29.834 -57.833 -51.501 -82.5s-47 -47.334 -76 -68.001
s-59.833 -40.334 -92.5 -59.001l135 -89.5c44.667 -31 84.5 -65.333 119.5 -103s63.333 -79 85 -124s32.5 -95.833 32.5 -152.5zM254.002 385c0 -58 9.83008 -109 29.4971 -153s45.834 -80.833 78.501 -110.5s69.834 -52.167 111.501 -67.5s84.5 -23 128.5 -23
c44.667 0 87.334 6.83301 128.001 20.5s76.5 34.5 107.5 62.5s55.833 63.167 74.5 105.5s28 92.166 28 149.499c0 52 -12 98.833 -36 140.5s-55 80.167 -93 115.5s-80.833 68.5 -128.5 99.5l-141.5 94.5c-38 -22.667 -74.333 -47.167 -109 -73.5
s-65.167 -56.666 -91.5 -90.999s-47.333 -73.5 -63 -117.5s-23.5 -94.667 -23.5 -152zM847.999 1239c0 34.667 -5.49902 66.5 -16.499 95.5s-27 53.833 -48 74.5s-46.833 36.834 -77.5 48.501s-65.334 17.5 -104.001 17.5c-30 0 -58.667 -5 -86 -15
s-51.333 -24.167 -72 -42.5s-37 -40.833 -49 -67.5s-18 -56.667 -18 -90c0 -32.667 7.66699 -62.834 23 -90.501s35.833 -54 61.5 -79s55.334 -49 89.001 -72s69.167 -45.833 106.5 -68.5c27.333 18 52.666 37 75.999 57s43.5 41.833 60.5 65.5s30.333 49.167 40 76.5
s14.5 57.333 14.5 90z" />
    <glyph glyph-name="nine" unicode="9" horiz-adv-x="1075" 
d="M512 670c36 0 70.5 9.33496 103.5 28.002s62 44.834 87 78.501s44.833 74.167 59.5 121.5s22 99.666 22 156.999c0 63.333 -6.16699 119.166 -18.5 167.499s-30 88.666 -53 120.999s-50.5 56.833 -82.5 73.5s-67.333 25 -106 25c-34 0 -66.167 -9.16699 -96.5 -27.5
s-56.833 -44.5 -79.5 -78.5s-40.667 -75 -54 -123s-20 -102 -20 -162c0 -58 4.83301 -110.5 14.5 -157.5s24.5 -87 44.5 -120s44.833 -58.5 74.5 -76.5s64.5 -27 104.5 -27zM338 37.002c27.333 12 56.499 27.5 87.499 46.5s62.333 42.833 94 71.5s62.5 62.5 92.5 101.5
s57.667 84.167 83 135.5s47.5 109.833 66.5 175.5s32.833 139.167 41.5 220.5c-7.33301 -11.333 -18.666 -27 -33.999 -47s-35.333 -39.667 -60 -59s-54.334 -36.166 -89.001 -50.499s-74.667 -21.5 -120 -21.5c-63.333 0 -119.666 10.667 -168.999 32
s-91 50.166 -125 86.499s-59.833 78.5 -77.5 126.5s-26.5 99 -26.5 153c0 76 11.333 144 34 204s53.334 110.833 92.001 152.5s84 73.5 136 95.5s107.333 33 166 33c66 0 126 -13.333 180 -40s100.167 -66 138.5 -118s68 -116.667 89 -194s31.5 -166.333 31.5 -267
c0 -77.333 -8.33301 -151.5 -25 -222.5s-39.667 -137.667 -69 -200s-63.833 -119.5 -103.5 -171.5s-82.334 -97.667 -128.001 -137s-93.167 -71.333 -142.5 -96s-98.333 -41 -147 -49z" />
    <glyph glyph-name="colon" unicode=":" horiz-adv-x="430" 
d="M123 154c0 12.667 2.33301 24.667 7 36s11.167 21.166 19.5 29.499s18.166 14.833 29.499 19.5s23.333 7 36 7s24.667 -2.33301 36 -7s21.166 -11.167 29.499 -19.5s14.833 -18.166 19.5 -29.499s7 -23.333 7 -36c0 -13.333 -2.33301 -25.5 -7 -36.5
s-11.167 -20.833 -19.5 -29.5s-18.166 -15.334 -29.499 -20.001s-23.333 -7 -36 -7s-24.667 2.33301 -36 7s-21.166 11.334 -29.499 20.001s-14.833 18.5 -19.5 29.5s-7 23.167 -7 36.5zM123 625c0 12.667 2.33301 24.667 7 36s11.167 21.166 19.5 29.499
s18.166 14.833 29.499 19.5s23.333 7 36 7s24.667 -2.33301 36 -7s21.166 -11.167 29.499 -19.5s14.833 -18.166 19.5 -29.499s7 -23.333 7 -36c0 -13.333 -2.33301 -25.5 -7 -36.5s-11.167 -20.833 -19.5 -29.5s-18.166 -15.334 -29.499 -20.001s-23.333 -7 -36 -7
s-24.667 2.33301 -36 7s-21.166 11.334 -29.499 20.001s-14.833 18.5 -19.5 29.5s-7 23.167 -7 36.5z" />
    <glyph glyph-name="semicolon" unicode=";" horiz-adv-x="430" 
d="M123 625c0 12.667 2.33301 24.667 7 36s11.167 21.166 19.5 29.499s18.166 14.833 29.499 19.5s23.333 7 36 7s24.667 -2.33301 36 -7s21.166 -11.167 29.499 -19.5s14.833 -18.166 19.5 -29.499s7 -23.333 7 -36c0 -13.333 -2.33301 -25.5 -7 -36.5
s-11.167 -20.833 -19.5 -29.5s-18.166 -15.334 -29.499 -20.001s-23.333 -7 -36 -7s-24.667 2.33301 -36 7s-21.166 11.334 -29.499 20.001s-14.833 18.5 -19.5 29.5s-7 23.167 -7 36.5zM225 246c31.333 0 56.333 -11.668 75 -35.001s28 -52.666 28 -87.999
c0 -34.667 -7.66699 -66.667 -23 -96s-32.333 -55 -51 -77c-22 -26 -46.667 -49.667 -74 -71l-28 27c6 4 13 10.5 21 19.5s15.5 19.167 22.5 30.5s13 23.333 18 36s7.5 25 7.5 37c0 8 -5 14.667 -15 20s-21 12 -33 20s-23 18.333 -33 31s-15 30 -15 52
c0 12.667 2.83301 24.667 8.5 36s13.167 21.333 22.5 30s20 15.5 32 20.5s24.333 7.5 37 7.5z" />
    <glyph glyph-name="less" unicode="&#x3c;" horiz-adv-x="932" 
d="M809 328l-31 -62l-655 379l655 379l31 -61l-533 -318z" />
    <glyph glyph-name="equal" unicode="=" 
d="M123 748h563v-62h-563v62zM123 604h563v-61h-563v61z" />
    <glyph glyph-name="greater" unicode="&#x3e;" horiz-adv-x="932" 
d="M655 645l-532 318l31 61l655 -379l-655 -379l-31 62z" />
    <glyph glyph-name="question" unicode="?" horiz-adv-x="891" 
d="M371 375c-1.33301 9.33301 -2.33594 18.666 -3.00293 27.999c-1.33301 8 -2.16602 16.5 -2.49902 25.5s-0.5 17.167 -0.5 24.5c0 74.667 7.66699 139 23 193s34.5 100.5 57.5 139.5s48 72.5 75 100.5l75 76c23 22.667 42.167 44.667 57.5 66s23 45.333 23 72
c0 28.667 -6.33301 54.667 -19 78s-29.167 43.333 -49.5 60s-43.833 29.5 -70.5 38.5s-54 13.5 -82 13.5c-26 0 -51.5 -4.16699 -76.5 -12.5s-47.333 -21.333 -67 -39s-35.5 -40 -47.5 -67s-18 -59.167 -18 -96.5c0 -35.333 5.33301 -66.166 16 -92.499
s22.334 -48.333 35.001 -66s24.167 -30.834 34.5 -39.501s15.166 -13 14.499 -13l-24 -41c-0.666992 0 -6 1.5 -16 4.5s-22.333 8.16699 -37 15.5s-30.5 17.166 -47.5 29.499s-32.833 27.833 -47.5 46.5s-26.834 40.834 -36.501 66.501s-14.5 55.5 -14.5 89.5
c0 40.667 9.66699 76.834 29 108.501s44.5 58 75.5 79s65.667 37 104 48s76.5 16.5 114.5 16.5c42.667 0 83.334 -6.5 122.001 -19.5s72.834 -32.167 102.501 -57.5s53.334 -56.833 71.001 -94.5s26.5 -81.5 26.5 -131.5c0 -31.333 -8.66699 -60 -26 -86
s-39 -52.167 -65 -78.5l-85 -83c-30.667 -29 -59 -61.5 -85 -97.5s-47.667 -77.167 -65 -123.5s-26 -99.833 -26 -160.5v-20h-45zM306.997 92c0 12.667 2.33301 24.667 7 36s11.167 21.166 19.5 29.499s18.166 14.833 29.499 19.5s23.333 7 36 7s24.667 -2.33301 36 -7
s21.333 -11.167 30 -19.5s15.334 -18.166 20.001 -29.499s7 -23.333 7 -36s-2.33301 -24.667 -7 -36s-11.334 -21.166 -20.001 -29.499s-18.667 -14.833 -30 -19.5s-23.333 -7 -36 -7s-24.667 2.33301 -36 7s-21.166 11.167 -29.499 19.5s-14.833 18.166 -19.5 29.499
s-7 23.333 -7 36z" />
    <glyph glyph-name="at" unicode="@" horiz-adv-x="1188" 
d="M1065 487c0 -48 -5.66699 -91.333 -17 -130s-26.166 -71.5 -44.499 -98.5s-39.333 -47.833 -63 -62.5s-47.834 -22 -72.501 -22c-16 0 -31.5 2.5 -46.5 7.5s-28.833 12.833 -41.5 23.5s-23.667 23.667 -33 39s-16 33.666 -20 54.999c-21.333 -42 -48.666 -73 -81.999 -93
s-68 -30 -104 -30c-35.333 0 -66.166 7 -92.499 21s-48.166 32.5 -65.499 55.5s-30.166 49.333 -38.499 79s-12.5 60.5 -12.5 92.5c0 34.667 5.16699 69 15.5 103s25.5 64.5 45.5 91.5s45 48.833 75 65.5s65 25 105 25c35.333 0 69.166 -8.33301 101.499 -25
s58.166 -42.667 77.499 -78l4 56c1.33301 12 9 19.667 23 23s28.667 5 44 5c9.33301 0 16.166 -1.66699 20.499 -5s6.5 -9.66602 6.5 -18.999c0 -4.66699 -1.66699 -14.834 -5 -30.501s-6.83301 -37 -10.5 -64s-7.16699 -59.5 -10.5 -97.5s-5 -82 -5 -132
c0 -35.333 5 -61.166 15 -77.499s22.667 -24.5 38 -24.5c28 0 48.333 20.333 61 61s19 102.667 19 186c0 53.333 -6.83301 102.166 -20.5 146.499s-34.5 82.5 -62.5 114.5s-63.5 57 -106.5 75s-93.833 27 -152.5 27c-42.667 0 -85 -8.66699 -127 -26
s-79.667 -43.5 -113 -78.5s-60.333 -79 -81 -132s-31 -115.5 -31 -187.5c0 -53.333 8.16699 -102.333 24.5 -147s39.833 -83.167 70.5 -115.5s67.5 -57.5 110.5 -75.5s91.167 -27 144.5 -27c26.667 0 51.667 1.5 75 4.5s43.666 6.5 60.999 10.5c20 4.66699 38.333 10 55 16
l16 -43c-18 -9.33301 -38 -17.666 -60 -24.999c-18.667 -6 -40.5 -11.5 -65.5 -16.5s-52.167 -7.5 -81.5 -7.5c-82 0 -153.5 12.5 -214.5 37.5s-111.5 58.167 -151.5 99.5s-69.833 88.5 -89.5 141.5s-29.5 107.5 -29.5 163.5c0 58 10.333 115 31 171
s51.5 106.167 92.5 150.5s91.833 80 152.5 107s131 40.5 211 40.5c66.667 0 127.834 -10.5 183.501 -31.5s103.667 -50.333 144 -88s71.666 -82.5 93.999 -134.5s33.5 -108.667 33.5 -170zM729 504c0 24 -3.49805 45.332 -10.498 63.999s-16.333 34.167 -28 46.5
s-25.167 21.833 -40.5 28.5s-31.333 10 -48 10c-25.333 0 -47.333 -6.5 -66 -19.5s-34.334 -30.167 -47.001 -51.5s-22.167 -45.333 -28.5 -72s-9.5 -54 -9.5 -82c0 -25.333 2.66699 -49.666 8 -72.999s13.333 -44 24 -62s24.167 -32.5 40.5 -43.5
s35.166 -16.5 56.499 -16.5c16.667 0 33.834 5.5 51.501 16.5s33.667 27.833 48 50.5s26.166 51 35.499 85s14 73.667 14 119z" />
    <glyph glyph-name="A" unicode="A" horiz-adv-x="1352" 
d="M969 358c0 -58.667 1.5 -105.001 4.5 -139.001s7.66699 -59.667 14 -77s14.5 -28.333 24.5 -33s21.667 -7 35 -7c18 0 36.667 5.66699 56 17s38.333 26 57 44s36.5 38 53.5 60s32.667 43.5 47 64.5s26.666 40.667 36.999 59l23.5 42.5l31 62l41 -31l-31 -62l-26 -48.5
c-12 -22.333 -27 -47 -45 -74s-38.333 -55 -61 -84s-47 -55.5 -73 -79.5s-53.333 -43.667 -82 -59s-58 -23 -88 -23c-27.333 0 -51.666 4.66699 -72.999 14s-39.333 25.833 -54 49.5s-25.834 56 -33.501 97s-11.5 93.167 -11.5 156.5c0 24.667 0.5 48.167 1.5 70.5
s2.5 49.5 4.5 81.5c-34 -66 -73.167 -129.667 -117.5 -191s-91.833 -115.666 -142.5 -162.999s-103.5 -85.166 -158.5 -113.499s-110.5 -42.5 -166.5 -42.5c-35.333 0 -69 6.33301 -101 19s-60.333 32.167 -85 58.5s-44.334 60.166 -59.001 101.499s-22 90.666 -22 147.999
c0 92 10.167 182.333 30.5 271s48.5 174.5 84.5 257.5s78.333 162.333 127 238s101 145.834 157 210.501s114.667 123.167 176 175.5s122.666 97.166 183.999 134.499s121.166 66 179.499 86s112.833 30 163.5 30c56 0 100.667 -14.167 134 -42.5s50 -68.5 50 -120.5
c0 -34.667 -6.83301 -68.5 -20.5 -101.5s-31.667 -64.667 -54 -95s-47.666 -59 -75.999 -86s-56.833 -51.333 -85.5 -73s-56.5 -40.667 -83.5 -57s-50.167 -29.166 -69.5 -38.499l-30 41c16.667 8.66699 35.834 20.667 57.501 36s43.5 33.333 65.5 54s43.5 43.5 64.5 68.5
s39.833 51.333 56.5 79s30 56.334 40 86.001s15 59.167 15 88.5c0 28.667 -7.5 52.5 -22.5 71.5s-39.167 28.5 -72.5 28.5c-39.333 0 -82 -10.167 -128 -30.5s-93.333 -49.166 -142 -86.499s-97.5 -81.833 -146.5 -133.5s-96.167 -108.667 -141.5 -171
s-87.5 -129 -126.5 -200s-73 -144.667 -102 -221s-51.833 -154 -68.5 -233s-25 -157.5 -25 -235.5c0 -36 2.66699 -69.167 8 -99.5s14 -56.333 26 -78s27.667 -38.5 47 -50.5s43.333 -18 72 -18c36 0 71.333 8.16699 106 24.5s68.334 38.5 101.001 66.5
s64.167 60.667 94.5 98s58.833 77.333 85.5 120s51.5 86.5 74.5 131.5s43.5 89.5 61.5 133.5c4.66699 50 10 97.833 16 143.5s12 86.5 18 122.5s11.667 65.833 17 89.5s10 38.167 14 43.5c2.66699 4.66699 8.33398 10 17.001 16s18.5 11.5 29.5 16.5s22.167 9.33301 33.5 13
s21 5.5 29 5.5c20 0 30 -10 30 -30c0 -18.667 -1.33301 -40.334 -4 -65.001s-6.33398 -50.334 -11.001 -77.001s-10.167 -53.5 -16.5 -80.5s-13.5 -51.833 -21.5 -74.5c-5.33301 -72.667 -9.66602 -142.5 -12.999 -209.5s-5 -130.5 -5 -190.5z" />
    <glyph glyph-name="B" unicode="B" horiz-adv-x="1402" 
d="M1173 1372c0 -59.333 -11.665 -115.16 -34.998 -167.493s-52.833 -100.5 -88.5 -144.5s-74.667 -83.833 -117 -119.5s-82.5 -66.5 -120.5 -92.5c53.333 -4.66699 106.5 -17.5 159.5 -38.5s100.667 -50 143 -87s76.666 -81.667 102.999 -134s39.5 -111.833 39.5 -178.5
c0 -54.667 -7.83301 -103.834 -23.5 -147.501s-36.5 -82.667 -62.5 -117s-55.5 -63.833 -88.5 -88.5s-66.5 -45 -100.5 -61s-67.5 -27.833 -100.5 -35.5s-62.167 -11.5 -87.5 -11.5c-64 0 -117.167 7.66699 -159.5 23s-76 34.166 -101 56.499s-42.5 45.833 -52.5 70.5
s-15 46.334 -15 65.001c0 28.667 6.16699 56.167 18.5 82.5s28.833 50.166 49.5 71.499s44.667 40.166 72 56.499s55.666 28.833 84.999 37.5l21 -33c-42 -22.667 -73 -51.834 -93 -87.501s-30 -71.5 -30 -107.5c0 -20 4.16699 -40.833 12.5 -62.5s21 -41.5 38 -59.5
s38.333 -32.833 64 -44.5s55.834 -17.5 90.501 -17.5c50.667 0 98 9.5 142 28.5s82.167 45.333 114.5 79s57.666 73.167 75.999 118.5s27.5 94.333 27.5 147c0 54 -11.167 101.667 -33.5 143s-52 76.166 -89 104.499s-79.667 49.833 -128 64.5s-98.5 22 -150.5 22
c-21.333 0 -42.333 -1.16699 -63 -3.5s-40.167 -5.33301 -58.5 -9s-34.833 -7.16699 -49.5 -10.5s-26 -6 -34 -8l-10 10l92 143l25 7c8 2 17.667 4.16699 29 6.5s24 4.16602 38 5.49902c32 19.333 65.5 43.833 100.5 73.5s67 64 96 103s53 82.833 72 131.5
s28.5 101.667 28.5 159c0 96.667 -23 169.667 -69 219s-111.667 74 -197 74c-49.333 0 -99 -10.5 -149 -31.5s-98.167 -53.167 -144.5 -96.5s-89.666 -98 -129.999 -164s-75.333 -143.667 -105 -233s-53.167 -191 -70.5 -305s-26 -240.333 -26 -379
c0 -57.333 2.5 -110.333 7.5 -159s12.667 -90.834 23 -126.501s23.166 -63.5 38.499 -83.5s33.333 -30 54 -30s37.167 15.167 49.5 45.5s21.666 70 27.999 119s10.333 103.833 12 164.5s2.5 121.667 2.5 183c0 93.333 -1.33301 181.166 -4 263.499s-5.5 155.833 -8.5 220.5
s-5.83301 118.667 -8.5 162s-4.33398 72.333 -5.00098 87l116 35c3.33301 -5.33301 8 -21.333 14 -48s12 -61.834 18 -105.501s11.167 -94.334 15.5 -152.001s6.5 -119.834 6.5 -186.501c0 -112.667 -3.16699 -211.5 -9.5 -296.5s-15.166 -158.667 -26.499 -221
s-24.5 -114.166 -39.5 -155.499s-31.333 -74.166 -49 -98.499s-36 -41.666 -55 -51.999s-37.833 -15.5 -56.5 -15.5c-40.667 0 -77.167 13.833 -109.5 41.5s-59.833 64.334 -82.5 110.001s-40 98 -52 157s-18 119.833 -18 182.5c0 90 8.33301 183 25 279
s41.334 189.833 74.001 281.5s73 178.667 121 261s103.333 154.333 166 216s132.5 110.667 209.5 147s160.5 54.5 250.5 54.5c51.333 0 97.833 -6.83301 139.5 -20.5s77.167 -33.667 106.5 -60s52 -58.5 68 -96.5s24 -81.333 24 -130z" />
    <glyph glyph-name="C" unicode="C" horiz-adv-x="1116" 
d="M153 760c0 -120 13.666 -224.668 40.999 -314.001s63.5 -163.666 108.5 -222.999s96.333 -103.833 154 -133.5s116.834 -44.5 177.501 -44.5c43.333 0 86.166 8 128.499 24s83.5 40 123.5 72s78.5 72 115.5 120s71.5 104.333 103.5 169l11 21l41 -31l-11 -21
c-36.667 -74 -77.167 -139 -121.5 -195s-91.5 -102.833 -141.5 -140.5s-101.833 -66.167 -155.5 -85.5s-108.5 -29 -164.5 -29c-48 0 -95.5 6.83301 -142.5 20.5s-91.667 34.334 -134 62.001s-81.666 62.5 -117.999 104.5s-67.833 91.167 -94.5 147.5s-47.5 120 -62.5 191
s-22.5 149.167 -22.5 234.5c0 112.667 9.5 214.834 28.5 306.501s44.667 173.334 77 245.001s70 133.834 113 186.501s88.167 96.167 135.5 130.5s95.666 59.833 144.999 76.5s96.666 25 141.999 25c59.333 0 114 -10.167 164 -30.5s93 -49 129 -86s64.167 -82 84.5 -135
s30.5 -111.833 30.5 -176.5c0 -62 -9.5 -120.333 -28.5 -175s-44.333 -102.5 -76 -143.5s-68 -73.5 -109 -97.5s-83.833 -36 -128.5 -36c-30 0 -58 5.33301 -84 16s-48.667 25.667 -68 45s-34.666 43 -45.999 71s-17 59 -17 93c0 32.667 5 64.167 15 94.5
s22.667 58.333 38 84s32.166 48.334 50.499 68.001s36.166 35.167 53.499 46.5l27 -27c-14 -16 -27.167 -33.167 -39.5 -51.5s-23.166 -38 -32.499 -59s-16.666 -43.5 -21.999 -67.5s-8 -50 -8 -78c0 -28.667 3.5 -54.334 10.5 -77.001s16.667 -42 29 -58
s26.5 -28.167 42.5 -36.5s33 -12.5 51 -12.5c24.667 0 49.334 9.16699 74.001 27.5s46.667 45.333 66 81s35 79.5 47 131.5s18 112 18 180c0 61.333 -6.83301 114.5 -20.5 159.5s-32.5 82.167 -56.5 111.5s-52.333 51.166 -85 65.499s-67.667 21.5 -105 21.5
c-26.667 0 -57 -5.83301 -91 -17.5s-68.833 -30.834 -104.5 -57.501s-70.5 -61.834 -104.5 -105.501s-64.5 -97.667 -91.5 -162s-48.667 -139.833 -65 -226.5s-24.5 -186.334 -24.5 -299.001z" />
    <glyph glyph-name="D" unicode="D" horiz-adv-x="1554" 
d="M558 1679c132 0 251.494 -21.1738 358.494 -63.5068s198.5 -101.166 274.5 -176.499s134.667 -165 176 -269s62 -217.667 62 -341c0 -79.333 -7.66699 -156 -23 -230s-37.333 -143.667 -66 -209s-63.834 -125 -105.501 -179s-88.667 -100.5 -141 -139.5
s-109.666 -69.167 -171.999 -90.5s-128.833 -32 -199.5 -32c-72 0 -144.667 6.66699 -218 20s-146 27.666 -218 42.999c-24.667 -14 -50 -26.167 -76 -36.5s-52 -19 -78 -26s-51.5 -12.333 -76.5 -16s-48.5 -5.5 -70.5 -5.5c-66.667 0 -117.5 7.66699 -152.5 23
s-52.5 38.333 -52.5 69c0 18 4.83301 34 14.5 48s25.834 25.833 48.501 35.5s52.167 17 88.5 22s81.5 7.5 135.5 7.5c42 0 83.333 -2.16699 124 -6.5s81 -9.5 121 -15.5l27 28c14 16.667 24.667 37.834 32 63.501s12.666 58.834 15.999 99.501s5.33301 90.5 6 149.5
s1 130.5 1 214.5c0 81.333 0.5 150.833 1.5 208.5s3.5 107.167 7.5 148.5s10 76.5 18 105.5s18.833 55.667 32.5 80s30.834 48.333 51.501 72l74 81.5l51 -45c-14.667 -14 -26.167 -31.167 -34.5 -51.5s-14.5 -44.333 -18.5 -72s-6.5 -59 -7.5 -94s-1.5 -74.5 -1.5 -118.5
v-563c0 -43.333 -4.66699 -81.166 -14 -113.499s-21.833 -61.166 -37.5 -86.499s-33.5 -48 -53.5 -68s-40.667 -38.667 -62 -56l115 -24c37.333 -8 73.5 -15.333 108.5 -22s68.667 -12.167 101 -16.5s63.166 -6.5 92.499 -6.5c54.667 0 103.334 12 146.001 36
s79.667 56.833 111 98.5s57.833 90.667 79.5 147s39.167 116.833 52.5 181.5s22.833 132.334 28.5 203.001s8.5 140.667 8.5 210c0 110 -14 208.667 -42 296s-69.5 161.5 -124.5 222.5s-123.333 107.667 -205 140s-176.167 48.5 -283.5 48.5
c-77.333 0 -144.666 -6.16699 -201.999 -18.5s-106.5 -28.666 -147.5 -48.999s-74.5 -43.5 -100.5 -69.5s-46.5 -52.833 -61.5 -80.5s-25.333 -55.167 -31 -82.5s-8.5 -52.333 -8.5 -75c0 -26.667 2.16699 -52.834 6.5 -78.501s13 -48.5 26 -68.5s31.5 -36 55.5 -48
s56 -18 96 -18c13.333 0 24.333 0.833008 33 2.5s16 3.83398 22 6.50098c6.66699 2.66699 12.334 5.66699 17.001 9l12 -59c-10 -7.33301 -26.833 -13.666 -50.5 -18.999s-49.167 -8 -76.5 -8c-40 0 -77.167 7 -111.5 21s-64.166 33.167 -89.499 57.5
s-45.166 52.5 -59.499 84.5s-21.5 66 -21.5 102c0 62 16.333 120.833 49 176.5s78.334 104.667 137.001 147s128.5 76 209.5 101s169.5 37.5 265.5 37.5zM-56.0059 60.9932c-10.667 0 -22.001 -0.333008 -34.001 -1s-23.167 -2.33398 -33.5 -5.00098
s-18.833 -6.66699 -25.5 -12s-10 -13 -10 -23c0 -13.333 11 -23.333 33 -30s59 -10 111 -10c40 0 78.167 4.33301 114.5 13s70.5 21.334 102.5 38.001c-44 8 -87.667 15 -131 21s-85.666 9 -126.999 9z" />
    <glyph glyph-name="E" unicode="E" horiz-adv-x="1269" 
d="M532 0c66.667 0 125.005 12.002 175.005 36.002s92.667 55.667 128 95c-42.667 8 -81.834 22 -117.501 42s-66.5 44.833 -92.5 74.5s-46.333 63.334 -61 101.001s-22 78.5 -22 122.5c0 43.333 7.66699 83.166 23 119.499s36 67.666 62 93.999s56.167 46.833 90.5 61.5
s70.166 22 107.499 22c34.667 0 68.167 -6.33301 100.5 -19s60.833 -31.167 85.5 -55.5s44.5 -54.666 59.5 -90.999s22.5 -78.166 22.5 -125.499c0 -48 -10.333 -98.333 -31 -151s-50 -102.667 -88 -150c40 5.33301 75 16.666 105 33.999s56.167 38 78.5 62
s41.666 49.833 57.999 77.5s30.833 54.5 43.5 80.5l10 21l41 -31l-10 -21c-20.667 -41.333 -43.667 -79 -69 -113s-53.333 -63 -84 -87s-64.334 -42.5 -101.001 -55.5s-76.334 -19.833 -119.001 -20.5c-51.333 -52 -113 -94 -185 -126s-152.333 -48 -241 -48
c-78 0 -149 13 -213 39s-118.833 61.333 -164.5 106s-81.167 96.667 -106.5 156s-38 122.666 -38 189.999c0 76 11.833 142.167 35.5 198.5s54.167 104.5 91.5 144.5s78.833 73.167 124.5 99.5s90.834 47.5 135.501 63.5c-42.667 16 -80.334 36.333 -113.001 61
s-60.167 52.167 -82.5 82.5s-39.333 62.666 -51 96.999s-17.5 68.833 -17.5 103.5c0 62.667 13 118.167 39 166.5s59.833 89 101.5 122s88.667 58 141 75s105.166 25.5 158.499 25.5c44 0 86.167 -5.33301 126.5 -16s75.5 -25.667 105.5 -45
c16 3.33301 32.833 5.83301 50.5 7.5s36.167 2.5 55.5 2.5v-41c-11.333 0 -22 -0.333008 -32 -1s-19.667 -1.66699 -29 -3c19.333 -18.667 34.333 -39.5 45 -62.5s16 -48.5 16 -76.5c0 -26 -4.16699 -49.667 -12.5 -71s-20 -39.666 -35 -54.999s-32.5 -27.166 -52.5 -35.499
s-41.333 -12.5 -64 -12.5c-25.333 0 -47.833 4 -67.5 12s-36.167 18.667 -49.5 32s-23.666 29 -30.999 47s-11 36.667 -11 56c0 16.667 2.83301 33.667 8.5 51s14.334 34 26.001 50s26.667 31 45 45s40.166 26 65.499 36c-25.333 10.667 -51.833 18.167 -79.5 22.5
s-51.167 6.5 -70.5 6.5c-46.667 0 -87.834 -8.16699 -123.501 -24.5s-65.5 -39.5 -89.5 -69.5s-42.167 -66.333 -54.5 -109s-18.5 -90.334 -18.5 -143.001c0 -34 4 -67.5 12 -100.5s19.667 -63.333 35 -91s34.666 -51.667 57.999 -72s50.333 -35.5 81 -45.5
c28.667 7.33301 54.334 12.5 77.001 15.5s40.667 4.5 54 4.5c22.667 0 39 -3.66699 49 -11s15 -16.666 15 -27.999c0 -5.33301 -1 -10.5 -3 -15.5s-5.66699 -9.5 -11 -13.5s-12.833 -7.33301 -22.5 -10s-22.167 -4 -37.5 -4c-19.333 0 -38.333 0.666992 -57 2
s-36.667 3.66602 -54 6.99902c-44 -11.333 -84.333 -30.333 -121 -57s-68.167 -60.334 -94.5 -101.001s-46.833 -88 -61.5 -142s-22 -114 -22 -180c0 -76 10.333 -141.667 31 -197s48.334 -101 83.001 -137s74 -62.667 118 -80s89.667 -26 137 -26zM962.005 461.002
c0 41.333 -4.83301 76.999 -14.5 106.999s-22.5 54.833 -38.5 74.5s-34.333 34.167 -55 43.5s-42 14 -64 14c-23.333 0 -46 -5.16699 -68 -15.5s-41.833 -25.166 -59.5 -44.499s-31.834 -43.333 -42.501 -72s-16 -61 -16 -97c0 -40 6.5 -76.833 19.5 -110.5
s31.333 -63.334 55 -89.001s52 -46.667 85 -63s69.167 -27.166 108.5 -32.499c30.667 44 53.334 91 68.001 141s22 98 22 144zM829.005 1444c0 28.667 -6.99805 53.3311 -20.998 73.998s-31.667 38.334 -53 53.001c-26 -7.33301 -48.333 -16.666 -67 -27.999
s-33.834 -23.833 -45.501 -37.5s-20.334 -28 -26.001 -43s-8.5 -29.5 -8.5 -43.5c0 -26.667 9.5 -49.667 28.5 -69s45.5 -29 79.5 -29c36 0 63.833 11.5 83.5 34.5s29.5 52.5 29.5 88.5z" />
    <glyph glyph-name="F" unicode="F" horiz-adv-x="1190" 
d="M820 819v185c0 80 2.5 152.833 7.5 218.5s16.167 126.5 33.5 182.5c-52.667 8 -106.667 17.5 -162 28.5l-162.5 31.5c-53 10 -103.333 18.5 -151 25.5s-90.5 10.5 -128.5 10.5c-51.333 0 -94 -4.16699 -128 -12.5s-61.333 -19.5 -82 -33.5s-35.167 -30.167 -43.5 -48.5
s-12.5 -37.833 -12.5 -58.5s4.83301 -39.667 14.5 -57s23.5 -32.5 41.5 -45.5s39.5 -23.167 64.5 -30.5s52.833 -11 83.5 -11c34 0 64.167 3.83301 90.5 11.5s48.833 16.167 67.5 25.5c22 10.667 41.333 23 58 37l20 -43c-20.667 -15.333 -43.334 -29 -68.001 -41
c-21.333 -10.667 -46.166 -20.167 -74.499 -28.5s-59.5 -12.5 -93.5 -12.5c-44.667 0 -84.167 6 -118.5 18s-63.166 28.167 -86.499 48.5s-41 44.166 -53 71.499s-18 56.333 -18 87c0 32.667 5.5 64.334 16.5 95.001s29.333 58 55 82s59.5 43.167 101.5 57.5
s93.667 21.5 155 21.5c56.667 0 113.5 -4.5 170.5 -13.5s113.333 -20 169 -33s110 -27 163 -42s103.833 -28.5 152.5 -40.5c28.667 52.667 64.334 94.834 107.001 126.501s89 47.5 139 47.5c21.333 0 40.333 -3.5 57 -10.5s30.667 -16.167 42 -27.5s19.833 -24.5 25.5 -39.5
s8.5 -30.833 8.5 -47.5c0 -28 -6.5 -52.167 -19.5 -72.5s-30.833 -37.333 -53.5 -51s-49.334 -23.667 -80.001 -30s-63.667 -9.5 -99 -9.5h-24.5c-8.33301 0 -16.5 0.666992 -24.5 2c-5.33301 -33.333 -9.5 -70.5 -12.5 -111.5s-4.5 -87.167 -4.5 -138.5v-324h134l-21 -61
h-113v-246c0 -56 -0.666992 -104.833 -2 -146.5s-5 -78.667 -11 -111s-15 -61.333 -27 -87s-28.667 -50.834 -50 -75.501c-36.667 -42 -87.667 -76.333 -153 -103s-144.666 -40 -237.999 -40c-57.333 0 -112 8 -164 24s-97.667 38.333 -137 67s-70.666 63 -93.999 103
s-35 84.333 -35 133c0 36 5.83301 68.333 17.5 97s26.834 54.167 45.501 76.5s39.167 41.5 61.5 57.5s44.166 29.333 65.499 40s40.666 19 57.999 25s30.333 10 39 12l20 -41c-15.333 -8 -32.5 -18.833 -51.5 -32.5s-36.833 -31 -53.5 -52s-30.667 -46.5 -42 -76.5
s-17 -65.333 -17 -106c0 -43.333 7.33301 -82.166 22 -116.499s35.167 -63.333 61.5 -87s57.666 -41.667 93.999 -54s76.166 -18.5 119.499 -18.5c48.667 0 93.167 6.66699 133.5 20s74.833 35.666 103.5 66.999s51 73 67 125s24 116.667 24 194v352h-194l20 61h174z
M1148 1624c-30 0 -57.666 -10.833 -82.999 -32.5s-46.333 -58.5 -63 -110.5c20.667 -3.33301 40.667 -6 60 -8s37.666 -3 54.999 -3c18 0 33.5 2.5 46.5 7.5s23.5 11.5 31.5 19.5s14 17 18 27s6 20 6 30c0 19.333 -6.66699 35.833 -20 49.5s-30.333 20.5 -51 20.5z" />
    <glyph glyph-name="G" unicode="G" horiz-adv-x="1137" 
d="M1167 399c-14 -27.333 -30.166 -53.167 -48.499 -77.5s-37.5 -46.666 -57.5 -66.999s-40 -39 -60 -56s-38.333 -31.833 -55 -44.5v-115c0 -87.333 -6.83301 -165 -20.5 -233s-33.334 -125.667 -59.001 -173s-56.334 -83.333 -92.001 -108s-75.5 -37 -119.5 -37
c-24 0 -46 4.83301 -66 14.5s-37.167 22.834 -51.5 39.501s-25.5 36.167 -33.5 58.5s-12 46.166 -12 71.499c0 48.667 8.16699 93.5 24.5 134.5s38.5 79.667 66.5 116s60.333 71 97 104s75.667 65.833 117 98.5c0.666992 36.667 1.83398 73 3.50098 109
s3.33398 70 5.00098 102s3.33398 61 5.00098 87s3.16699 47.333 4.5 64c-22.667 -46 -48.167 -91.167 -76.5 -135.5s-58.5 -86.5 -90.5 -126.5s-65.5 -76.833 -100.5 -110.5s-70.167 -62.834 -105.5 -87.501s-70.5 -43.834 -105.5 -57.501s-68.5 -20.5 -100.5 -20.5
c-36 0 -70.167 7.16699 -102.5 21.5s-60.666 36.833 -84.999 67.5s-43.666 70 -57.999 118s-21.5 105.333 -21.5 172c0 74.667 8.33301 151.334 25 230.001s39.667 156.667 69 234s64.333 153 105 227s85 143.833 133 209.5s99 126 153 181s109 102.5 165 142.5
s112.167 71.167 168.5 93.5s111.166 33.5 164.499 33.5c56 0 100.833 -14.167 134.5 -42.5s50.5 -68.5 50.5 -120.5c0 -28 -5.83301 -55.167 -17.5 -81.5s-27.334 -51.666 -47.001 -75.999s-41.834 -47.333 -66.501 -69s-49.834 -41.5 -75.501 -59.5s-51 -34 -76 -48
s-47.167 -25.667 -66.5 -35l-30 41c25.333 12.667 53 30.667 83 54s58 49.666 84 78.999s47.667 61 65 95s26 68 26 102c0 28.667 -7.5 52.5 -22.5 71.5s-38.833 28.5 -71.5 28.5c-50.667 0 -104.834 -15.667 -162.501 -47s-115 -75 -172 -131
s-111.5 -122.833 -163.5 -200.5s-98 -162.834 -138 -255.501s-72 -191 -96 -295s-36 -210.667 -36 -320c0 -48 3.5 -91 10.5 -129s17 -70.167 30 -96.5s29 -46.666 48 -60.999s40.5 -21.5 64.5 -21.5c29.333 0 61.333 9 96 27s69.5 42.333 104.5 73s69.5 66.167 103.5 106.5
s65.333 82.833 94 127.5s53.667 90 75 136s37 89.667 47 131c4 48.667 8 93.167 12 133.5s7.83301 75.833 11.5 106.5s7.16699 55.5 10.5 74.5s6.33301 31.5 9 37.5c5.33301 10 13 20 23 30s20.833 18.833 32.5 26.5s23.167 13.834 34.5 18.501s21 7 29 7
c10.667 0 17.834 -4.33301 21.501 -13s5.5 -18 5.5 -28c0 -29.333 -5 -68.333 -15 -117s-22.667 -105.334 -38 -170.001c-6.66699 -28 -11.5 -64.833 -14.5 -110.5s-5 -94.334 -6 -146.001s-1.5 -103.667 -1.5 -156s-0.333008 -99.166 -1 -140.499
c49.333 36 88.833 73.167 118.5 111.5s52.167 72.833 67.5 103.5l11 21l41 -31zM795.001 50.999c-31.333 -24.667 -60.001 -50.668 -86.001 -78.001s-48.167 -56.666 -66.5 -87.999s-32.666 -65.5 -42.999 -102.5s-15.5 -77.167 -15.5 -120.5
c0 -41.333 6.66699 -72.166 20 -92.499s30.333 -30.5 51 -30.5s39.5 8.83301 56.5 26.5s31.667 46.667 44 87s22 93.166 29 158.499s10.5 145.333 10.5 240z" />
    <glyph glyph-name="H" unicode="H" horiz-adv-x="1857" 
d="M1469 -61l-0.00390625 773.999c-118.667 5.33301 -233 11.833 -343 19.5l-303 21.5v-224c0 -90 -8.5 -168.167 -25.5 -234.5s-43.833 -121.5 -80.5 -165.5s-83.334 -76.667 -140.001 -98s-124.667 -32 -204 -32c-56 0 -108.333 8.5 -157 25.5s-91 41.167 -127 72.5
s-64.167 69 -84.5 113s-30.5 93 -30.5 147c0 58.667 13.333 115.834 40 171.501s65.834 104.834 117.501 147.501s115.667 77 192 103s164.5 39 264.5 39h82v168c0 53.333 1.16699 104.5 3.5 153.5s8.5 96.5 18.5 142.5s25.333 90.667 46 134s49 86.333 85 129
c-36.667 -27.333 -76.5 -45.666 -119.5 -54.999s-86.833 -14 -131.5 -14c-30.667 0 -61.5 1.5 -92.5 4.5s-61.5 6.16699 -91.5 9.5l-87.5 9.5c-28.333 3 -55.5 4.5 -81.5 4.5c-28 0 -52.333 -3.5 -73 -10.5s-37.667 -16.667 -51 -29s-23.333 -26.5 -30 -42.5
s-10 -33 -10 -51s4.33301 -35.5 13 -52.5s21.334 -32.333 38.001 -46s37.167 -24.5 61.5 -32.5s51.833 -12 82.5 -12c28 0 53.333 2.66699 76 8s42 11.333 58 18c18.667 7.33301 35.334 16.333 50.001 27l21 -43c-18 -12 -38 -22.333 -60 -31
c-18.667 -7.33301 -40.5 -14.166 -65.5 -20.499s-51.5 -9.5 -79.5 -9.5c-38.667 0 -73.667 5.5 -105 16.5s-58.166 26 -80.499 45s-39.666 41.667 -51.999 68s-18.5 54.833 -18.5 85.5c0 36 6.66699 67.833 20 95.5s31.5 51.167 54.5 70.5s50 34 81 44s64.5 15 100.5 15
c36.667 0 73 -2.33301 109 -7s71.833 -9.83398 107.5 -15.501s71 -10.834 106 -15.501s69.5 -7 103.5 -7s67.333 3.16699 100 9.5s65.667 18.166 99 35.499l41 -31c-15.333 -20 -28.666 -42.333 -39.999 -67s-21 -54.667 -29 -90s-14 -77.5 -18 -126.5
s-6 -108.167 -6 -177.5v-307h646v287c0 64.667 1.66699 122.167 5 172.5s8.16602 95.333 14.499 135s14.166 75 23.499 106s20.166 59.167 32.499 84.5s25.833 49 40.5 71s30.334 44 47.001 66l41 -31c-10 -20.667 -18.833 -43.167 -26.5 -67.5s-14 -55.666 -19 -93.999
s-8.83301 -86.333 -11.5 -144s-4 -129.834 -4 -216.501v-369h174l-31 -112h-71.5c-24.333 0 -48.166 0.666992 -71.499 2v-750zM392.996 50.999c46 0 86.335 6.33301 121.002 19s63.5 33.667 86.5 63s40.333 68 52 116s17.5 107.667 17.5 179v336
c-20.667 1.33301 -40.834 2.33301 -60.501 3s-37.167 1 -52.5 1c-58 0 -109.333 -6.16699 -154 -18.5s-83.667 -28.833 -117 -49.5s-61.5 -44.667 -84.5 -72s-41.5 -56.166 -55.5 -86.499s-24 -61.333 -30 -93s-9 -61.834 -9 -90.501c0 -56 8.66699 -103.5 26 -142.5
s39.666 -70.667 66.999 -95s58 -42 92 -53s67.667 -16.5 101 -16.5z" />
    <glyph glyph-name="I" unicode="I" horiz-adv-x="1004" 
d="M677 406c0 18 -0.490234 35.5039 -1.49023 52.5039s-2.16699 34.5 -3.5 52.5s-3 37.167 -5 57.5s-4 43.166 -6 68.499c-27.333 -10.667 -56.333 -18.834 -87 -24.501s-64.667 -8.5 -102 -8.5c-41.333 0 -81 6.5 -119 19.5s-71.667 32.167 -101 57.5
s-52.833 57.166 -70.5 95.499s-26.5 83.166 -26.5 134.499c0 32.667 3.83301 64.167 11.5 94.5s21.167 62.166 40.5 95.499s45.166 69.5 77.499 108.5s73.166 83.5 122.499 133.5l175.5 170l237.5 218l41 -31c-14.667 -20 -27.667 -42 -39 -66s-21 -51.667 -29 -83
s-14 -67.5 -18 -108.5s-6 -88.5 -6 -142.5c0 -80.667 3 -162.5 9 -245.5s12.667 -164.167 20 -243.5c13.333 18.667 25.166 38.334 35.499 59.001s19.5 41.334 27.5 62.001l41 -21c-13.333 -32 -27.833 -62 -43.5 -90s-33.834 -54 -54.501 -78
c3.33301 -34 6.66602 -65.167 9.99902 -93.5s6.16602 -54.833 8.49902 -79.5s4.33301 -48.334 6 -71.001s2.5 -45.667 2.5 -69c0 -72 -6.5 -136 -19.5 -192s-38.167 -104.667 -75.5 -146c-36.667 -42 -88.834 -76.333 -156.501 -103s-147.834 -40 -240.501 -40
c-57.333 0 -112 8 -164 24s-97.667 38.333 -137 67s-70.666 63 -93.999 103s-35 84.333 -35 133c0 36 5.83301 68.333 17.5 97s26.834 54.167 45.501 76.5s39.167 41.5 61.5 57.5s44.166 29.333 65.499 40s40.666 19 57.999 25s30.333 10 39 12l20 -41
c-15.333 -8 -32.5 -18.833 -51.5 -32.5s-36.833 -31 -53.5 -52s-30.667 -46.5 -42 -76.5s-17 -65.333 -17 -106c0 -43.333 7.33301 -82.166 22 -116.499s35.167 -63.333 61.5 -87s57.666 -41.667 93.999 -54s76.166 -18.5 119.499 -18.5c48.667 0 93.167 6.66699 133.5 20
s74.833 35.666 103.5 66.999s51 73 67 125s24 116.667 24 194zM677.01 1526l-137.996 -135.002c-40 -40 -74.833 -76.667 -104.5 -110s-54.5 -64.166 -74.5 -92.499s-36 -56.166 -48 -83.499s-20.667 -55 -26 -83s-8 -58 -8 -90c0 -97.333 21.667 -167.833 65 -211.5
s103.333 -65.5 180 -65.5c25.333 0 49.166 2.5 71.499 7.5s43.166 12.167 62.499 21.5l-14.5 138.5c-5 46.333 -9.5 91 -13.5 134s-7.16699 83.5 -9.5 121.5s-3.5 71.333 -3.5 100s1.5 60 4.5 94s7.16699 67.167 12.5 99.5s11.666 62.333 18.999 90
s15.666 49.167 24.999 64.5z" />
    <glyph glyph-name="J" unicode="J" horiz-adv-x="1013" 
d="M491 1679c58 0 109.834 -17.5029 155.501 -52.5029s84.334 -88.333 116.001 -160s55.667 -162 72 -271s24.5 -237.833 24.5 -386.5c0 -17.333 -0.333008 -34.333 -1 -51s-1 -33.667 -1 -51l33 41l41 -31l-78 -88c-21.333 -193.333 -51.666 -361.333 -90.999 -504
s-84.333 -261.334 -135 -356.001s-104.834 -165.167 -162.501 -211.5s-115.834 -69.5 -174.501 -69.5c-24 0 -45.667 4.83301 -65 14.5s-36 22.834 -50 39.501s-24.667 36.167 -32 58.5s-11 46.166 -11 71.499c0 64 14 129.5 42 196.5s66.5 136.5 115.5 208.5
s107.167 146.667 174.5 224l219 244c3.33301 60.667 6.33301 123 9 187s4 134 4 210c0 131.333 -4.83301 241 -14.5 329s-23.5 158.5 -41.5 211.5s-39.667 90.5 -65 112.5s-53.333 33 -84 33c-40.667 0 -81.167 -18.167 -121.5 -54.5s-76.5 -89 -108.5 -158
s-58 -153.667 -78 -254s-30 -214.5 -30 -342.5c0 -67.333 5.33301 -124.333 16 -171s25 -84.5 43 -113.5s38.667 -50.167 62 -63.5s47.666 -20 72.999 -20c36 0 69 12.167 99 36.5s56 56.833 78 97.5s39 87.334 51 140.001s18 107.334 18 164.001c0 16 -0.5 31 -1.5 45
s-2.16699 26.333 -3.5 37c-2 12 -3.66699 23 -5 33l51 10l5 -31c1.33301 -10.667 2.5 -23.5 3.5 -38.5s1.5 -32.833 1.5 -53.5c0 -61.333 -7.33301 -121.5 -22 -180.5s-35.667 -111.5 -63 -157.5s-60.5 -83.167 -99.5 -111.5s-83.167 -42.5 -132.5 -42.5
c-54 0 -101.833 11.167 -143.5 33.5s-77 54.333 -106 96s-51 92.334 -66 152.001s-22.5 126.5 -22.5 200.5c0 73.333 7.16699 144 21.5 212s33.833 131.5 58.5 190.5s53.5 112.833 86.5 161.5s68 90.334 105 125.001s75.333 61.5 115 80.5s78.167 28.5 115.5 28.5z
M327.001 -451.003c15.333 0 33.499 4.83105 54.499 14.498s42.833 27.167 65.5 52.5s45.667 59.833 69 103.5s45.333 99.167 66 166.5s39.334 148.333 56.001 243s29.667 205.334 39 332.001l-187 -214.5c-54.667 -63.667 -101 -124.5 -139 -182.5
s-66.833 -115.167 -86.5 -171.5s-29.5 -116.166 -29.5 -179.499c0 -48 8.16699 -87.333 24.5 -118s38.833 -46 67.5 -46z" />
    <glyph glyph-name="K" unicode="K" horiz-adv-x="1438" 
d="M1438 1577l-73.999 0.000976562c-34 0 -62 -7.33301 -84 -22s-40.167 -34.334 -54.5 -59.001s-25.833 -53.667 -34.5 -87s-16.834 -68.833 -24.501 -106.5l-24.5 -116c-8.66699 -39.667 -20.334 -78.334 -35.001 -116.001s-33.334 -73.5 -56.001 -107.5
s-51.334 -63.667 -86.001 -89c35.333 -28 65.5 -61.833 90.5 -101.5s46.5 -82.834 64.5 -129.501s33.667 -95.5 47 -146.5l38.5 -152.5c12.333 -50.667 25 -99.667 38 -147s28.667 -90.833 47 -130.5s40 -74 65 -103s55.167 -50.167 90.5 -63.5
c34 -13.333 70.667 -22.166 110 -26.499s85.333 -6.5 138 -6.5l4 -41c-8.66699 -2 -18.667 -3.66699 -30 -5c-9.33301 -1.33301 -21 -2.5 -35 -3.5s-30 -1.5 -48 -1.5c-96 0 -175.833 11.333 -239.5 34s-115.667 53.334 -156 92.001s-71 83.334 -92 134.001s-37 104 -48 160
s-19.333 113.167 -25 171.5s-13 114 -22 167s-22 101.667 -39 146s-42.5 81.166 -76.5 110.499c-25.333 -10 -53.5 -18.667 -84.5 -26s-65.167 -12 -102.5 -14v-279c0 -56 -0.833008 -104.833 -2.5 -146.5s-5.66699 -78.667 -12 -111s-15.833 -61.333 -28.5 -87
s-29.667 -50.834 -51 -75.501c-36.667 -42 -88.834 -76.333 -156.501 -103s-147.834 -40 -240.501 -40c-57.333 0 -112 8 -164 24s-97.667 38.333 -137 67s-70.666 63 -93.999 103s-35 84.333 -35 133c0 36 5.83301 68.333 17.5 97s26.667 54.167 45 76.5
s38.833 41.5 61.5 57.5s44.5 29.333 65.5 40s40.333 19 58 25s30.834 10 39.501 12l20 -41c-15.333 -8 -32.5 -18.833 -51.5 -32.5s-36.833 -31 -53.5 -52s-30.667 -46.5 -42 -76.5s-17 -65.333 -17 -106c0 -43.333 7.33301 -82.166 22 -116.499s35.167 -63.333 61.5 -87
s57.666 -41.667 93.999 -54s76.166 -18.5 119.499 -18.5c48.667 0 93.167 6.66699 133.5 20s74.833 35.666 103.5 66.999s51 73 67 125s24 116.667 24 194v391c-19.333 4 -35.5 9.16699 -48.5 15.5s-23.333 13.333 -31 21s-13.167 15.5 -16.5 23.5s-5 16 -5 24
c0 7.33301 1.66699 15.166 5 23.499s8.83301 16.166 16.5 23.499s18 14.333 31 21s29.167 12 48.5 16v82c0 53.333 1.16699 104.166 3.5 152.499s8.5 95.333 18.5 141s25.333 90 46 133s49 85.833 85 128.5c-34 -21.333 -69 -36 -105 -44s-72.667 -12 -110 -12
c-46 0 -92.833 3.16699 -140.5 9.5s-96.167 9.5 -145.5 9.5c-28 0 -52.333 -3.66699 -73 -11s-37.834 -17 -51.501 -29s-23.667 -26 -30 -42s-9.5 -33 -9.5 -51s4.33301 -35.667 13 -53s21.334 -32.666 38.001 -45.999s37 -24.166 61 -32.499s51.333 -12.5 82 -12.5
c28 0 53.5 2.66699 76.5 8s42.5 11.333 58.5 18c18.667 7.33301 35.334 16.333 50.001 27l20 -43c-18 -12 -38 -22.333 -60 -31c-18.667 -7.33301 -40.5 -14.166 -65.5 -20.499s-51.5 -9.5 -79.5 -9.5c-38 0 -72.833 5.5 -104.5 16.5s-58.667 26 -81 45
s-39.666 41.667 -51.999 68s-18.5 54.833 -18.5 85.5c0 36 6.66699 67.833 20 95.5s31.5 51.167 54.5 70.5s50 34 81 44s64.5 15 100.5 15c36.667 0 71 -2.16699 103 -6.5s62.5 -9 91.5 -14l84 -14c27 -4.33301 53.833 -6.5 80.5 -6.5s53.334 3 80.001 9
s54.667 16.667 84 32l41 -30c-15.333 -20 -28.666 -42.333 -39.999 -67s-21 -54.667 -29 -90s-14 -77.666 -18 -126.999s-6 -108.333 -6 -177v-217c73.333 -6 135.666 -21 186.999 -45c34.667 24 60.834 52.5 78.501 85.5s30.667 68.167 39 105.5s13.833 76 16.5 116
s6 79 10 117s10.667 74 20 108s24.833 63.667 46.5 89s51.334 45.5 89.001 60.5s87.167 22.5 148.5 22.5h103v-51zM700.001 858.001c38 4 73 11.667 105 23c-31.333 12 -66.333 20 -105 24v-47zM498.001 881.001c0 -8.66699 3.5 -15.5 10.5 -20.5s19.833 -8.5 38.5 -10.5v57
c-20.667 -2 -34 -5.33301 -40 -10s-9 -10 -9 -16z" />
    <glyph glyph-name="L" unicode="L" horiz-adv-x="818" 
d="M654 1137c36 30.667 63.832 68.502 83.499 113.502s29.5 95.833 29.5 152.5c0 30.667 -3.83301 59.667 -11.5 87s-19 51.166 -34 71.499s-33.333 36.5 -55 48.5s-46.167 18 -73.5 18c-23.333 0 -45.5 -5.16699 -66.5 -15.5s-39.5 -25.666 -55.5 -45.999
s-28.833 -46 -38.5 -77s-14.5 -66.833 -14.5 -107.5s3.16699 -89.167 9.5 -145.5l21.5 -188c8 -69 15.167 -143.5 21.5 -223.5s9.5 -164 9.5 -252c0 -45.333 -3.83301 -88.166 -11.5 -128.499s-18.5 -77.833 -32.5 -112.5s-30.5 -66.667 -49.5 -96s-39.833 -56 -62.5 -80
c37.333 -17.333 74.166 -36.333 110.499 -57l107.5 -62.5l107 -61c36 -19.667 72.333 -37 109 -52s74.334 -27.167 113.001 -36.5s79 -14 121 -14c79.333 0 140.666 11.667 183.999 35l21 -27c-14 -12 -33.167 -24.833 -57.5 -38.5s-51.666 -26.334 -81.999 -38.001
s-62.5 -21.334 -96.5 -29.001s-68 -11.5 -102 -11.5c-72.667 0 -139.667 10.167 -201 30.5s-118 45.5 -170 75.5s-100.333 62.333 -145 97l-127 96c-39.333 -24.667 -78.833 -43 -118.5 -55s-76.167 -18 -109.5 -18c-28 0 -51.5 3.5 -70.5 10.5s-34.333 15.833 -46 26.5
s-20 22.667 -25 36s-7.5 26.333 -7.5 39c0 15.333 4.66699 30.333 14 45s22.833 27.834 40.5 39.501s38.834 21 63.501 28s52.334 10.5 83.001 10.5c34 0 66.833 -3 98.5 -9s62.834 -13.667 93.501 -23c24.667 38.667 44.834 86.5 60.501 143.5s23.5 125.833 23.5 206.5
c0 88 -3.16699 168.167 -9.5 240.5s-13.333 140.333 -21 204s-14.667 125 -21 184s-9.5 119.167 -9.5 180.5c0 54 9.83301 101.5 29.5 142.5s45 75.167 76 102.5s66 47.833 105 61.5s77.833 20.5 116.5 20.5c43.333 0 83.166 -6.66699 119.499 -20
s67.666 -31.5 93.999 -54.5s46.833 -50 61.5 -81s22 -64.5 22 -100.5c0 -38.667 -6.33301 -74.834 -19 -108.501s-28.5 -64.334 -47.5 -92.001s-39.833 -52.167 -62.5 -73.5s-44.334 -39 -65.001 -53zM-12.001 41.002c25.333 0 52.667 4.83301 82 14.5s58 25.834 86 48.501
c-28 17.333 -54.833 31.666 -80.5 42.999s-51.167 17 -76.5 17c-29.333 0 -53.833 -5.16699 -73.5 -15.5s-29.5 -25.833 -29.5 -46.5s8.33301 -36 25 -46s39 -15 67 -15z" />
    <glyph glyph-name="M" unicode="M" horiz-adv-x="1684" 
d="M517 1677c9.33301 -25.333 20.6572 -63.1631 33.9902 -113.496l44 -174.5l50.5 -215l53 -236l52 -237l47.5 -217l39.5 -177.5l27.5 -118.5c14.667 37.333 31.834 83.333 51.501 138l64 179.5l72 207l76 221l77.5 220.5l75 206.5l68.5 179
c21.667 54.333 41.167 100.166 58.5 137.499l82 -10c-12 -42 -24 -90.833 -36 -146.5s-23.5 -116 -34.5 -181s-21.5 -133.333 -31.5 -205s-18.667 -143.834 -26 -216.501s-13.166 -144.667 -17.499 -216s-6.5 -139.333 -6.5 -204c0 -126 9 -221.667 27 -287s46 -98 84 -98
c16.667 0 32.834 6.66699 48.501 20s32.334 33.333 50.001 60s36.667 59.834 57 99.501l69.5 137.5l10 21l41 -31l-10 -21l-89.5 -174.5c-26.333 -49.667 -51.666 -91.167 -75.999 -124.5s-48.666 -58.333 -72.999 -75s-50.833 -25 -79.5 -25
c-40 0 -73.333 9.83301 -100 29.5s-48.167 47.667 -64.5 84s-28 80.5 -35 132.5s-10.5 110.667 -10.5 176c0 71.333 3.66699 146.166 11 224.499s16.166 154.5 26.499 228.5s21 142.5 32 205.5s20.5 115.167 28.5 156.5l-451 -1288l-82 20c0 14 -4.33301 43.833 -13 89.5
s-20 101 -34 166l-47.5 215l-54.5 236.5l-148 622c2 -48 4.33301 -96.333 7 -145c2 -42 3.83301 -86.833 5.5 -134.5s2.5 -92.167 2.5 -133.5c0 -120.667 -6.83301 -227.667 -20.5 -321s-32.167 -174.5 -55.5 -243.5s-50.666 -127.167 -81.999 -174.5
s-64.666 -85.333 -99.999 -114s-71.5 -49.334 -108.5 -62.001s-73.167 -19 -108.5 -19s-68.5 5.83301 -99.5 17.5s-58 28 -81 49s-41.333 45.667 -55 74s-20.5 59.166 -20.5 92.499c0 39.333 6.5 77 19.5 113s31 69.833 54 101.5s50.167 61.167 81.5 88.5
s65 52.666 101 75.999l30 -31c-25.333 -18 -48.666 -38.167 -69.999 -60.5s-39.666 -46.333 -54.999 -72s-27.333 -52.334 -36 -80.001s-13 -55.5 -13 -83.5c0 -26 4.16699 -50.333 12.5 -73s20.333 -42.667 36 -60s34.334 -31 56.001 -41s46.167 -15 73.5 -15
c28 0 57 5.83301 87 17.5s59.167 31 87.5 58s55.333 62.667 81 107s48 99 67 164s34.167 141.167 45.5 228.5s17 188 17 302c0 32.667 -0.833008 71 -2.5 115s-4 90 -7 138s-6.5 96.167 -10.5 144.5s-8.16699 93.333 -12.5 135s-9 78.334 -14 110.001
s-9.83301 54.834 -14.5 69.501z" />
    <glyph glyph-name="N" unicode="N" horiz-adv-x="1483" 
d="M162 1679c32 0 63.1709 -15.165 93.5039 -45.498s59.166 -71.333 86.499 -123s52.666 -111.667 75.999 -180s44.666 -140.5 63.999 -216.5l151 -193l165.5 -205l174 -208.5l176.5 -204.5c-42 184.667 -73.667 350.667 -95 498s-32 277 -32 389
c0 80.667 7.83301 151.5 23.5 212.5s36.834 112 63.501 153s58 71.833 94 92.5s74.667 31 116 31c30.667 0 57.5 -5.33301 80.5 -16s42.333 -25 58 -43s27.334 -38.667 35.001 -62s11.5 -47.666 11.5 -72.999c0 -34 -3.5 -65.667 -10.5 -95s-14.5 -55 -22.5 -77
c-10 -26 -21 -50 -33 -72l-39 25l11.5 26.5c5 11.667 9.83301 26 14.5 43s8.66699 36.333 12 58s5 45.167 5 70.5c0 41.333 -9.33301 73.833 -28 97.5s-43.334 35.5 -74.001 35.5c-40 0 -73.833 -13.5 -101.5 -40.5s-50 -64.333 -67 -112s-29.333 -103.667 -37 -168
s-11.5 -133.5 -11.5 -207.5c0 -69.333 3 -141.5 9 -216.5s14.167 -150 24.5 -225s22.333 -148.5 36 -220.5s28.5 -139.333 44.5 -202l144 -154l-121 -114l-143.5 145l-182.5 199l-204.5 240c-71 86 -140.833 175 -209.5 267c6.66699 -38 11.167 -78.167 13.5 -120.5
s3.5 -88.833 3.5 -139.5c0 -92.667 -11 -172.167 -33 -238.5s-50.5 -121 -85.5 -164s-74 -74.667 -117 -95s-85.5 -30.5 -127.5 -30.5c-32.667 0 -63.834 5.66699 -93.501 17s-55.667 28 -78 50s-40.166 48.833 -53.499 80.5s-20 67.834 -20 108.501c0 62 15 122 45 180
s68 112.667 114 164l39 -20c-13.333 -20 -25.833 -41.333 -37.5 -64s-22 -45.834 -31 -69.501s-16.167 -47.834 -21.5 -72.501s-8 -49 -8 -73c0 -30.667 4.83301 -58.5 14.5 -83.5s22.5 -46.333 38.5 -64s34.833 -31.334 56.5 -41.001s44.5 -14.5 68.5 -14.5
c31.333 0 63.166 9.16699 95.499 27.5s61.666 47.666 87.999 87.999s47.833 92.666 64.5 156.999s25 142.166 25 233.499c0 52.667 -3.16699 103.834 -9.5 153.501s-15.5 96.167 -27.5 139.5c-72.667 103.333 -132.5 192.666 -179.5 267.999s-84 139.833 -111 193.5
s-45.833 97.834 -56.5 132.501s-16 63.334 -16 86.001c0 36 8.5 62 25.5 78s35.833 24 56.5 24zM142.004 1608c0 -6.66699 5.83301 -20.501 17.5 -41.501s28.334 -47.667 50.001 -80l78.5 -112.5l103 -139c-16.667 52.667 -34.834 102.834 -54.501 150.501
s-39.5 89.5 -59.5 125.5s-40 64.5 -60 85.5s-38.333 31.5 -55 31.5c-13.333 0 -20 -6.66699 -20 -20z" />
    <glyph glyph-name="O" unicode="O" horiz-adv-x="1432" 
d="M265 967c0 48.667 4.33398 100.164 13.001 154.497s22.167 107.833 40.5 160.5s41.333 103 69 151s60.5 90.167 98.5 126.5s81.167 65.333 129.5 87s102.166 32.5 161.499 32.5c60.667 0 116 -10.167 166 -30.5s94.667 -48.666 134 -84.999s73.833 -79.5 103.5 -129.5
s54.167 -104.667 73.5 -164s33.833 -122.166 43.5 -188.499s14.5 -133.833 14.5 -202.5c0 -76 -6.16699 -151.667 -18.5 -227s-30.666 -147.5 -54.999 -216.5s-54.833 -133.167 -91.5 -192.5s-79.334 -110.666 -128.001 -153.999s-103.5 -77.5 -164.5 -102.5
s-127.833 -37.5 -200.5 -37.5c-68 0 -131.667 10.5 -191 31.5s-113.666 50.667 -162.999 89s-93.333 84 -132 137s-71.167 111.333 -97.5 175s-46.5 131.667 -60.5 204s-21 146.833 -21 223.5c0 75.333 6.83301 145.333 20.5 210s31.834 124.334 54.501 179.001
s48.5 104.334 77.5 149.001s59.167 84.667 90.5 120s62.333 66 93 92s59 47.667 85 65l43 -29c-46 -37.333 -87.5 -83.333 -124.5 -138s-68.667 -116 -95 -184s-46.5 -141.167 -60.5 -219.5s-21 -159.833 -21 -244.5c0 -143.333 14.167 -266 42.5 -368
s65.833 -185.667 112.5 -251s100.167 -113.333 160.5 -144s122.5 -46 186.5 -46c69.333 0 133.666 15.333 192.999 46s110.833 78.667 154.5 144s78 149 103 251s37.5 224.667 37.5 368c0 137.333 -10.5 256.666 -31.5 357.999s-49.667 185.166 -86 251.499
s-78.833 115.833 -127.5 148.5s-100.334 49 -155.001 49c-42.667 0 -81 -9.66699 -115 -29s-63.833 -45.833 -89.5 -79.5s-47.834 -73 -66.501 -118s-33.834 -93.167 -45.501 -144.5s-20.167 -104.166 -25.5 -158.499s-8 -107.833 -8 -160.5c0 -62.667 2 -115.5 6 -158.5
s8.66699 -77.833 14 -104.5c6 -31.333 13 -56.333 21 -75l-59 -15c-9.33301 10.667 -20.166 25.667 -32.499 45s-24.166 44.666 -35.499 75.999s-21 69.333 -29 114s-12 97.667 -12 159z" />
    <glyph glyph-name="P" unicode="P" horiz-adv-x="1218" 
d="M532 236c-7.33301 -52 -18.0029 -96.1689 -32.0029 -132.502s-31 -66 -51 -89s-42.833 -39.667 -68.5 -50s-53.834 -15.5 -84.501 -15.5c-43.333 0 -83.833 12.667 -121.5 38s-70.167 63 -97.5 113s-48.833 112 -64.5 186s-23.5 159.667 -23.5 257
c0 102 9.83301 201 29.5 297s47.667 186 84 270s80 160.833 131 230.5s108 129.334 171 179.001s131.167 88.334 204.5 116.001s150 41.5 230 41.5c68.667 0 131.334 -10.333 188.001 -31s105.334 -49.334 146.001 -86.001s72 -80 94 -130s33 -104 33 -162
c0 -70 -9.66699 -135.167 -29 -195.5s-46.166 -115.5 -80.499 -165.5s-75.166 -94.667 -122.499 -134s-98.833 -72.666 -154.5 -99.999s-114.334 -48.5 -176.001 -63.5s-124.167 -23.5 -187.5 -25.5c-2 -83.333 -4.16699 -153.5 -6.5 -210.5
s-6.16602 -102.833 -11.499 -137.5zM357.997 654.998c3.33301 -1.33301 7.33398 -2.6709 12.001 -4.00391c4 -1.33301 8.83301 -2.66602 14.5 -3.99902s12.5 -2.66602 20.5 -3.99902c-1.33301 83.333 -2.83301 159.833 -4.5 229.5s-3.5 130.5 -5.5 182.5l-7 164
c4.66699 4 10 7.33301 16 10c5.33301 2.66699 11.666 5 18.999 7s16.333 3 27 3c30.667 0 55.334 -5.5 74.001 -16.5s28 -29.5 28 -55.5v-296c0 -87.333 -0.666992 -166 -2 -236c87.333 0 166.5 16.667 237.5 50s131.5 77.833 181.5 133.5s88.667 119.834 116 192.501
s41 148.667 41 228c0 50.667 -6.83301 98.834 -20.5 144.501s-34.5 85.667 -62.5 120s-63.167 61.666 -105.5 81.999s-92.166 30.5 -149.499 30.5c-58 0 -115.167 -11 -171.5 -33s-110 -55 -161 -99s-98 -98.667 -141 -164s-80.333 -141.666 -112 -228.999
s-56.334 -185.166 -74.001 -293.499s-26.5 -227.5 -26.5 -357.5c0 -56 2.83301 -110.5 8.5 -163.5s15.167 -100 28.5 -141s31.166 -73.833 53.499 -98.5s50.166 -37 83.499 -37c18 0 35 3.66699 51 11s30 22.5 42 45.5s21.667 56 29 99s11 100.5 11 172.5
c0 45.333 -0.333008 90.166 -1 134.499s-1 87.5 -1 129.5c-10 1.33301 -18.667 3 -26 5s-13.666 3.66699 -18.999 5c-6 2 -11 4 -15 6z" />
    <glyph glyph-name="Q" unicode="Q" horiz-adv-x="1403" 
d="M1024 -143c-23.333 0 -46.999 3.66504 -70.999 10.998s-48.333 16.666 -73 27.999s-49.334 24.333 -74.001 39l-73 45c-52 -20.667 -108.667 -31 -170 -31c-60 0 -105.667 11.5 -137 34.5s-47 52.5 -47 88.5s12.667 65.5 38 88.5s63.666 34.5 114.999 34.5
c48 0 95.5 -9.5 142.5 -28.5s92.5 -40.5 136.5 -64.5c40.667 36 77.834 80.667 111.501 134s62.5 114.5 86.5 183.5s42.667 145.667 56 230s20 175.166 20 272.499c0 120 -10.333 224.333 -31 313s-50 162.167 -88 220.5s-83.333 101.666 -136 129.999s-111 42.5 -175 42.5
c-56.667 0 -108 -10.833 -154 -32.5s-87.167 -51.667 -123.5 -90s-67.833 -84 -94.5 -137s-48.834 -111 -66.501 -174s-30.834 -129.833 -39.501 -200.5s-13 -142.667 -13 -216c0 -85.333 5 -163 15 -233s23 -131.667 39 -185s34.5 -98.166 55.5 -134.499
s42.5 -63.833 64.5 -82.5l-31 -41c-15.333 10 -33.5 24.333 -54.5 43s-43 42.167 -66 70.5s-45.5 61.666 -67.5 99.999s-41.833 82.333 -59.5 132s-32 105.5 -43 167.5s-16.5 130.667 -16.5 206c0 80 8.33301 156.833 25 230.5s39.667 142.334 69 206.001
s64.333 121.334 105 173.001s85.334 96 134.001 133s100.334 65.5 155.001 85.5s110.334 30 167.001 30c60 0 116.333 -8.66699 169 -26s101 -41.666 145 -72.999s83.333 -69.166 118 -113.499s64 -93.5 88 -147.5s42.333 -112 55 -174s19 -126.333 19 -193
c0 -92 -8.66699 -182 -26 -270s-42 -170.667 -74 -248s-70.667 -147.666 -116 -210.999s-96 -116.666 -152 -159.999c36 -20 69.333 -35.5 100 -46.5s58.667 -16.5 84 -16.5c24.667 0 49.5 10 74.5 30s50.667 48.5 77 85.5s54 82 83 135l93.5 179.5l10 21l41 -31l-10 -21
l-109.5 -214c-34.333 -66 -68 -123.333 -101 -172s-65.833 -86.834 -98.5 -114.501s-66.334 -41.5 -101.001 -41.5zM451.001 50.998c0 -15.333 9.33008 -27.667 27.9971 -37s43.334 -14 74.001 -14c38.667 0 77.667 6 117 18c-32 19.333 -62.167 35.5 -90.5 48.5
s-54.166 19.5 -77.499 19.5c-15.333 0 -27.666 -3.16699 -36.999 -9.5s-14 -14.833 -14 -25.5z" />
    <glyph glyph-name="R" unicode="R" horiz-adv-x="1300" 
d="M931 1679c69.333 0 130.173 -9 182.506 -27s96.166 -42.833 131.499 -74.5s61.833 -68.667 79.5 -111s26.5 -87.5 26.5 -135.5c0 -52.667 -8.83301 -103.167 -26.5 -151.5s-42 -94.166 -73 -137.499s-67.5 -84 -109.5 -122s-87 -72.667 -135 -104
s-97.833 -59.333 -149.5 -84s-102.834 -45.334 -153.501 -62.001c36 -32 68.667 -69.167 98 -111.5s57.333 -87.333 84 -135l79 -146.5c26 -50 53.333 -98.5 82 -145.5s59.834 -91.5 93.501 -133.5s72 -78.833 115 -110.5s91.167 -56.667 144.5 -75s114.333 -27.5 183 -27.5
l4 -41c-8.66699 -2 -18.667 -3.66699 -30 -5c-9.33301 -1.33301 -21 -2.5 -35 -3.5s-30 -1.5 -48 -1.5c-86.667 0 -162.334 9.83301 -227.001 29.5s-120.834 46.334 -168.501 80.001s-88.167 72.667 -121.5 117s-62.5 91.333 -87.5 141s-46.833 100.334 -65.5 152.001
l-55.5 150c-18.333 48.333 -37.666 93.333 -57.999 135s-44.5 77.167 -72.5 106.5c-13.333 -3.33301 -26.5 -6 -39.5 -8l-38.5 -6c-0.666992 -48 -1.5 -89.5 -2.5 -124.5s-2.16699 -65.667 -3.5 -92s-3 -49.5 -5 -69.5s-4.33301 -39.333 -7 -58
c-7.33301 -52 -18 -96.167 -32 -132.5s-31 -66 -51 -89s-42.833 -39.667 -68.5 -50s-53.834 -15.5 -84.501 -15.5c-43.333 0 -83.833 12.667 -121.5 38s-70.167 63 -97.5 113s-48.833 112 -64.5 186s-23.5 159.667 -23.5 257c0 102 11 199.833 33 293.5
s53.167 180.667 93.5 261s89.166 153.166 146.499 218.499s121.166 121.166 191.499 167.499s146.666 82 228.999 107s168.5 37.5 258.5 37.5zM317.007 707c0 17.333 6.83594 32.1699 20.5029 44.5029s32.167 20.5 55.5 24.5c-1.33301 65.333 -3 125 -5 179
s-3.66699 100.667 -5 140c-2 46 -3.66699 87.333 -5 124c4.66699 4 10 7.33301 16 10c5.33301 2.66699 11.666 5 18.999 7s16.333 3 27 3c30.667 0 55.334 -5.5 74.001 -16.5s28 -29.5 28 -55.5v-218.5c0 -67 -0.666992 -129.833 -2 -188.5
c21.333 -6 41.833 -13.5 61.5 -22.5s38.167 -19.167 55.5 -30.5c61.333 16.667 123 40.667 185 72s117.833 71.166 167.5 119.499s90 105.666 121 171.999s46.5 142.833 46.5 229.5c0 56.667 -7.83301 105 -23.5 145s-36.834 72.833 -63.501 98.5s-58.167 44.5 -94.5 56.5
s-74.833 18 -115.5 18c-68 0 -134.833 -9.83301 -200.5 -29.5s-127.667 -49.5 -186 -89.5s-112 -90.667 -161 -152s-91.333 -133.666 -127 -216.999s-63.5 -178 -83.5 -284s-30 -224 -30 -354c0 -56.667 2.83301 -111.5 8.5 -164.5s15.167 -100 28.5 -141
s31.166 -73.833 53.499 -98.5s50.166 -37 83.499 -37c18 0 35 3.66699 51 11s30 22.5 42 45.5s21.667 56 29 99s11 100.5 11 172.5v69.5v59c0 19 -0.166992 38.167 -0.5 57.5s-0.833008 40.666 -1.5 63.999c-25.333 6 -45 15.667 -59 29s-21 29.666 -21 48.999z
M368.01 707.004c0 -6.66699 1.16797 -12.333 3.50098 -17s10.166 -8.66699 23.499 -12v47c-18 -4 -27 -10 -27 -18zM540.011 682.005c5.33301 0 10.5 0.333008 15.5 1s10.167 1.66699 15.5 3c-5.33301 3.33301 -10.5 6.33301 -15.5 9s-10.167 5 -15.5 7v-20z" />
    <glyph glyph-name="S" unicode="S" horiz-adv-x="1096" 
d="M758 1135c15.333 11.333 29.1602 24.9971 41.4932 40.9971s22.833 33.333 31.5 52s15.334 38.334 20.001 59.001s7 41.667 7 63c0 32 -5.5 63.833 -16.5 95.5s-28.667 60.334 -53 86.001s-55.833 46.5 -94.5 62.5s-85.667 24 -141 24c-61.333 0 -119.333 -10 -174 -30
s-102.5 -47 -143.5 -81s-73.5 -73.333 -97.5 -118s-36 -91.334 -36 -140.001c0 -51.333 12.167 -96.833 36.5 -136.5s56.333 -75.667 96 -108s84.834 -62.166 135.501 -89.499l155 -81c52.667 -26.667 104.334 -54.5 155.001 -83.5s95.834 -61.5 135.501 -97.5
s71.667 -76.333 96 -121s36.5 -96.334 36.5 -155.001c0 -56 -13.333 -109.667 -40 -161s-63.334 -96.833 -110.001 -136.5s-101.5 -71.334 -164.5 -95.001s-130.833 -35.5 -203.5 -35.5c-81.333 0 -148.5 8.83301 -201.5 26.5s-95 39.834 -126 66.501s-52.5 55.5 -64.5 86.5
s-18 59.833 -18 86.5c0 32.667 5.16699 62.167 15.5 88.5s24.166 50 41.499 71s36.833 39.333 58.5 55s44 29 67 40s45.333 20 67 27s41.167 12.167 58.5 15.5l10 -51c-8 -2.66699 -22.5 -9.16699 -43.5 -19.5s-42.833 -25.333 -65.5 -45s-42.667 -44.167 -60 -73.5
s-26 -64 -26 -104c0 -27.333 5.83301 -54 17.5 -80s29.167 -49.333 52.5 -70s52 -37.334 86 -50.001s73.667 -19 119 -19c54.667 0 102.5 5.16699 143.5 15.5s76.333 23.833 106 40.5s54 35.834 73 57.501s34 44.167 45 67.5s18.667 46.5 23 69.5s6.5 43.833 6.5 62.5
c0 50.667 -11.667 95.167 -35 133.5s-54.166 72.666 -92.499 102.999s-81.833 58 -130.5 83l-149.5 74.5c-51 24.667 -100.833 50.334 -149.5 77.001s-92.167 57 -130.5 91s-69.166 72.833 -92.499 116.5s-35 94.834 -35 153.501c0 78.667 16.333 150.834 49 216.501
s76.667 122 132 169s119.5 83.5 192.5 109.5s149.833 39 230.5 39c68.667 0 127.334 -8 176.001 -24s88.5 -37 119.5 -63s53.667 -55.667 68 -89s21.5 -67.333 21.5 -102c0 -41.333 -7.16699 -79 -21.5 -113s-31.666 -64.167 -51.999 -90.5s-42.166 -48.333 -65.499 -66
s-44 -30.167 -62 -37.5z" />
    <glyph glyph-name="T" unicode="T" horiz-adv-x="1189" 
d="M909 1188c0 -68 3.67188 -134.168 11.0049 -198.501s15.5 -128.5 24.5 -192.5s17.333 -129 25 -195s11.5 -135 11.5 -207c0 -67.333 -9 -128.5 -27 -183.5s-46.667 -102 -86 -141s-89.833 -69 -151.5 -90s-135.834 -31.5 -222.501 -31.5c-57.333 0 -112 8 -164 24
s-97.667 38.333 -137 67s-70.666 63 -93.999 103s-35 84.333 -35 133c0 36 5.83301 68.333 17.5 97s26.667 54.167 45 76.5s38.666 41.5 60.999 57.5s44.166 29.333 65.499 40s40.666 19 57.999 25s30.333 10 39 12l21 -41c-15.333 -8 -32.5 -18.833 -51.5 -32.5
s-36.833 -31 -53.5 -52s-30.667 -46.5 -42 -76.5s-17 -65.333 -17 -106c0 -43.333 7.33301 -82.166 22 -116.499s35.167 -63.333 61.5 -87s57.666 -41.667 93.999 -54s76.166 -18.5 119.499 -18.5c44.667 0 87.167 5.5 127.5 16.5s75.833 29.5 106.5 55.5s55 60.333 73 103
s27 95.667 27 159s-3.5 126.833 -10.5 190.5s-14.5 127.667 -22.5 192s-15.5 129 -22.5 194s-10.5 130.833 -10.5 197.5c0 58 3.16699 111.167 9.5 159.5s16.166 94.166 29.499 137.499c-52.667 8 -106.667 17.5 -162 28.5l-162.5 31.5c-53 10 -103.333 18.5 -151 25.5
s-90.5 10.5 -128.5 10.5c-51.333 0 -94 -4.16699 -128 -12.5s-61.333 -19.5 -82 -33.5s-35.167 -30.167 -43.5 -48.5s-12.5 -37.833 -12.5 -58.5s4.83301 -39.667 14.5 -57s23.5 -32.5 41.5 -45.5s39.5 -23.167 64.5 -30.5s52.833 -11 83.5 -11
c34 0 64.167 3.83301 90.5 11.5s48.833 16.167 67.5 25.5c22 10.667 41.333 23 58 37l20 -43c-20.667 -15.333 -43.334 -29 -68.001 -41c-21.333 -10.667 -46.166 -20.167 -74.499 -28.5s-59.5 -12.5 -93.5 -12.5c-44.667 0 -84.167 6 -118.5 18
s-63.166 28.167 -86.499 48.5s-41 44.166 -53 71.499s-18 56.333 -18 87c0 32.667 5.5 64.334 16.5 95.001s29.333 58 55 82s59.5 43.167 101.5 57.5s93.667 21.5 155 21.5c56.667 0 113.5 -4.5 170.5 -13.5s113.333 -20 169 -33s110 -27 163 -42s103.833 -28.5 152.5 -40.5
c28.667 52.667 64.334 94.834 107.001 126.501s89 47.5 139 47.5c21.333 0 40.333 -3.5 57 -10.5s30.667 -16.167 42 -27.5s19.833 -24.5 25.5 -39.5s8.5 -30.833 8.5 -47.5c0 -28 -6.5 -52.167 -19.5 -72.5s-30.833 -37.333 -53.5 -51s-49.334 -23.667 -80.001 -30
s-63.667 -9.5 -99 -9.5h-24.5c-8.33301 0 -16.5 0.666992 -24.5 2c-6 -22.667 -11 -52 -15 -88s-6 -75 -6 -117zM1098 1624c-30 0 -57.666 -10.833 -82.999 -32.5s-46.333 -58.5 -63 -110.5c20.667 -3.33301 40.667 -6 60 -8s37.666 -3 54.999 -3c18 0 33.5 2.5 46.5 7.5
s23.5 11.5 31.5 19.5s14 17 18 27s6 20 6 30c0 19.333 -6.66699 35.833 -20 49.5s-30.333 20.5 -51 20.5z" />
    <glyph glyph-name="U" unicode="U" horiz-adv-x="1551" 
d="M619 0c39.333 0 77.332 9.33594 113.999 28.0029s72 44.667 106 78s66.167 73 96.5 119s59.166 96 86.499 150v47c0 83.333 3.16699 172.166 9.5 266.499s15.5 188.166 27.5 281.499s26.667 182.666 44 267.999s36.833 160.666 58.5 225.999s45.5 117.5 71.5 156.5
s53.333 58.5 82 58.5c20.667 0 36 -10.667 46 -32s15 -55 15 -101c0 -47.333 -4.16699 -107.333 -12.5 -180s-20.833 -152.5 -37.5 -239.5s-37.667 -179 -63 -276s-55 -193.5 -89 -289.5v-63c0 -126 9.83301 -221.667 29.5 -287s53.5 -98 101.5 -98
c18.667 0 36.334 6 53.001 18s33.667 30.667 51 56s36.5 58.166 57.5 98.499l73.5 144.5l11 21l40 -31l-10 -21l-89 -174.5c-26 -49.667 -51.5 -91.167 -76.5 -124.5s-51.167 -58.333 -78.5 -75s-58.666 -25 -93.999 -25c-66.667 0 -117.167 24.833 -151.5 74.5
s-56.166 121.167 -65.499 214.5c-27.333 -50 -56.5 -95.833 -87.5 -137.5s-64 -77.5 -99 -107.5s-71.667 -53.333 -110 -70s-78.833 -25 -121.5 -25c-43.333 0 -85.333 7.66699 -126 23s-76.667 38.833 -108 70.5s-56.333 72 -75 121s-28 107.167 -28 174.5
c0 73.333 7.5 145.666 22.5 216.999s34 141.166 57 209.499s47.667 134.833 74 199.5l74 186.5c23 59.667 42 116.667 57 171s22.5 105.5 22.5 153.5c0 28.667 -3 52.834 -9 72.501s-14.5 35.5 -25.5 47.5s-24 20.5 -39 25.5s-31.5 7.5 -49.5 7.5
c-49.333 0 -97.5 -11.333 -144.5 -34s-91.333 -53 -133 -91s-80 -81.667 -115 -131s-65.167 -101 -90.5 -155s-45 -108.167 -59 -162.5s-21 -105.5 -21 -153.5c0 -51.333 9.66699 -89.666 29 -114.999s47 -38 83 -38c26 0 52.333 7.83301 79 23.5s52.5 37.5 77.5 65.5
s48.667 61.333 71 100s42.166 81.334 59.499 128.001l41 -21c-12.667 -30.667 -29.834 -66 -51.501 -106s-47.5 -78 -77.5 -114s-64.167 -66.333 -102.5 -91s-80.5 -37 -126.5 -37c-28 0 -54 4.5 -78 13.5s-44.667 22.5 -62 40.5s-30.833 40.333 -40.5 67s-14.5 58 -14.5 94
c0 60 10.167 120.667 30.5 182s47.833 120.5 82.5 177.5s75.334 110.333 122.001 160s96.167 92.834 148.5 129.501s106.166 65.667 161.499 87s109.333 32 162 32c32 0 61.167 -5.16699 87.5 -15.5s49 -25.666 68 -45.999s33.667 -45.833 44 -76.5
s15.5 -66.334 15.5 -107.001c0 -49.333 -7.16699 -105 -21.5 -167s-32 -127.167 -53 -195.5s-44 -138.666 -69 -210.999s-48 -144 -69 -215s-38.667 -139.667 -53 -206s-21.5 -127.5 -21.5 -183.5c0 -54.667 7.16699 -98.834 21.5 -132.501s31.833 -59.667 52.5 -78
s42.834 -30.5 66.501 -36.5s45.167 -9 64.5 -9zM1284 1587c-9.33301 0 -18.002 -13.167 -26.002 -39.5s-15.5 -61.666 -22.5 -105.999s-13.5 -95.666 -19.5 -153.999s-11.5 -119.5 -16.5 -183.5s-9.16699 -128.833 -12.5 -194.5s-6.33301 -127.834 -9 -186.501
c22 75.333 41.333 150.166 58 224.499s30.834 145 42.501 212s20.334 128.333 26.001 184s8.5 102.167 8.5 139.5c0 32.667 -2.5 58.167 -7.5 76.5s-12.167 27.5 -21.5 27.5z" />
    <glyph glyph-name="V" unicode="V" horiz-adv-x="1361" 
d="M1082 1669c40.667 0 75.3291 -10.5059 103.996 -31.5059s52.334 -51 71.001 -90s32.334 -86.333 41.001 -142s13 -117.834 13 -186.501c0 -64 -3.66699 -131 -11 -201s-18.166 -140.833 -32.499 -212.5s-32 -142.5 -53 -212.5s-44.833 -136.667 -71.5 -200
s-56.334 -122.166 -89.001 -176.499s-68 -101.333 -106 -141s-78.5 -70.667 -121.5 -93s-88.167 -33.5 -135.5 -33.5c-50 0 -93.167 8.83301 -129.5 26.5s-67 41.667 -92 72s-45.167 65.333 -60.5 105s-27.166 81.5 -35.499 125.5s-13.833 88.833 -16.5 134.5
s-4 89.167 -4 130.5c0 79.333 3.33301 156.5 10 231.5s14.167 147.5 22.5 217.5s15.833 137 22.5 201s10 125 10 183c0 48.667 -2.66699 89.167 -8 121.5s-13.5 58.166 -24.5 77.499s-24.833 33 -41.5 41s-36.334 12 -59.001 12c-29.333 0 -58.333 -6.66699 -87 -20
s-56.167 -31.833 -82.5 -55.5s-50.5 -51.667 -72.5 -84s-41.167 -67.5 -57.5 -105.5s-29.166 -77.833 -38.499 -119.5s-14 -83.5 -14 -125.5c0 -43.333 3 -79.666 9 -108.999s14.167 -53 24.5 -71s23 -31 38 -39s31.5 -12 49.5 -12c31.333 0 59.666 8.5 84.999 25.5
s47.333 41 66 72s34 68.333 46 112s20.667 91.834 26 144.501l47 -2c-2 -22.667 -5.5 -48.5 -10.5 -77.5s-12.167 -58.333 -21.5 -88s-21 -58.834 -35 -87.501s-31.333 -54 -52 -76s-44.667 -39.833 -72 -53.5s-59 -20.5 -95 -20.5c-26 0 -53 5 -81 15
s-53.667 25.667 -77 47s-42.5 49.166 -57.5 83.499s-22.5 75.833 -22.5 124.5c0 48 6.83301 95.333 20.5 142s32.334 91.334 56.001 134.001s51.667 82 84 118s67.5 67.333 105.5 94s78 47.5 120 62.5s84 22.5 126 22.5c178.667 0 268 -129.667 268 -389
c0 -63.333 -2.83301 -130.666 -8.5 -201.999l-18 -218.5c-6.33301 -74.333 -12.333 -148.666 -18 -222.999s-8.5 -145.833 -8.5 -214.5c0 -89.333 4 -161.666 12 -216.999s19.667 -98.166 35 -128.499s34 -50.666 56 -60.999s47 -15.5 75 -15.5c42 0 83.333 15.5 124 46.5
s79.334 73 116.001 126s70.5 115 101.5 186s57.833 146.667 80.5 227s40.334 163.333 53.001 249s19 169.5 19 251.5c0 92.667 -5 169.834 -15 231.501s-23.667 111 -41 148s-37.333 63.167 -60 78.5s-47 23 -73 23c-18 0 -35.167 -3.16699 -51.5 -9.5
s-31.5 -14.166 -45.5 -23.499s-26.667 -19.333 -38 -30s-20.666 -20.334 -27.999 -29.001l-41 31c9.33301 12 23.166 26.667 41.499 44s39.666 34 63.999 50s51 29.833 80 41.5s59.167 17.5 90.5 17.5z" />
    <glyph glyph-name="W" unicode="W" horiz-adv-x="1927" 
d="M651 72c24.667 0 49.834 7.15918 75.501 21.4922s50.667 34 75 59s47.5 54.5 69.5 88.5s42.167 70.5 60.5 109.5s34 79.667 47 122s22.833 84.833 29.5 127.5c1.33301 62 4.5 123.5 9.5 184.5s10.5 116.5 16.5 166.5c7.33301 58 15 113.667 23 167l159 43
c-8 -58.667 -15.333 -125 -22 -199c-5.33301 -63.333 -10.166 -138.333 -14.499 -225s-6.5 -182 -6.5 -286c0 -84 5.5 -154.167 16.5 -210.5s26 -101.666 45 -135.999s41 -58.666 66 -72.999s51.5 -21.5 79.5 -21.5c36 0 69.5 11 100.5 33s59 52.667 84 92
s47.167 85.833 66.5 139.5s35.666 112.167 48.999 175.5s23.333 130 30 200s10 140.667 10 212c0 93.333 -3.83301 175.833 -11.5 247.5s-18 133.834 -31 186.501s-28.167 96.667 -45.5 132s-35.5 63.833 -54.5 85.5s-38.5 37 -58.5 46s-39 13.5 -57 13.5
c-19.333 0 -37 -3.5 -53 -10.5s-30.5 -15.833 -43.5 -26.5s-24.667 -21.834 -35 -33.501s-18.833 -22.5 -25.5 -32.5l-46 27c8 12.667 20.167 28.834 36.5 48.501s36 38.667 59 57s49 34 78 47s60.167 19.5 93.5 19.5c48.667 0 91.834 -16.333 129.501 -49
s69.334 -79 95.001 -139s45.167 -132 58.5 -216s20 -177.333 20 -280c0 -85.333 -4.16699 -170.166 -12.5 -254.499s-20.833 -164.833 -37.5 -241.5s-37.667 -148 -63 -214s-55 -123.167 -89 -171.5s-72.333 -86.166 -115 -113.499s-90 -41 -142 -41
c-46 0 -88.5 9.33301 -127.5 28s-73.5 46.5 -103.5 83.5s-55.333 83 -76 138s-35.667 118.5 -45 190.5c-19.333 -50.667 -43 -99.5 -71 -146.5s-59.333 -88.5 -94 -124.5s-72 -64.667 -112 -86s-81.667 -32 -125 -32c-40 0 -78.667 6.5 -116 19.5s-70.5 35.167 -99.5 66.5
s-52.167 73.166 -69.5 125.499s-26 117.833 -26 196.5c0 60.667 5.66699 122.167 17 184.5s25.666 124.5 42.999 186.5s36 123.333 56 184l56 177c17.333 57.333 31.666 112.333 42.999 165s17 102.334 17 149.001c0 60.667 -12.167 104.834 -36.5 132.501
s-57.5 41.5 -99.5 41.5c-46.667 0 -91.167 -10.5 -133.5 -31.5s-81.666 -49.167 -117.999 -84.5s-69.333 -76.166 -99 -122.499s-54.834 -95.166 -75.501 -146.499s-36.667 -103.333 -48 -156s-17 -103 -17 -151c0 -132.667 39.667 -199 119 -199
c25.333 0 50.666 7.83301 75.999 23.5s49.333 37.5 72 65.5s43.334 61.5 62.001 100.5s34.667 81.833 48 128.5l43 -21c-6.66699 -20.667 -15.167 -43.5 -25.5 -68.5s-22.5 -50.5 -36.5 -76.5s-30 -51.167 -48 -75.5s-38 -46 -60 -65s-46.167 -34.167 -72.5 -45.5
s-54.833 -17 -85.5 -17c-64.667 0 -116.334 21.833 -155.001 65.5s-58 109.167 -58 196.5c0 58 8.83301 116.333 26.5 175s41.834 115 72.501 169s66.667 104.667 108 152s85.666 88.333 132.999 123s96.5 62 147.5 82s101.5 30 151.5 30
c41.333 0 78.666 -5.33301 111.999 -16s61.5 -27.334 84.5 -50.001s40.667 -51.334 53 -86.001s18.5 -76 18.5 -124c0 -47.333 -5.16699 -98.666 -15.5 -153.999s-23.333 -113.166 -39 -173.499s-32.667 -122.333 -51 -186s-35.333 -127.667 -51 -192s-28.667 -128 -39 -191
s-15.5 -123.833 -15.5 -182.5c0 -45.333 3.66699 -84 11 -116s18 -58 32 -78s31.333 -34.667 52 -44s44.334 -14 71.001 -14z" />
    <glyph glyph-name="X" unicode="X" horiz-adv-x="1444" 
d="M236 1667c22 0 42.001 -3.82715 60.001 -11.4941s36 -21.667 54 -42s37.167 -48.333 57.5 -84s44.166 -81.167 71.499 -136.5l95 -200l128 -275l128.5 306c37.667 87.333 75.834 160 114.501 218s80 101.5 124 130.5s96 43.5 156 43.5l78 -4l-19 -142
c-9.33301 1.33301 -19 3 -29 5c-8.66699 1.33301 -18 2.66602 -28 3.99902s-19.667 2 -29 2c-29.333 0 -55.5 -3.5 -78.5 -10.5s-45.167 -19.5 -66.5 -37.5s-42.333 -42.5 -63 -73.5s-43 -70.833 -67 -119.5s-50.333 -107 -79 -175l-99 -240l83.5 -177.5l84.5 -166.5
c28 -52.667 55.5 -101.5 82.5 -146.5s53 -83.833 78 -116.5s48.833 -58.334 71.5 -77.001s43.667 -28 63 -28c22.667 0 44.334 10.5 65.001 31.5s40.167 47.167 58.5 78.5s36 65.666 53 102.999l49.5 104l10 21l41 -31l-10 -21l-77.5 -158
c-23.667 -48.667 -47.834 -90.834 -72.501 -126.501s-51 -63.667 -79 -84s-61 -30.5 -99 -30.5c-45.333 0 -88.333 18.167 -129 54.5s-80.334 84.666 -119.001 144.999s-77.334 129.333 -116.001 207l-121 240.5c-39.333 -83.333 -81 -164.5 -125 -243.5
s-89.833 -149.5 -137.5 -211.5s-96.167 -111.833 -145.5 -149.5s-98.666 -56.5 -147.999 -56.5c-18 0 -34 1.5 -48 4.5s-26 6.16699 -36 9.5c-12 4 -22 8.66699 -30 14l41 158c40 -20.667 77.333 -31 112 -31c30.667 0 60.834 9.16699 90.501 27.5
s58.834 42.833 87.501 73.5s56.334 66.334 83.001 107.001s52.167 83 76.5 127s47.333 88.667 69 134l60.5 129l-141 315.5l-100.5 225.5c-27.667 62 -50.834 112 -69.501 150s-34.834 67.667 -48.501 89s-25.834 35.666 -36.501 42.999s-22 11 -34 11
c-16 0 -31.167 -6.5 -45.5 -19.5s-27.5 -28.667 -39.5 -47s-22.5 -37.333 -31.5 -57s-15.833 -35.834 -20.5 -48.501l-45 20c9.33301 28 20.833 56.667 34.5 86s30.167 55.833 49.5 79.5s41.5 43 66.5 58s53.5 22.5 85.5 22.5z" />
    <glyph glyph-name="Y" unicode="Y" horiz-adv-x="1479" 
d="M650 0c44.667 0 87.3301 11.1631 127.997 33.4961s79.5 53.5 116.5 93.5s72 87.167 105 141.5s63.833 113.5 92.5 177.5c2.66699 105.333 5.83398 209 9.50098 311s8.5 198.667 14.5 290s14 175.666 24 252.999s23.333 144 40 200s36.834 99.833 60.501 131.5
s52.167 47.5 85.5 47.5c20 0 38.5 -10.667 55.5 -32s25.5 -55 25.5 -101c0 -42.667 -3.16699 -95.334 -9.5 -158.001s-16 -132 -29 -208s-29.333 -156.333 -49 -241s-42.834 -170.334 -69.501 -257.001v-55c0 -90.667 -0.833008 -183.167 -2.5 -277.5
s-5 -188.666 -10 -282.999s-11.833 -187.5 -20.5 -279.5s-20.334 -181.333 -35.001 -268l-153 -21c19.333 122 33 254.167 41 396.5s14.667 290.166 20 443.499c-29.333 -58 -60.666 -110.833 -93.999 -158.5s-68.666 -88.667 -105.999 -123s-77 -60.833 -119 -79.5
s-86 -28 -132 -28c-43.333 0 -85.333 7 -126 21s-76.667 36.333 -108 67s-56.333 69.834 -75 117.501s-28 105.5 -28 173.5c0 73.333 7.5 146 22.5 218s34 142.5 57 211.5s47.667 136.167 74 201.5l74 189c23 60.667 42 118.334 57 173.001s22.5 106 22.5 154
c0 28.667 -3 52.834 -9 72.501s-14.5 35.5 -25.5 47.5s-24 20.5 -39 25.5s-31.5 7.5 -49.5 7.5c-49.333 0 -97.5 -11.5 -144.5 -34.5s-91.333 -53.833 -133 -92.5s-80 -83.167 -115 -133.5s-65.167 -102.833 -90.5 -157.5s-45 -109.5 -59 -164.5s-21 -106.5 -21 -154.5
c0 -52 9.66699 -90.667 29 -116s47 -38 83 -38c26 0 52.333 7.83301 79 23.5s52.5 37.5 77.5 65.5s48.667 61.5 71 100.5s42.166 81.833 59.499 128.5l41 -21c-8.66699 -20.667 -19.167 -43.5 -31.5 -68.5s-26.666 -50.5 -42.999 -76.5s-34.5 -51.167 -54.5 -75.5
s-41.833 -46 -65.5 -65s-49.167 -34.167 -76.5 -45.5s-56.333 -17 -87 -17c-28 0 -54 4.5 -78 13.5s-44.667 22.5 -62 40.5s-30.833 40.333 -40.5 67s-14.5 58 -14.5 94c0 60 10.167 121 30.5 183s47.833 121.833 82.5 179.5s75.334 111.667 122.001 162
s96.167 94.333 148.5 132s106.166 67.334 161.499 89.001s109.333 32.5 162 32.5c32 0 61.167 -5.16699 87.5 -15.5s49 -25.666 68 -45.999s33.667 -45.833 44 -76.5s15.5 -66.334 15.5 -107.001c0 -49.333 -7.16699 -105.166 -21.5 -167.499s-32 -128.166 -53 -197.499
s-44 -140.666 -69 -213.999s-48 -145.666 -69 -216.999s-38.667 -140.5 -53 -207.5s-21.5 -128.5 -21.5 -184.5c0 -54.667 7.16699 -98.334 21.5 -131.001s31.833 -57.5 52.5 -74.5s42.834 -28 66.501 -33s45.167 -7.5 64.5 -7.5zM1315 1587
c-14.667 0 -26.5 -12.168 -35.5 -36.501s-15.833 -58.666 -20.5 -102.999s-7.66699 -97.5 -9 -159.5s-2 -130.333 -2 -205v-221c15.333 62.667 29 124.5 41 185.5s22 118.5 30 172.5s14.167 103.5 18.5 148.5s6.5 83.167 6.5 114.5c0 32.667 -2.5 58.167 -7.5 76.5
s-12.167 27.5 -21.5 27.5z" />
    <glyph glyph-name="Z" unicode="Z" horiz-adv-x="1332" 
d="M486 819l177.999 -0.00195312c18 38 37 80.5 57 127.5l64 145c22.667 49.667 46.667 99.5 72 149.5s52.333 97 81 141c-48 12.667 -97.167 27.167 -147.5 43.5s-101.5 32 -153.5 47s-104.333 27.667 -157 38s-105.334 15.5 -158.001 15.5
c-39.333 0 -71.333 -4.16699 -96 -12.5s-44.334 -19.166 -59.001 -32.499s-24.667 -28.666 -30 -45.999s-8 -35 -8 -53c0 -18.667 3.5 -36.167 10.5 -52.5s17.667 -30.5 32 -42.5s32.5 -21.333 54.5 -28s48 -10 78 -10s56.5 3.83301 79.5 11.5s42.833 16.167 59.5 25.5
c19.333 10.667 36.333 23 51 37l18 -43c-18 -15.333 -38 -29 -60 -41c-18.667 -10.667 -40.5 -20.167 -65.5 -28.5s-52.5 -12.5 -82.5 -12.5c-38.667 0 -72.834 5.5 -102.501 16.5s-54.5 26 -74.5 45s-35.167 40.833 -45.5 65.5s-15.5 50.667 -15.5 78
c0 36 6.33301 70.5 19 103.5s32.334 62.333 59.001 88s60.334 46.167 101.001 61.5s89 23 145 23c61.333 0 120.833 -6.5 178.5 -19.5s113.5 -28.667 167.5 -47s105.667 -37.5 155 -57.5s96 -37.333 140 -52c30.667 32 62.5 57.5 95.5 76.5s68.5 28.5 106.5 28.5
c36 0 63.167 -8.16699 81.5 -24.5s27.5 -38.833 27.5 -67.5c0 -19.333 -3.16699 -38.666 -9.5 -57.999s-17.166 -36.833 -32.499 -52.5s-36 -28.5 -62 -38.5s-58.333 -15 -97 -15c-23.333 0 -47 1.33301 -71 4s-48.667 6.66699 -74 12
c-27.333 -41.333 -53.333 -86.166 -78 -134.499s-48 -97 -70 -146l-62 -143.5l-54 -125h182l-19 -61h-192l-135.5 -272c-45 -87.333 -93.5 -166 -145.5 -236c46.667 -13.333 91.834 -28.5 135.501 -45.5l130 -48.5c43 -15.333 86.167 -28.166 129.5 -38.499
s88 -15.5 134 -15.5c43.333 0 81.5 6.16699 114.5 18.5s63.5 31.666 91.5 57.999s55 60.333 81 102s53.667 91.5 83 149.5l11 21l41 -31l-11 -21l-92 -175c-30 -54.667 -63 -102.334 -99 -143.001s-76.833 -72.834 -122.5 -96.501s-99.5 -35.5 -161.5 -35.5
c-50 0 -99.833 6 -149.5 18s-98.667 27 -147 45s-95.833 37 -142.5 57s-92 38 -136 54c-39.333 -39.333 -80.833 -69.666 -124.5 -90.999s-89.5 -32 -137.5 -32c-33.333 0 -60.166 8.83301 -80.499 26.5s-30.5 42.834 -30.5 75.501c0 20.667 5.5 42 16.5 64s27.333 42 49 60
s48.5 32.667 80.5 44s68.667 17 110 17c26.667 0 54 -1.83301 82 -5.5s55.333 -8.83398 82 -15.501c48 66 94.667 141.167 140 225.5s90.666 173.166 135.999 266.499h-168zM57.999 50.998c34 0 66.832 7.83203 98.499 23.499s62.834 37.834 93.501 66.501
c-48 15.333 -97 23 -147 23c-22.667 0 -41.5 -1.83301 -56.5 -5.5s-27.167 -8.5 -36.5 -14.5s-16 -13 -20 -21s-6 -16.333 -6 -25c0 -13.333 6.5 -24.5 19.5 -33.5s31.167 -13.5 54.5 -13.5zM1233 1556c-24.667 0 -49 -6.16797 -73 -18.501s-47.333 -29.166 -70 -50.499
c34.667 -8 66.667 -12 96 -12c37.333 0 63.833 5.33301 79.5 16s23.5 21.667 23.5 33c0 9.33301 -5 17 -15 23s-23.667 9 -41 9z" />
    <glyph glyph-name="bracketleft" unicode="[" horiz-adv-x="512" 
d="M287 0h82v-51h-226v1792h226v-51h-82v-1690z" />
    <glyph glyph-name="backslash" unicode="\" horiz-adv-x="737" 
d="M96 1569l72 18l463 -1722l-72 -19z" />
    <glyph glyph-name="bracketright" unicode="]" horiz-adv-x="512" 
d="M225 1690h-82v51h226v-1792h-226v51h82v1690z" />
    <glyph glyph-name="asciicircum" unicode="^" horiz-adv-x="901" 
d="M451 1055l-287 -410l-41 31l328 543l327 -543l-41 -31z" />
    <glyph glyph-name="underscore" unicode="_" horiz-adv-x="850" 
d="M123 82h604v-82h-604v82z" />
    <glyph glyph-name="grave" unicode="`" horiz-adv-x="246" 
d="M205 891l-205 225l133 62l113 -256z" />
    <glyph glyph-name="a" unicode="a" horiz-adv-x="874" 
d="M606 248c0 -38 3.33008 -70.002 9.99707 -96.002s18.334 -39 35.001 -39c10 0 20.833 4.83301 32.5 14.5s25.167 25.5 40.5 47.5s32.833 50.5 52.5 85.5s42.167 77.833 67.5 128.5l30 62l41 -31l-30 -62l-78.5 -150.5c-24.333 -44.333 -47.5 -81.833 -69.5 -112.5
s-43.5 -54.167 -64.5 -70.5s-41.833 -24.5 -62.5 -24.5c-22 0 -40.5 6 -55.5 18s-27.5 28.5 -37.5 49.5s-17.667 45.333 -23 73s-9 57.167 -11 88.5c-16 -32 -33.667 -61.833 -53 -89.5s-39.5 -51.834 -60.5 -72.501s-42.833 -37 -65.5 -49s-45.334 -18 -68.001 -18
c-33.333 0 -65.666 7 -96.999 21s-59.166 35.333 -83.499 64s-43.833 64.834 -58.5 108.501s-22 95.167 -22 154.5c0 69.333 9 132.833 27 190.5s42.333 107.334 73 149.001s66 74 106 97s82 34.5 126 34.5c26.667 0 51.334 -6 74.001 -18s42.5 -26.5 59.5 -43.5
s31.167 -35 42.5 -54s19 -35.167 23 -48.5l12 97c1.33301 12.667 7.5 23.334 18.5 32.001s23.167 15.5 36.5 20.5s26.333 8.66699 39 11s21.667 3.5 27 3.5c8 0 13.333 -1.33301 16 -4s4 -8 4 -16c0 -10 -2.83301 -30.167 -8.5 -60.5s-11.667 -69 -18 -116
s-12.333 -102.167 -18 -165.5s-8.5 -133 -8.5 -209zM495.997 511.998c0 30.667 -4.66602 60.8359 -13.999 90.5029s-22 56 -38 79s-34.5 41.5 -55.5 55.5s-43.167 21 -66.5 21c-28.667 0 -55.5 -8.16699 -80.5 -24.5s-46.667 -39.333 -65 -69
s-32.833 -65.334 -43.5 -107.001s-16 -87.5 -16 -137.5c0 -100 15.667 -176.167 47 -228.5s73 -78.5 125 -78.5c22.667 0 46.167 9.16699 70.5 27.5s46.666 44.666 66.999 78.999s37 76.166 50 125.499s19.5 105 19.5 167z" />
    <glyph glyph-name="b" unicode="b" horiz-adv-x="797" 
d="M131 532c0.666992 -76.667 5.66797 -144.833 15.001 -204.5s22.333 -110 39 -151s37 -72.167 61 -93.5s51.333 -32 82 -32c42 0 76.833 16.833 104.5 50.5s48.167 79.834 61.5 138.501c-34.667 7.33301 -67.667 21 -99 41s-59 44.833 -83 74.5
s-43.167 63.834 -57.5 102.501s-21.5 80.667 -21.5 126c0 37.333 4.83301 70.166 14.5 98.499s22.5 52 38.5 71s34.5 33.333 55.5 43s43.167 14.5 66.5 14.5c27.333 0 55.333 -7.83301 84 -23.5s54.667 -39 78 -70s42.333 -69.833 57 -116.5s22 -101 22 -163
c0 -23.333 -1.33301 -46.333 -4 -69s-6.66699 -44.667 -12 -66c32 9.33301 61.167 24.333 87.5 45s48.166 48 65.499 82l11 21l41 -31l-11 -21c-22.667 -45.333 -52.834 -81.5 -90.501 -108.5s-78.5 -44.5 -122.5 -52.5c-12 -34 -27.5 -65.5 -46.5 -94.5
s-40.667 -54.167 -65 -75.5s-51.666 -38 -81.999 -50s-63.166 -18 -98.499 -18c-50 0 -95.833 10.667 -137.5 32s-77.667 56 -108 104s-54 111.167 -71 189.5s-25.5 174.5 -25.5 288.5c0 158.667 7.33301 293.834 22 405.501s34 202.667 58 273s51.667 121.666 83 153.999
s63.666 48.5 96.999 48.5c20.667 0 37.667 -8.16699 51 -24.5s20 -45.833 20 -88.5c0 -33.333 -2.66699 -71.333 -8 -114s-12.333 -88.334 -21 -137.001s-19 -99.167 -31 -151.5s-24.667 -104.333 -38 -156l-41 -152zM299.001 592.001
c0 -39.333 5.49902 -75.4971 16.499 -108.497s25.833 -62 44.5 -87s40.334 -45.833 65.001 -62.5s51 -28.334 79 -35.001c3.33301 18.667 5.5 38.167 6.5 58.5s1.5 41.166 1.5 62.499c0 47.333 -3.66699 90.166 -11 128.499s-17 71 -29 98s-26 47.833 -42 62.5
s-32.333 22 -49 22c-22.667 0 -42 -12.167 -58 -36.5s-24 -58.5 -24 -102.5zM246 1358c0 14 -1.66602 24.999 -4.99902 32.999s-8.66602 12 -15.999 12s-14.666 -10.333 -21.999 -31s-14.5 -48.667 -21.5 -84s-13.333 -76.333 -19 -123s-10.834 -96.167 -15.501 -148.5
s-8.33398 -105.833 -11.001 -160.5s-4.33398 -107.334 -5.00098 -158.001c16 58.667 31 118.834 45 180.501s26.167 121.5 36.5 179.5s18.5 112.833 24.5 164.5s9 96.834 9 135.501z" />
    <glyph glyph-name="c" unicode="c" horiz-adv-x="639" 
d="M338 571c8 12.667 14.832 28.3301 20.499 46.9971s8.5 37.334 8.5 56.001c0 22.667 -5.66699 42.334 -17 59.001s-31.666 25 -60.999 25c-19.333 0 -39 -7 -59 -21s-38.5 -35 -55.5 -63s-30.833 -63.333 -41.5 -106s-16 -92.667 -16 -150
c0 -45.333 4.66699 -86.666 14 -123.999s23 -69.333 41 -96s39.833 -47.5 65.5 -62.5s54.5 -22.5 86.5 -22.5c23.333 0 47.166 6 71.499 18s49 30.667 74 56s50.833 58.166 77.5 98.499s54 88.5 82 144.5l10 21l41 -31l-10 -21c-36 -71.333 -71.833 -132.333 -107.5 -183
s-70.834 -92 -105.501 -124s-68.5 -55.333 -101.5 -70s-64.833 -22 -95.5 -22c-43.333 0 -82 9 -116 27s-62.667 42.5 -86 73.5s-41.166 67 -53.499 108s-18.5 84.167 -18.5 129.5c0 72 9.83301 137.5 29.5 196.5s45.167 109.5 76.5 151.5s66.666 74.667 105.999 98
s79 35 119 35c30.667 0 56.334 -4.33301 77.001 -13s37.334 -19.667 50.001 -33s21.667 -27.666 27 -42.999s8 -30 8 -44s-3 -28.5 -9 -43.5s-14.833 -29 -26.5 -42s-25.5 -24.667 -41.5 -35s-34 -17.833 -54 -22.5z" />
    <glyph glyph-name="d" unicode="d" horiz-adv-x="963" 
d="M203 0c-40.667 0 -75.835 8.66504 -105.502 25.998s-54.167 40.833 -73.5 70.5s-33.666 63.834 -42.999 102.501s-14 79.667 -14 123c0 38 3.66699 76.667 11 116s17.833 77.5 31.5 114.5s30.834 71.667 51.501 104s44.334 60.5 71.001 84.5s56.5 43 89.5 57
s68.5 21 106.5 21c43.333 0 80.166 -9.66699 110.499 -29s54.833 -43 73.5 -71c0.666992 126 7 237.333 19 334s28.833 177.667 50.5 243s47.5 114.833 77.5 148.5s63 50.5 99 50.5c12.667 0 24.167 -1.5 34.5 -4.5s19 -8.5 26 -16.5s12.333 -18.833 16 -32.5
s5.5 -31.167 5.5 -52.5c0 -44 -4.33301 -94.5 -13 -151.5s-21 -119 -37 -186s-35.5 -138.333 -58.5 -214s-48.5 -154.167 -76.5 -235.5c0.666992 -71.333 1.66699 -133 3 -185s3.16602 -96 5.49902 -132s5.33301 -65.333 9 -88s8 -40.167 13 -52.5s11 -20.666 18 -24.999
s14.833 -6.5 23.5 -6.5c15.333 0 30.833 6.83301 46.5 20.5s32.5 34 50.5 61s37.5 60.167 58.5 99.5l69.5 136l11 21l41 -31l-11 -21c-38.667 -78 -72.667 -142.5 -102 -193.5s-56.166 -91.833 -80.499 -122.5s-47.5 -52.167 -69.5 -64.5s-45 -18.5 -69 -18.5
c-23.333 -0 -43.5 5.83301 -60.5 17.5s-31.5 30 -43.5 55s-21.667 57 -29 96s-13 85.833 -17 140.5c-23.333 -46.667 -47.333 -89 -72 -127s-50.167 -70.5 -76.5 -97.5s-53.833 -47.833 -82.5 -62.5s-58 -22 -88 -22zM347.999 767.998
c-36.667 0 -68.667 -11.165 -96 -33.498s-50 -51.333 -68 -87s-31.333 -75.834 -40 -120.501s-13 -89.334 -13 -134.001c0 -36.667 2.83301 -71.834 8.5 -105.501s14.334 -63.5 26.001 -89.5s25.834 -46.667 42.501 -62s36 -23 58 -23c21.333 0 42.166 5.33301 62.499 16
s40.5 27.834 60.5 51.501s40.333 54.334 61 92.001s42.667 83.5 66 137.5c-1.33301 32 -2.33301 66.167 -3 102.5s-1 75.166 -1 116.499c-14.667 43.333 -36.834 77.333 -66.501 102s-62.167 37 -97.5 37zM767.999 1352c0 30.667 -3.50195 52 -10.502 64
s-15.167 18 -24.5 18c-16 0 -29 -15.5 -39 -46.5s-17.833 -72.833 -23.5 -125.5s-9.66699 -113.667 -12 -183s-3.5 -142.333 -3.5 -219v-110c20.667 67.333 38.334 128 53.001 182s26.334 104.333 35.001 151s15 91.667 19 135s6 88 6 134z" />
    <glyph glyph-name="e" unicode="e" horiz-adv-x="610" 
d="M295 113c23.333 0 47.166 5.99902 71.499 17.999s49 30.667 74 56s50.833 58.166 77.5 98.499s54 88.5 82 144.5l10 21l41 -31l-10 -21c-36 -71.333 -71.833 -132.333 -107.5 -183s-70.667 -92 -105 -124s-68.166 -55.333 -101.499 -70s-65.333 -22 -96 -22
c-43.333 0 -82 9 -116 27s-62.667 42.5 -86 73.5s-41.166 67 -53.499 108s-18.5 84.167 -18.5 129.5c0 72 9.83301 137.5 29.5 196.5s46 109.5 79 151.5s70.5 74.667 112.5 98s85.667 35 131 35c46 0 81.167 -11.667 105.5 -35s36.5 -52.666 36.5 -87.999
c0 -34 -9.66699 -65.833 -29 -95.5s-45.5 -58.667 -78.5 -87s-71.167 -56.333 -114.5 -84l-137 -85.5c4.66699 -34.667 12.667 -66.167 24 -94.5s25.666 -52.666 42.999 -72.999s37.333 -36 60 -47s48 -16.5 76 -16.5zM326 665.999c0 26.667 -7.16895 47.667 -21.502 63
s-31.833 23 -52.5 23c-17.333 0 -35.666 -6.16699 -54.999 -18.5s-37 -32 -53 -59s-29.333 -61.5 -40 -103.5s-16 -93 -16 -153v-23c22.667 12 47.834 27.833 75.501 47.5s53.5 41.5 77.5 65.5s44.167 49.5 60.5 76.5s24.5 54.167 24.5 81.5z" />
    <glyph glyph-name="f" unicode="f" horiz-adv-x="428" 
d="M428 451l41 -30.9971l-10 -21c-24.667 -49.333 -57.167 -88.5 -97.5 -117.5s-84.5 -43.5 -132.5 -43.5c-14 0 -28.5 1.5 -43.5 4.5s-29.833 7.5 -44.5 13.5v-758l-102 -10c-8 112.667 -15 234.334 -21 365.001c-2.66699 56 -5.16699 116.667 -7.5 182
s-4.5 134.166 -6.5 206.499s-3.5 147.666 -4.5 225.999s-1.5 158.166 -1.5 239.499c0 128 7 241 21 339s32.833 180.333 56.5 247s50.834 117 81.501 151s63 51 97 51c12.667 0 24.667 -2.16699 36 -6.5s21.166 -11.166 29.499 -20.499s14.833 -22 19.5 -38s7 -35.333 7 -58
c0 -57.333 -6.66699 -120.5 -20 -189.5s-30.166 -138.833 -50.499 -209.5s-42.5 -139.834 -66.5 -207.501s-46.667 -128.834 -68 -183.501v-224c6 -8 13.167 -15 21.5 -21s17.333 -10.833 27 -14.5s19.5 -6.5 29.5 -8.5s19 -3 27 -3c34.667 0 66.667 9 96 27
s54.666 48.667 75.999 92zM141 711.003c16.667 47.333 32.332 96.667 46.999 148s27.667 103.166 39 155.499s20.333 104.5 27 156.5s10 102 10 150c0 30.667 -3 55.334 -9 74.001s-17.333 28 -34 28c-14.667 0 -27.167 -15 -37.5 -45s-18.666 -70.5 -24.999 -121.5
s-10.833 -110.667 -13.5 -179s-4 -140.833 -4 -217.5v-149z" />
    <glyph glyph-name="g" unicode="g" horiz-adv-x="850" 
d="M279 -379c0 29.333 5.50195 58.999 16.502 88.999s26.167 60.667 45.5 92s41.833 63.833 67.5 97.5l83.5 104.5v189c-16 -31.333 -34 -59 -54 -83s-41.167 -44.167 -63.5 -60.5s-45.333 -28.666 -69 -36.999s-46.834 -12.5 -69.501 -12.5
c-31.333 0 -61.5 7.66699 -90.5 23s-54.833 38.5 -77.5 69.5s-40.667 70.167 -54 117.5s-20 103 -20 167c0 54 6.33301 107.333 19 160s31.667 99.834 57 141.501s56.666 75.5 93.999 101.5s81 39 131 39c39.333 0 76.166 -8 110.499 -24s63.166 -39.333 86.499 -70v12
c0 12.667 3.83301 24.167 11.5 34.5s17.334 19 29.001 26s24 12.333 37 16s24.5 5.5 34.5 5.5c11.333 0 19.333 -1.5 24 -4.5s7 -8.16699 7 -15.5c0 -10.667 -1.33301 -34.667 -4 -72s-4 -92 -4 -164v-434l53 69l56 79.5c18.667 27.667 36.834 56.167 54.501 85.5
s34.167 58.666 49.5 87.999l10 20l41 -31l-10 -20c-16 -32 -34.5 -65.167 -55.5 -99.5s-43 -68 -66 -101l-69 -95l-63.5 -81.5v-217c0 -61.333 -5.5 -113.5 -16.5 -156.5s-26 -78 -45 -105s-41.667 -46.5 -68 -58.5s-54.833 -18 -85.5 -18c-38 0 -69.667 11.833 -95 35.5
s-38 56.167 -38 97.5zM297.002 101.999c20.667 0 41.168 6 61.501 18s39.166 27.333 56.499 46s32.833 39.167 46.5 61.5s23.834 44.166 30.501 65.499v282c0 30 -4.66699 57.167 -14 81.5s-21.666 45 -36.999 62s-32.833 30.167 -52.5 39.5s-39.834 14 -60.501 14
c-32 0 -60 -9.5 -84 -28.5s-44 -44 -60 -75s-27.833 -66.5 -35.5 -106.5s-11.5 -80.667 -11.5 -122c0 -51.333 3.16699 -97.666 9.5 -138.999s16.166 -76.833 29.499 -106.5s30 -52.5 50 -68.5s43.667 -24 71 -24zM401.003 -451.001c10.667 0 21.5 2.16895 32.5 6.50195
s20.833 14.166 29.5 29.499s15.667 38 21 68s8 70.667 8 122v149c-46 -55.333 -83.5 -107.833 -112.5 -157.5s-43.5 -96.167 -43.5 -139.5c0 -20.667 5.66699 -38.834 17 -54.501s27.333 -23.5 48 -23.5z" />
    <glyph glyph-name="h" unicode="h" horiz-adv-x="786" 
d="M133 348c0 -32.667 -0.99707 -67.1699 -2.99707 -103.503s-6.16699 -72.666 -12.5 -108.999s-15.5 -71.666 -27.5 -105.999s-28.333 -66.166 -49 -95.499l-76 23c16.667 56 26.667 114.667 30 176s5 122.666 5 183.999c0 66.667 -2.16699 133.334 -6.5 200.001
s-9.33301 133.5 -15 200.5s-10.667 134.5 -15 202.5s-6.5 136.667 -6.5 206c0 42 4.5 78.667 13.5 110s20.833 57.333 35.5 78s31 36.167 49 46.5s36 15.5 54 15.5c25.333 0 45.5 -9 60.5 -27s26.167 -42.333 33.5 -73s11.166 -66.334 11.499 -107.001
s-1.5 -83.667 -5.5 -129s-9.66699 -91.666 -17 -138.999s-15.333 -93.333 -24 -138s-17.167 -86.334 -25.5 -125.001l-21.5 -99c0 -5.33301 0.333008 -10.833 1 -16.5s1 -11.167 1 -16.5c14 31.333 31.167 65.166 51.5 101.499s43.333 70.166 69 101.499
s53.667 57.5 84 78.5s62.5 31.5 96.5 31.5c50 0 87.667 -16.667 113 -50s38 -81.333 38 -144c0 -43.333 -2.33301 -85 -7 -125s-9.83398 -78.5 -15.501 -115.5s-10.834 -72.833 -15.501 -107.5s-7 -69 -7 -103c0 -40.667 10.333 -61 31 -61c10 0 22.833 8.83301 38.5 26.5
s33.167 41.167 52.5 70.5s39.666 63 60.999 101s42.333 77.667 63 119l10 21l41 -31l-10 -21l-73 -140c-25.333 -47.333 -51.333 -90.166 -78 -128.499s-53.834 -69.666 -81.501 -93.999s-55.167 -36.5 -82.5 -36.5c-12 0 -24.167 2 -36.5 6s-23.5 11 -33.5 21
s-18.333 23.5 -25 40.5s-10 38.833 -10 65.5s1.33301 55.667 4 87s5.83398 63.5 9.50098 96.5s7.83398 65.833 12.501 98.5s8.83398 63.334 12.501 92.001s6.83398 54.5 9.50098 77.5s4 41.833 4 56.5c0 38 -5.33301 65.667 -16 83s-26.667 26 -48 26
c-26.667 0 -52.334 -11.667 -77.001 -35s-47.834 -52.5 -69.501 -87.5s-41.5 -72.667 -59.5 -113l-48 -111.5c0 -10 0.333008 -19.833 1 -29.5s1 -18.167 1 -25.5zM68.0029 1204c0 -27.333 1.16797 -60.499 3.50098 -99.499s5.33301 -81.167 9 -126.5l12 -142
c4.33301 -49.333 8.83301 -98 13.5 -146c7.33301 37.333 14.666 78.5 21.999 123.5s13.833 90.333 19.5 136s10 90.167 13 133.5s3.66699 81.666 2 114.999s-6.16699 60.166 -13.5 80.499s-18 30.5 -32 30.5c-12.667 0 -24 -7.66699 -34 -23s-15 -42.666 -15 -81.999z" />
    <glyph glyph-name="i" unicode="i" horiz-adv-x="494" 
d="M51 440l-10 -19.999l-10 -21l-41 31l10 21c16.667 34 30.5 68.167 41.5 102.5s20 66.5 27 96.5s12.833 56.333 17.5 79s9.33398 39 14.001 49c4 8 9.83301 14.5 17.5 19.5s15.667 9.16699 24 12.5s16.333 5.66602 24 6.99902s13.167 2 16.5 2c14.667 0 24.5 -3 29.5 -9
s7.5 -16.667 7.5 -32c0 -7.33301 -1.5 -25.5 -4.5 -54.5s-6.33301 -65.333 -10 -109s-7 -92.667 -10 -147s-4.5 -110.5 -4.5 -168.5c0 -42 2 -75.167 6 -99.5s9.16699 -42.5 15.5 -54.5s13.333 -19.667 21 -23s15.5 -5 23.5 -5c10.667 0 22.667 4.66699 36 14
s29 25.833 47 49.5s38.667 55.667 62 96s50.666 91.5 81.999 153.5l11 21l41 -31l-11 -21l-75.5 -146c-25 -48 -50.333 -90.667 -76 -128s-51.5 -67.5 -77.5 -90.5s-52 -34.5 -78 -34.5c-27.333 0 -50.833 5.5 -70.5 16.5s-36 29.167 -49 54.5s-22.667 58.833 -29 100.5
s-9.5 93.167 -9.5 154.5v54.5c0 19 0.666992 38.833 2 59.5h-10zM256 1024c0 -23.333 -7.83301 -42.833 -23.5 -58.5s-35.167 -23.5 -58.5 -23.5c-22.667 0 -42 7.83301 -58 23.5s-24 35.167 -24 58.5c0 22.667 8 42 24 58s35.333 24 58 24c23.333 0 42.833 -8 58.5 -24
s23.5 -35.333 23.5 -58z" />
    <glyph glyph-name="j" unicode="j" horiz-adv-x="399" 
d="M61 778c4 8 10.832 14.501 20.499 19.501s20 9.16699 31 12.5s21.5 5.66602 31.5 6.99902s16.667 2 20 2c14.667 0 23.5 -3 26.5 -9s4.5 -16.667 4.5 -32v-647c34 44 68.167 91.5 102.5 142.5s64.833 103.167 91.5 156.5l10 21l41 -31l-10 -21
c-13.333 -26.667 -29.166 -54.667 -47.499 -84l-58.5 -89.5l-64.5 -90.5l-64.5 -86v-223c0 -61.333 -5.5 -113.5 -16.5 -156.5s-26.167 -78 -45.5 -105s-42 -46.5 -68 -58.5s-54.333 -18 -85 -18c-19.333 0 -37.166 3 -53.499 9s-30.5 14.833 -42.5 26.5
s-21.333 25.667 -28 42s-10 34.833 -10 55.5c0 30 5.5 60 16.5 90s26.333 61 46 93s42.5 64.833 68.5 98.5l84 105.5v432h-10l-20 -41l-41 31l10 21c16.667 34 28.5 68.167 35.5 102.5s11.667 66.5 14 96.5s3.66602 56.333 3.99902 79s2.83301 39 7.5 49zM-31.001 -450.999
c10.667 0 21.499 2.16895 32.499 6.50195s20.833 14.166 29.5 29.499s15.834 38 21.501 68s8.5 70.667 8.5 122v151c-22.667 -28 -43.5 -55.167 -62.5 -81.5s-35.5 -52 -49.5 -77s-25 -49.167 -33 -72.5s-12 -46 -12 -68c0 -20.667 5.66699 -38.834 17 -54.501
s27.333 -23.5 48 -23.5zM214.998 1024c0 -23.333 -7.83301 -42.833 -23.5 -58.5s-35.167 -23.5 -58.5 -23.5c-22.667 0 -42 7.83301 -58 23.5s-24 35.167 -24 58.5c0 22.667 8 42 24 58s35.333 24 58 24c23.333 0 42.833 -8 58.5 -24s23.5 -35.333 23.5 -58z" />
    <glyph glyph-name="k" unicode="k" horiz-adv-x="805" 
d="M846 420l-10.0049 -21.002l-80 -157c-25.333 -48.667 -50.666 -91 -75.999 -127s-51.166 -64.167 -77.499 -84.5s-54.5 -30.5 -84.5 -30.5s-59.333 8 -88 24s-57.167 38.333 -85.5 67s-56.666 62.167 -84.999 100.5s-57.5 80.166 -87.5 125.499l-35 -6
c-1.33301 -58.667 -3.33301 -111.5 -6 -158.5s-6 -85.5 -10 -115.5c-2 -13.333 -7.5 -22.833 -16.5 -28.5s-21.167 -8.5 -36.5 -8.5c-18 0 -33 2.33301 -45 7s-21.5 10.5 -28.5 17.5s-12 14.667 -15 23s-4.5 16.5 -4.5 24.5c0 42.667 7 95.667 21 159v517
c0 128 6.66699 238.833 20 332.5s31.333 171.334 54 233.001s49.167 107.334 79.5 137.001s62.5 44.5 96.5 44.5c36.667 0 62.834 -11.833 78.501 -35.5s23.5 -56.167 23.5 -97.5c0 -36 -5.33301 -82.167 -16 -138.5s-25.5 -118.166 -44.5 -185.499
s-41.167 -137.5 -66.5 -210.5s-52.666 -144.167 -81.999 -213.5v-22c18.667 30 40.5 58.667 65.5 86s51.833 51.5 80.5 72.5s58.167 37.667 88.5 50s60.166 18.5 89.499 18.5c26 0 49.833 -3.66699 71.5 -11s40.5 -18 56.5 -32s28.333 -31.5 37 -52.5s13 -45.167 13 -72.5
c0 -28 -6.16699 -56 -18.5 -84s-31.666 -55 -57.999 -81s-60.166 -50.5 -101.499 -73.5s-91.333 -43.167 -150 -60.5l20 -30c9.33301 -14 20.5 -29.833 33.5 -47.5s27.167 -36 42.5 -55s31.166 -36.333 47.499 -52s32.5 -28.667 48.5 -39s30.667 -15.5 44 -15.5
c18 0 36.333 7.5 55 22.5s38.167 36.333 58.5 64s41.5 61 63.5 100s45 82.5 69 130.5l10 21zM138.995 505.998c0 -15.333 -0.165039 -28.8301 -0.498047 -40.4971s-0.5 -23 -0.5 -34s-0.166992 -22.167 -0.5 -33.5s-0.5 -24 -0.5 -38c68 10 125.5 23.333 172.5 40
s85.167 36 114.5 58s50.666 46.167 63.999 72.5s20 54.166 20 83.499c0 15.333 -2.5 30.166 -7.5 44.499s-12.167 27 -21.5 38s-20.833 19.833 -34.5 26.5s-28.834 10 -45.501 10c-23.333 0 -46.833 -6.16699 -70.5 -18.5s-47 -28.833 -70 -49.5
s-44.667 -44.834 -65 -72.501s-38.5 -56.5 -54.5 -86.5zM226.997 1444c-14 0 -26.167 -13.667 -36.5 -41s-19.166 -69.833 -26.499 -127.5s-13.333 -131 -18 -220s-8.33398 -195.167 -11.001 -318.5c28 74 50.667 143.5 68 208.5s30.833 123.667 40.5 176
s16.167 98 19.5 137s5 70.167 5 93.5c0 35.333 -3.16699 59.5 -9.5 72.5s-16.833 19.5 -31.5 19.5z" />
    <glyph glyph-name="l" unicode="l" horiz-adv-x="436" 
d="M215 127c12 0 25.835 7.83203 41.502 23.499s32.5 37.167 50.5 64.5s37 59.333 57 96l62 119l10 21l41 -31l-10 -21c-35.333 -70.667 -66.833 -131.167 -94.5 -181.5s-53.5 -91.666 -77.5 -123.999s-46.833 -56 -68.5 -71s-43.834 -22.5 -66.501 -22.5
c-30 -0 -55.833 9.83301 -77.5 29.5s-39.667 52.667 -54 99s-25 107.5 -32 183.5s-10.5 170 -10.5 282c0 158.667 6.66699 294.834 20 408.501s31.5 207 54.5 280s49.667 126.667 80 161s62.166 51.5 95.499 51.5c20 0 36.833 -8.16699 50.5 -24.5s20.5 -45.833 20.5 -88.5
c0 -33.333 -2.66699 -71.333 -8 -114s-12.333 -88.334 -21 -137.001s-19 -99.167 -31 -151.5s-24.667 -104.333 -38 -156l-41 -152l-41 -139.5c4 -82 8.5 -149.167 13.5 -201.5s11 -93.5 18 -123.5s15.167 -50.833 24.5 -62.5s20 -17.5 32 -17.5zM242.002 1358
c0 14 -1.66699 24.999 -5 32.999s-8.66602 12 -15.999 12s-14.666 -10.333 -21.999 -31s-14.5 -48.667 -21.5 -84s-13.333 -76.333 -19 -123s-10.834 -96.167 -15.501 -148.5s-8.33398 -105.833 -11.001 -160.5s-4.33398 -107.334 -5.00098 -158.001
c16 58.667 30.833 118.834 44.5 180.501s25.834 121.5 36.501 179.5s19 112.833 25 164.5s9 96.834 9 135.501z" />
    <glyph glyph-name="m" unicode="m" horiz-adv-x="1167" 
d="M326 748c-19.333 0 -37.8389 -6.82812 -55.5059 -20.4951s-34.5 -32.334 -50.5 -56.001s-31.5 -51.334 -46.5 -83.001s-29.833 -65.5 -44.5 -101.5v-12c-2 -58.667 -3.83301 -121 -5.5 -187s-2.5 -138 -2.5 -216c0 -13.333 -4.5 -24.5 -13.5 -33.5
s-19.5 -16.333 -31.5 -22s-24.333 -9.83398 -37 -12.501s-23 -4 -31 -4c-10 0 -19.333 3 -28 9s-13 19.333 -13 40c0 10 1 22.5 3 37.5s4.5 31.167 7.5 48.5s6.33301 35.166 10 53.499l10.5 51.5c0 56.667 -0.166992 107.667 -0.5 153s-0.5 85.666 -0.5 120.999
s-0.166992 66.333 -0.5 93s-0.5 49.667 -0.5 69c0 32 0.5 55.5 1.5 70.5s2.5 25.5 4.5 31.5c3.33301 9.33301 9.5 16.666 18.5 21.999s18.5 9.5 28.5 12.5s20 4.83301 30 5.5s17.667 1 23 1c12.667 0 21 -3.66699 25 -11s6 -18.666 6 -33.999v-94
c0 -28 -0.666992 -56 -2 -84c12.667 30 27.5 58.5 44.5 85.5s35.833 50.667 56.5 71s42.5 36.5 65.5 48.5s46.833 18 71.5 18c30 0 54.833 -6.16699 74.5 -18.5s35.334 -29.5 47.001 -51.5s20.334 -47.833 26.001 -77.5s9.5 -61.834 11.5 -96.501
c18.667 34 38.834 65.833 60.501 95.5s44.667 55.5 69 77.5s50 39.333 77 52s55.167 19 84.5 19c50.667 0 87.667 -15.833 111 -47.5s35 -74.5 35 -128.5c0 -34 -2.66699 -72 -8 -114l-17 -127.5l-17 -126.5c-5.33301 -41.333 -8 -79 -8 -113c0 -41.333 10.333 -62 31 -62
c10.667 0 22.334 6.5 35.001 19.5s27.167 33 43.5 60s35.333 61.167 57 102.5l75.5 148l10 21l41 -31l-10 -21l-100.5 -195c-27.667 -51.333 -52.5 -92.166 -74.5 -122.499s-42.833 -51.5 -62.5 -63.5s-41.5 -18 -65.5 -18c-14 0 -27.667 2 -41 6s-25 11 -35 21
s-18 23.5 -24 40.5s-9 38.833 -9 65.5c0 40 2.66699 85 8 135s11.333 100 18 150s12.667 97.167 18 141.5s8 80.5 8 108.5c0 24.667 -5.33301 44.5 -16 59.5s-26.667 22.5 -48 22.5s-43.5 -8.33301 -66.5 -25s-45.333 -38.167 -67 -64.5s-42 -55.833 -61 -88.5
s-35.5 -65 -49.5 -97c0 -70 -0.666992 -131.167 -2 -183.5s-3.16602 -96.5 -5.49902 -132.5s-5.5 -64.5 -9.5 -85.5s-8.33301 -35.167 -13 -42.5c-3.33301 -4.66699 -9 -9 -17 -13s-16.833 -7.33301 -26.5 -10s-19 -4.66699 -28 -6s-15.833 -2 -20.5 -2
c-10.667 0 -19.834 3.16699 -27.501 9.5s-11.5 18.833 -11.5 37.5c0 8.66699 0.833008 20.334 2.5 35.001s3.83398 31 6.50098 49l9 58l10 63c0.666992 20 1.33398 42.333 2.00098 67l2 73.5c0.666992 24.333 1.16699 47.666 1.5 69.999s0.5 41.5 0.5 57.5c0 34 -1 65 -3 93
s-5.83301 52 -11.5 72s-13.5 35.5 -23.5 46.5s-23 16.5 -39 16.5z" />
    <glyph glyph-name="n" unicode="n" 
d="M385 750c-18.667 0 -39.5 -8.33008 -62.5 -24.9971s-46.167 -38.167 -69.5 -64.5s-45.833 -55.833 -67.5 -88.5s-40.5 -65 -56.5 -97c-2 -58.667 -3.83301 -122.667 -5.5 -192s-2.5 -143.333 -2.5 -222c0 -10 -4.5 -18.833 -13.5 -26.5s-19.5 -14 -31.5 -19
s-24.333 -8.83301 -37 -11.5s-23 -4 -31 -4c-10 0 -19.333 3 -28 9s-13 19.333 -13 40c0 10 1 22.5 3 37.5s4.5 31.167 7.5 48.5s6.33301 35.166 10 53.499l10.5 51.5v489c0 13.333 0.166992 23.833 0.5 31.5s1.5 13.5 3.5 17.5c4 9.33301 11 16.666 21 21.999
s20.667 9.5 32 12.5s22.333 4.83301 33 5.5s19 1 25 1c11.333 0 19.166 -3 23.499 -9s6.5 -16.667 6.5 -32c0 2 -1.5 -14.333 -4.5 -49s-5.5 -84.334 -7.5 -149.001c20 31.333 41.667 61.333 65 90s47.666 54 72.999 76s51.5 39.667 78.5 53s54.5 20 82.5 20
c50 0 86.667 -15.833 110 -47.5s35 -74.5 35 -128.5c0 -34 -2.16699 -71.833 -6.5 -113.5s-9.33301 -84 -15 -127s-10.667 -85 -15 -126s-6.5 -78.5 -6.5 -112.5c0 -44 13.667 -66 41 -66c8.66699 0 18.834 4.5 30.501 13.5s26.334 25.833 44.001 50.5
s38.834 58.5 63.501 101.5s54 98.5 88 166.5l10 21l41 -31l-10 -21c-40 -80 -75.5 -145.667 -106.5 -197s-59.167 -92 -84.5 -122s-49 -50.833 -71 -62.5s-44 -17.5 -66 -17.5c-14 0 -28 2 -42 6s-26.333 11 -37 21s-19.334 23.5 -26.001 40.5s-10 38.833 -10 65.5
c0 40 2.66699 85 8 135s11.333 100 18 150s12.667 97.167 18 141.5s8 80.5 8 108.5c0 24.667 -5.33301 44.5 -16 59.5s-26.667 22.5 -48 22.5z" />
    <glyph glyph-name="o" unicode="o" horiz-adv-x="797" 
d="M838 420l-11 -21.002c-22.667 -45.333 -52.834 -81.5 -90.501 -108.5s-78.5 -44.5 -122.5 -52.5c-12 -34 -27.5 -65.5 -46.5 -94.5s-40.667 -54.167 -65 -75.5s-51.666 -38 -81.999 -50s-63.166 -18 -98.499 -18c-51.333 0 -97.5 10.833 -138.5 32.5
s-75.833 51 -104.5 88s-50.667 80.333 -66 130s-23 102.834 -23 159.501c0 49.333 5.66699 94.166 17 134.499s25.666 76.333 42.999 108s36.666 59.334 57.999 83.001s42.333 43.167 63 58.5s39.5 26.833 56.5 34.5s29.833 11.5 38.5 11.5l13 -35
c-27.333 -20 -51.666 -48 -72.999 -84c-18.667 -30.667 -35.5 -71.334 -50.5 -122.001s-22.5 -113.667 -22.5 -189c0 -46 4.33301 -90.667 13 -134s21.334 -81.666 38.001 -114.999s37.167 -60 61.5 -80s51.833 -30 82.5 -30c42 0 76.833 16.833 104.5 50.5
s48.167 79.834 61.5 138.501c-34.667 7.33301 -67.667 21 -99 41s-59 44.833 -83 74.5s-43.167 63.834 -57.5 102.501s-21.5 80.667 -21.5 126c0 37.333 4.83301 70.166 14.5 98.499s22.5 52 38.5 71s34.5 33.333 55.5 43s43.167 14.5 66.5 14.5
c27.333 0 55.333 -7.83301 84 -23.5s54.667 -39 78 -70s42.333 -69.833 57 -116.5s22 -101 22 -163c0 -23.333 -1.33301 -46.333 -4 -69s-6.66699 -44.667 -12 -66c32 9.33301 61.167 24.333 87.5 45s48.166 48 65.499 82l11 21zM299 591.998
c0 -39.333 5.49902 -75.4971 16.499 -108.497s25.833 -62 44.5 -87s40.334 -45.833 65.001 -62.5s51 -28.334 79 -35.001c3.33301 18.667 5.5 38.167 6.5 58.5s1.5 41.166 1.5 62.499c0 47.333 -3.66699 90.166 -11 128.499s-17 71 -29 98s-26 47.833 -42 62.5
s-32.333 22 -49 22c-22.667 0 -42 -12.167 -58 -36.5s-24 -58.5 -24 -102.5z" />
    <glyph glyph-name="p" unicode="p" horiz-adv-x="778" 
d="M131 631c11.333 24.667 25.0039 48.333 41.0039 71s34.333 42.667 55 60s43.667 31.166 69 41.499s53 15.5 83 15.5c40 0 75.333 -9.5 106 -28.5s56.334 -44.333 77.001 -76s36.334 -68.334 47.001 -110.001s16 -84.834 16 -129.501
c0 -68.667 -6.83301 -130.5 -20.5 -185.5s-32.167 -103.167 -55.5 -144.5c36 27.333 72.5 63.666 109.5 108.999s73.5 104 109.5 176l10 21l41 -31l-10 -21c-30.667 -61.333 -64.334 -116.666 -101.001 -165.999s-75.5 -91.166 -116.5 -125.499
s-83.833 -60.833 -128.5 -79.5s-90.334 -28 -137.001 -28c-41.333 0 -79.5 9 -114.5 27s-61.833 40.333 -80.5 67v-473c0 -25.333 -1.83301 -46.5 -5.5 -63.5s-9.66699 -30.667 -18 -41s-19.5 -17.666 -33.5 -21.999s-31 -6.5 -51 -6.5c-15.333 0 -26 2.5 -32 7.5
s-9 12.833 -9 23.5c0 4.66699 0.666992 13 2 25s2.66602 30.167 3.99902 54.5s2.66602 56.333 3.99902 96s2 90.167 2 151.5v553c0 74 -0.333008 133.167 -1 177.5s-1.33398 79 -2.00098 104s-1.33398 42.833 -2.00098 53.5s-1 20 -1 28c0 6.66699 3.33301 13.334 10 20.001
s15.334 12.667 26.001 18s22.167 9.83301 34.5 13.5s24.166 5.5 35.499 5.5s20.333 -3 27 -9s10 -16.667 10 -32v-147zM326.004 730.999c-28 0 -53.833 -9.66895 -77.5 -29.002s-44 -44.166 -61 -74.499s-30.333 -63.833 -40 -100.5s-14.5 -72.334 -14.5 -107.001v-115
c0 -36 4.83301 -68.667 14.5 -98s22.5 -54.333 38.5 -75s34.833 -36.5 56.5 -47.5s44.5 -16.5 68.5 -16.5c56.667 0 99.5 29.333 128.5 88s43.5 150.667 43.5 276c0 42.667 -3 82.334 -9 119.001s-15.333 68.334 -28 95.001s-29 47.5 -49 62.5s-43.667 22.5 -71 22.5z" />
    <glyph glyph-name="q" unicode="q" horiz-adv-x="829" 
d="M494 168c-26 -54.667 -58.834 -96.3311 -98.501 -124.998s-83.5 -43 -131.5 -43c-43.333 0 -81.833 9.5 -115.5 28.5s-62 45 -85 78s-40.333 71.167 -52 114.5s-17.5 89.666 -17.5 138.999c0 77.333 9.16699 144.833 27.5 202.5s42 105.5 71 143.5s61.5 66.333 97.5 85
s71.667 28 107 28c25.333 0 48.666 -4 69.999 -12s40.5 -18.333 57.5 -31s31.5 -26.834 43.5 -42.501s21.333 -30.834 28 -45.501c1.33301 26.667 4 48.5 8 65.5s9.83301 30.333 17.5 40s17.5 16.334 29.5 20.001s27 5.5 45 5.5c15.333 0 26 -2.5 32 -7.5s9 -12.833 9 -23.5
c0 -5.33301 -0.5 -13.166 -1.5 -23.499s-2.16699 -24.5 -3.5 -42.5s-2.5 -40 -3.5 -66s-1.5 -57 -1.5 -93v-438c12.667 14.667 26 31.167 40 49.5s28.833 39.5 44.5 63.5s32.334 51.667 50.001 83s36.834 67.666 57.501 108.999l10 21l41 -31l-10 -21
c-41.333 -80.667 -82.5 -151 -123.5 -211s-77.5 -109 -109.5 -147v-369c0 -38 -1.5 -69 -4.5 -93s-8.33301 -42.833 -16 -56.5s-18.167 -22.834 -31.5 -27.501s-30.333 -7 -51 -7c-15.333 0 -26 2.5 -32 7.5s-9 12.833 -9 23.5c0 4.66699 0.5 12.334 1.5 23.001l4 43
c1.66699 18 3 40 4 66s1.5 57 1.5 93v424zM495.999 471.003c0 28 -4.00195 58.833 -12.002 92.5s-19.667 64.834 -35 93.501s-34.666 52.667 -57.999 72s-50 29 -80 29c-23.333 0 -46 -5.5 -68 -16.5s-41.5 -29.333 -58.5 -55s-30.833 -59.834 -41.5 -102.501
s-16 -95.334 -16 -158.001c0 -54.667 5.33301 -101.667 16 -141s24.834 -71.833 42.501 -97.5s37.5 -44.5 59.5 -56.5s44.667 -18 68 -18c26.667 0 51 5.33301 73 16s41 28.334 57 53.001s28.5 57 37.5 97s14.167 89 15.5 147v45z" />
    <glyph glyph-name="r" unicode="r" horiz-adv-x="604" 
d="M-10 430l9.99121 21.0078c10 20 19.167 40.667 27.5 62s15.5 41.5 21.5 60.5s10.667 36 14 51s5.66602 26.5 6.99902 34.5c-17.333 2 -34 6.33301 -50 13s-30 15.667 -42 27s-21.5 24.666 -28.5 39.999s-10.5 32.666 -10.5 51.999c0 15.333 2.66699 29 8 41
s12.5 22 21.5 30s19 14.167 30 18.5s22.5 6.5 34.5 6.5c16 0 30 -3.33301 42 -10s22 -15.5 30 -26.5s14 -23.667 18 -38s6 -29.166 6 -44.499c18.667 0 38.834 2.66699 60.501 8s43.5 11.166 65.5 17.499s43.667 12.166 65 17.499s41 8 59 8
c15.333 0 27.666 -3.16699 36.999 -9.5s14 -16.833 14 -31.5c0 -10.667 -3.16699 -28.334 -9.5 -53.001s-14.166 -53.334 -23.499 -86.001l-30.5 -106.5c-11 -38.333 -21.167 -77 -30.5 -116s-17.166 -76.833 -23.499 -113.5s-9.5 -69.334 -9.5 -98.001
c0 -36 4 -60.333 12 -73s22.333 -19 43 -19c8.66699 0 19.5 3.83301 32.5 11.5s28.833 22.667 47.5 45s40.834 54.333 66.501 96s55.5 96.5 89.5 164.5l10 21l41 -31l-10 -21c-40 -80 -75.667 -145.667 -107 -197s-60.166 -92 -86.499 -122s-51.166 -50.833 -74.499 -62.5
s-46.666 -17.5 -69.999 -17.5c-39.333 0 -71.333 15 -96 45s-37 76.333 -37 139c0 34 4.66699 69.333 14 106s21 73.167 35 109.5s29.667 72.166 47 107.499l49.5 100.5l42.5 88.5c12.667 27.333 21.667 51.333 27 72l-6 6c-10.667 0 -25 -5.66699 -43 -17l-60.5 -38.5
c-22.333 -14.333 -46.166 -27.833 -71.499 -40.5s-51 -20.334 -77 -23.001c-1.33301 -9.33301 -4.16602 -23 -8.49902 -41s-10.166 -38 -17.499 -60s-15.666 -44.667 -24.999 -68s-19 -45.333 -29 -66l-10 -21zM38.9912 831.008c-6 0 -11 -1.99805 -15 -5.99805
s-6 -8.66699 -6 -14c0 -8 2 -14.833 6 -20.5s9 -10.334 15 -14.001s12.167 -6.33398 18.5 -8.00098s11.833 -2.5 16.5 -2.5c0 18.667 -3 34.167 -9 46.5s-14.667 18.5 -26 18.5z" />
    <glyph glyph-name="s" unicode="s" horiz-adv-x="666" 
d="M584 348c0 -45.333 -6.83691 -88.835 -20.5039 -130.502s-33.667 -78.667 -60 -111s-59 -58.166 -98 -77.499s-83.5 -29 -133.5 -29c-36 0 -68.167 5.83301 -96.5 17.5s-52.5 27.334 -72.5 47.001s-35.333 42 -46 67s-16 50.833 -16 77.5s5.16699 51.5 15.5 74.5
s24.333 42.667 42 59s37.834 29.166 60.501 38.499s46.667 14 72 14c16 0 32.667 -2 50 -6v-29c-21.333 0 -42.166 -4.33301 -62.499 -13s-38.333 -20.5 -54 -35.5s-28.167 -33 -37.5 -54s-14 -43.5 -14 -67.5c0 -44 15.167 -79.167 45.5 -105.5s71.833 -39.5 124.5 -39.5
c26.667 0 51 5.16699 73 15.5s40.833 24.666 56.5 42.999s27.667 40.166 36 65.499s12.5 53 12.5 83c0 28.667 -5.66699 55.334 -17 80.001s-26.333 48 -45 70s-39.834 42.667 -63.501 62s-47.667 37.833 -72 55.5l-71.5 51.5c-23.333 16.667 -43.666 33.334 -60.999 50.001
l-100 -222l-41 31l102 223c-24.667 23.333 -42.834 45.5 -54.501 66.5s-17.5 46.167 -17.5 75.5c0 16 2.83301 31.167 8.5 45.5s13.334 26.666 23.001 36.999s20.834 18.5 33.501 24.5s26 9 40 9c25.333 0 44.333 -7.16699 57 -21.5s19 -32.166 19 -53.499
c0 -10 -1 -20.5 -3 -31.5s-4.5 -22 -7.5 -33s-6 -21.167 -9 -30.5l-7.5 -24c20 -15.333 44 -30.166 72 -44.499l87.5 -44.5c30.333 -15.333 60.5 -32 90.5 -50s56.833 -38 80.5 -60s42.834 -47 57.501 -75s22 -59.667 22 -95zM126.996 865.998
c-9.33301 0 -16.834 -3.16602 -22.501 -9.49902s-8.5 -14.833 -8.5 -25.5c0 -12 3 -25.333 9 -40s16.667 -29 32 -43c6.66699 14 11.834 27.667 15.501 41s5.5 26.666 5.5 39.999c0 10.667 -2.83301 19.5 -8.5 26.5s-13.167 10.5 -22.5 10.5z" />
    <glyph glyph-name="t" unicode="t" horiz-adv-x="477" 
d="M-4 328c0 70.667 2.66602 141.67 7.99902 213.003s12.333 143.666 21 216.999h-91l11 61h88l28.5 204.5c9.66699 68.333 18.5 136.833 26.5 205.5h102l-5.5 -63.5l-8 -96c-3 -36.333 -5.83301 -76 -8.5 -119l-8 -131.5h194l-10 -61h-188c-2.66699 -38 -5 -75.333 -7 -112
l-5.5 -104.5c-1.66699 -33 -2.83398 -63.333 -3.50098 -91s-1 -51.5 -1 -71.5c0 -50.667 1.5 -93 4.5 -127s7.66699 -61.333 14 -82s14.333 -35.334 24 -44.001s20.834 -13 33.501 -13c16.667 0 35.167 8.5 55.5 25.5s41.5 39.833 63.5 68.5s44.333 62.167 67 100.5
s44.667 79.166 66 122.499l10 21l41 -31l-10 -21c-30.667 -62 -61.167 -117.667 -91.5 -167s-60.166 -91.166 -89.499 -125.499s-58 -60.666 -86 -78.999s-55 -27.5 -81 -27.5s-49.167 6 -69.5 18s-37.5 31.167 -51.5 57.5s-24.667 60.166 -32 101.499
s-11 91.666 -11 150.999z" />
    <glyph glyph-name="u" unicode="u" 
d="M410 217c-3.33301 -5.33301 -8.16699 -14.5 -14.5 -27.5s-14.333 -27.5 -24 -43.5s-21 -32.667 -34 -50s-27.833 -33 -44.5 -47s-35.167 -25.667 -55.5 -35s-42.833 -14 -67.5 -14c-19.333 0 -39.333 4 -60 12s-39.834 22.667 -57.501 44s-32.167 50.5 -43.5 87.5
s-17 84.833 -17 143.5c0 56 2 112.167 6 168.5s8.83301 107.833 14.5 154.5s11.167 85.667 16.5 117s9.33301 50.333 12 57c2.66699 6 8 11.333 16 16s17.167 8.33398 27.5 11.001s21 4.66699 32 6s20.5 2 28.5 2c10.667 0 19.167 -2.66699 25.5 -8s9.5 -14.333 9.5 -27
c0 -6 -1.16699 -17.833 -3.5 -35.5l-8.5 -64.5l-10.5 -84c-3.66699 -30.667 -7.16699 -61.834 -10.5 -93.501s-6.16602 -63 -8.49902 -94s-3.5 -59.167 -3.5 -84.5c0 -72.667 7.83301 -126.667 23.5 -162s41.5 -53 77.5 -53c30.667 0 61.834 22.333 93.501 67
s59.167 109.667 82.5 195c3.33301 36 6.5 74.5 9.5 115.5l8.5 117c2.66699 37 5.16699 70.167 7.5 99.5s4.5 50.333 6.5 63c2 9.33301 7.33301 17.166 16 23.499s18.5 11.333 29.5 15s21.667 6.33398 32 8.00098s18.166 2.5 23.499 2.5c11.333 0 19.166 -2.5 23.499 -7.5
s6.5 -12.833 6.5 -23.5c0 -9.33301 -0.833008 -27.166 -2.5 -53.499l-6 -92l-7.5 -112.5l-7.5 -115.5c-2.33301 -37 -4.33301 -70.5 -6 -100.5s-2.5 -52.667 -2.5 -68c0 -45.333 2.5 -81 7.5 -107s16.167 -39 33.5 -39c12.667 0 26.5 8.16699 41.5 24.5
s31.333 39.166 49 68.499s36.834 64.166 57.501 104.499l67 132.5l10 21l41 -31l-10 -21l-84.5 -169.5c-24.333 -49.667 -47.5 -91.5 -69.5 -125.5s-44.333 -59.833 -67 -77.5s-48 -26.5 -76 -26.5c-26 0 -47.5 5 -64.5 15s-30.5 24.333 -40.5 43
s-17.167 41.334 -21.5 68.001s-6.5 57 -6.5 91z" />
    <glyph glyph-name="v" unicode="v" horiz-adv-x="694" 
d="M168 758c0 -26 -2.16113 -58.998 -6.49414 -98.998l-14 -133.5c-5 -49 -9.66699 -101.5 -14 -157.5s-6.5 -113 -6.5 -171c0 -46.667 7.66699 -78.834 23 -96.501s36.333 -26.5 63 -26.5c18.667 0 37.667 5 57 15s37.833 23.667 55.5 41s34.167 38 49.5 62s29 50 41 78
c-38 23.333 -70 61.5 -96 114.5s-39 120.167 -39 201.5c0 40.667 4.33301 75.167 13 103.5s20.167 51.5 34.5 69.5s30.5 31.167 48.5 39.5s36.333 12.5 55 12.5c16.667 0 33 -3.33301 49 -10s30 -17.5 42 -32.5s21.667 -34.833 29 -59.5s11 -55 11 -91
c0 -45.333 -5.5 -96.166 -16.5 -152.499s-27.167 -112.5 -48.5 -168.5c3.33301 0 6.66602 -0.333008 9.99902 -1s6.66602 -1 9.99902 -1c37.333 0 69.166 12.167 95.499 36.5s49.833 57.166 70.5 98.499l10 21l41 -31l-10 -21c-26.667 -52 -58.834 -90.833 -96.501 -116.5
s-76.5 -38.5 -116.5 -38.5c-6 0 -12.5 0.333008 -19.5 1s-12.167 1.66699 -15.5 3c-15.333 -34 -33.333 -66 -54 -96s-43.5 -56.167 -68.5 -78.5s-52.333 -40.166 -82 -53.499s-61.167 -20 -94.5 -20c-27.333 0 -52.666 4.16699 -75.999 12.5s-43.833 23.666 -61.5 45.999
s-31.5 52.666 -41.5 90.999s-15 87.5 -15 147.5c0 26.667 0.666992 56.5 2 89.5s3.16602 66.5 5.49902 100.5s5 67.333 8 100s6.16699 62.5 9.5 89.5s6.66602 49.667 9.99902 68s6.66602 30.166 9.99902 35.499c8 14.667 21.333 24.834 40 30.501s36.667 8.5 54 8.5
c12 0 22.5 -4.33301 31.5 -13s13.5 -24.667 13.5 -48zM336.006 582.002c0 -64 9.5 -117.83 28.5 -161.497s42.833 -75.834 71.5 -96.501c14.667 42 26.167 85.5 34.5 130.5s12.5 88.167 12.5 129.5c0 26.667 -2.16699 49.167 -6.5 67.5s-9.83301 33.166 -16.5 44.499
s-14.5 19.333 -23.5 24s-17.833 7 -26.5 7c-9.33301 0 -18.333 -2.5 -27 -7.5s-16.5 -13.167 -23.5 -24.5s-12.667 -26.333 -17 -45s-6.5 -41.334 -6.5 -68.001z" />
    <glyph glyph-name="w" unicode="w" horiz-adv-x="995" 
d="M152 0c-30.667 0 -56.1709 8.83008 -76.5039 26.4971s-36.5 41.5 -48.5 71.5s-20.5 64.5 -25.5 103.5s-7.5 79.833 -7.5 122.5c0 67.333 2.66699 128 8 182s11.666 100.5 18.999 139.5s14.666 69.667 21.999 92s12.666 35.833 15.999 40.5
c4.66699 6 10.834 11.667 18.501 17s15.5 9.66602 23.5 12.999s16 6 24 8s14.667 3 20 3c15.333 0 26 -3 32 -9s9 -16.667 9 -32c-0.666992 0 -2.16699 -6.83301 -4.5 -20.5s-5.16602 -32.167 -8.49902 -55.5s-7 -50.5 -11 -81.5s-7.5 -63.833 -10.5 -98.5
s-5.5 -69.834 -7.5 -105.501s-3 -70.167 -3 -103.5c0 -29.333 1 -56.666 3 -81.999s5.5 -47.666 10.5 -66.999s11.333 -34.5 19 -45.5s17.5 -16.5 29.5 -16.5s23.333 7.83301 34 23.5s20.667 36 30 61s18 53 26 84s15.333 62.333 22 94l18.5 90l14.5 71.5
c2.66699 10 7.83398 19.167 15.501 27.5s16.834 15.5 27.501 21.5s22 10.667 34 14s23.333 5 34 5c8 0 13.333 -2.5 16 -7.5s4 -12.833 4 -23.5c0 -60 3.66699 -118.333 11 -175s17.833 -107 31.5 -151s29.834 -79.167 48.501 -105.5s39.667 -39.5 63 -39.5
c16 0 31 6.16699 45 18.5s26.5 27.666 37.5 45.999s20 37.833 27 58.5s11.5 39 13.5 55c-26.667 11.333 -51.667 29.5 -75 54.5s-43.833 54.333 -61.5 88s-31.5 70.167 -41.5 109.5s-15 79 -15 119c0 22 2.33301 43.667 7 65s11.834 40.333 21.501 57
s21.834 30.167 36.501 40.5s32 15.5 52 15.5c26.667 0 49.834 -8.33301 69.501 -25s36 -39.167 49 -67.5s22.833 -61.166 29.5 -98.499s10 -76.666 10 -117.999c0 -30.667 -2 -64.667 -6 -102s-9 -71.666 -15 -102.999h19c33.333 0 62.166 12 86.499 36
s45.166 53.667 62.499 89l10 21l41 -31l-10 -21c-21.333 -42 -49 -76.333 -83 -103s-74.667 -40 -122 -40h-14c-10 -36 -22 -69.5 -36 -100.5s-30.167 -58 -48.5 -81s-38.5 -41.167 -60.5 -54.5s-45.333 -20 -70 -20c-28.667 0 -53.834 5.66699 -75.501 17
s-40.5 26.5 -56.5 45.5s-29.5 40.333 -40.5 64s-20 48 -27 73s-12.5 49.333 -16.5 73s-7 44.834 -9 63.501l-17 -70.5c-6 -25 -13 -50 -21 -75s-17.333 -49 -28 -72s-23.167 -43.167 -37.5 -60.5s-30.666 -31.333 -48.999 -42s-39.166 -16 -62.499 -16zM620.996 638.997
c0 -30.667 3.33203 -62.166 9.99902 -94.499s16.334 -62.833 29.001 -91.5s27.834 -54.334 45.501 -77.001s37.167 -40 58.5 -52c0.666992 8 1.5 17.333 2.5 28s1.66699 21.834 2 33.501l1 34c0.333008 11 0.5 20.833 0.5 29.5c0 37.333 -2.33301 73.5 -7 108.5
s-11.334 66.167 -20.001 93.5s-19 49.166 -31 65.499s-25.333 24.5 -40 24.5c-10 0 -18.333 -3.16699 -25 -9.5s-12 -14.5 -16 -24.5s-6.66699 -21 -8 -33s-2 -23.667 -2 -35z" />
    <glyph glyph-name="x" unicode="x" horiz-adv-x="768" 
d="M20 -41c0 13.333 1.99707 26.8379 5.99707 40.5049s12.833 31.5 26.5 53.5s34 50.333 61 85l109.5 136l51 62c-21.333 78 -37.5 139.667 -48.5 185l-25.5 102.5c-6 23 -10.5 37.5 -13.5 43.5s-7.16699 9 -12.5 9s-11.166 -5.5 -17.499 -16.5
s-14.666 -27.167 -24.999 -48.5l-37.5 -80l-53 -111l-10 -21l-41 31l10 21c24.667 50 45.334 93.667 62.001 131l43 97c12 27.333 22.333 50 31 68s17.667 32.333 27 43s19.833 18.167 31.5 22.5s26.167 6.5 43.5 6.5c14.667 0 27.334 -4 38.001 -12
s21.334 -24.833 32.001 -50.5s22.667 -62.667 36 -111l51 -194.5l50.5 68c17 24 32.333 48 46 72s24.667 47.167 33 69.5s12.5 42.5 12.5 60.5c0 11.333 -1.33301 21.166 -4 29.499s-5.66699 15.166 -9 20.499c-3.33301 6.66699 -7.33301 12.334 -12 17.001l20 31
c17.333 -0.666992 32.666 -3.66699 45.999 -9c11.333 -4.66699 22 -11.834 32 -21.501s15 -23.167 15 -40.5c0 -20 -5.16699 -42.667 -15.5 -68s-24.833 -53 -43.5 -83s-41 -62.5 -67 -97.5s-55 -71.833 -87 -110.5c16 -60 30.667 -107.5 44 -142.5s25.5 -61.667 36.5 -80
s21.333 -30.166 31 -35.499s19.5 -8 29.5 -8c12.667 0 26.167 7.33301 40.5 22s29.833 35.5 46.5 62.5s34.667 59.333 54 97l64 125.5l10 21l41 -31l-10 -21l-93.5 -182.5c-26.333 -50.333 -50.833 -91.5 -73.5 -123.5s-45 -55.5 -67 -70.5s-46.333 -22.5 -73 -22.5
c-20.667 0 -39.334 2.66699 -56.001 8s-32.834 17.666 -48.501 36.999s-31.167 47.666 -46.5 84.999s-32 87.666 -50 150.999l-43 -52c-47.333 -56 -81.333 -102.5 -102 -139.5s-31 -68.167 -31 -93.5c0 -17.333 2.16699 -32.666 6.5 -45.999s9.5 -24 15.5 -32l-14 -31
c-9.33301 0 -20 0.833008 -32 2.5s-23.167 5.16699 -33.5 10.5s-19.166 12.666 -26.499 21.999s-11 21.666 -11 36.999z" />
    <glyph glyph-name="y" unicode="y" horiz-adv-x="795" 
d="M63 791c2.66699 6.66699 9.00195 11.9951 19.002 15.9951s20.667 6.83301 32 8.5s22 2.66699 32 3s16.667 0.5 20 0.5c10 0 16.5 -2.5 19.5 -7.5s4.5 -12.833 4.5 -23.5c0 -5.33301 -1.66699 -17.166 -5 -35.499l-12.5 -68.5c-5 -27.333 -10.333 -58.333 -16 -93
s-11 -70.334 -16 -107.001s-9.16699 -73.834 -12.5 -111.501s-5 -73.167 -5 -106.5c0 -58 9.66699 -101.5 29 -130.5s41.666 -43.5 66.999 -43.5c44 0 83 32.333 117 97s69.333 159.334 106 284.001v291c0 11.333 5.16699 20.5 15.5 27.5s22.166 12.5 35.499 16.5
s26.333 6.83301 39 8.5s21.667 2.5 27 2.5c20.667 0 31 -10.333 31 -31c0 -7.33301 -0.5 -19.5 -1.5 -36.5l-3.5 -60c-1.33301 -23 -2.5 -48.333 -3.5 -76s-1.5 -55.5 -1.5 -83.5v-407l45.5 61l57 81l57 86c18.333 28.667 33.166 54.334 44.499 77.001l11 21l41 -31l-11 -21
c-14 -28 -30.667 -57 -50 -87s-39.833 -60.167 -61.5 -90.5l-67 -90l-66.5 -84.5v-221c0 -61.333 -5.5 -113.5 -16.5 -156.5s-26.167 -78 -45.5 -105s-42 -46.5 -68 -58.5s-54.333 -18 -85 -18c-19.333 0 -37.166 3 -53.499 9s-30.5 14.833 -42.5 26.5
s-21.333 25.667 -28 42s-10 34.833 -10 55.5c0 30 5.5 60 16.5 90s26.333 61 46 93s42.5 64.833 68.5 98.5l84 105.5v303c-16.667 -45.333 -34.667 -87.166 -54 -125.499s-40.333 -71.166 -63 -98.499s-47 -48.666 -73 -63.999s-54 -23 -84 -23
c-21.333 0 -43.166 3.5 -65.499 10.5s-43 19.833 -62 38.5s-34.5 43.834 -46.5 75.501s-18 72.167 -18 121.5c0 56 3.33301 113 10 171s14.5 112 23.5 162s18.167 93.833 27.5 131.5s16.666 64.5 21.999 80.5zM354.002 -451.005c10.667 0 21.499 2.16895 32.499 6.50195
s20.833 14.166 29.5 29.499s15.834 38 21.501 68s8.5 70.667 8.5 122v151c-22.667 -28 -43.5 -55.167 -62.5 -81.5s-35.5 -52 -49.5 -77s-25 -49.167 -33 -72.5s-12 -46 -12 -68c0 -20.667 5.66699 -38.834 17 -54.501s27.333 -23.5 48 -23.5z" />
    <glyph glyph-name="z" unicode="z" horiz-adv-x="717" 
d="M573 616c0 -36 -8.83691 -72.334 -26.5039 -109.001s-40.5 -72 -68.5 -106s-59.167 -65.667 -93.5 -95s-68.166 -54.333 -101.499 -75c28.667 -17.333 56.667 -39.333 84 -66s51.666 -58.334 72.999 -95.001l64 69.5c23.333 25.667 46.833 53.834 70.5 84.501
s46.834 63.167 69.501 97.5s43.667 70.5 63 108.5l10 21l41 -31l-10 -21c-19.333 -38.667 -40.833 -75.5 -64.5 -110.5s-48 -68.167 -73 -99.5s-50 -61 -75 -89l-70.5 -80c11.333 -28 20.333 -57.833 27 -89.5s10 -66.5 10 -104.5c0 -61.333 -5.5 -113.5 -16.5 -156.5
s-26 -78 -45 -105s-41.667 -46.5 -68 -58.5s-54.833 -18 -85.5 -18c-38 0 -69.667 11.833 -95 35.5s-38 56.167 -38 97.5c0 26 4.83301 52.833 14.5 80.5s23 56.334 40 86.001s36.833 60.167 59.5 91.5l74 98c-8.66699 32.667 -19 61.5 -31 86.5s-24.5 46.167 -37.5 63.5
s-25.667 31.166 -38 41.499s-23.166 17.5 -32.499 21.5c-28.667 -10.667 -50.667 -16 -66 -16c-22.667 0 -39.5 5.16699 -50.5 15.5s-16.5 21.5 -16.5 33.5c0 13.333 6 25.5 18 36.5s29.667 16.5 53 16.5c10.667 0 22 -1.33301 34 -4s24.667 -6 38 -10
c32 16.667 61.667 37.834 89 63.501s51.333 53.667 72 84s36.834 62.333 48.501 96s17.5 66.5 17.5 98.5c0 20.667 -2.5 39.667 -7.5 57s-12.667 32.5 -23 45.5s-23.166 23.167 -38.499 30.5s-33.333 11 -54 11c-28 0 -54 -8.83301 -78 -26.5s-46.5 -40.5 -67.5 -68.5
s-40.5 -59 -58.5 -93l-52 -99l-30 -62l-41 31l30 62c16.667 34 35.5 70 56.5 108s45 73.333 72 106s57.667 59.667 92 81s73.5 32 117.5 32c33.333 0 63.333 -5.16699 90 -15.5s49.167 -24.5 67.5 -42.5s32.5 -39.333 42.5 -64s15 -51.667 15 -81zM366.996 -225.001
c0 25.333 -1 49.335 -3 72.002s-4.66699 43.667 -8 63c-42 -54 -76.667 -104.833 -104 -152.5s-41 -91.167 -41 -130.5c0 -20.667 5.83301 -38.834 17.5 -54.501s27.5 -23.5 47.5 -23.5c10.667 0 21.5 2.16699 32.5 6.5s20.833 14.166 29.5 29.499s15.667 38 21 68
s8 70.667 8 122z" />
    <glyph glyph-name="braceleft" unicode="{" horiz-adv-x="768" 
d="M121 860c42.667 0 78.501 2.99707 107.501 8.99707s52.167 14.5 69.5 25.5s29.666 24 36.999 39s11 31.5 11 49.5c0 30.667 -4.33301 67.5 -13 110.5l-28 137.5c-10 48.667 -19.333 98.5 -28 149.5s-13 99.5 -13 145.5c0 40 5.66699 72.5 17 97.5
s26.666 44.5 45.999 58.5s41.833 23.5 67.5 28.5s52.5 7.5 80.5 7.5s56 -1.5 84 -4.5s54.667 -5.5 80 -7.5l-2 -41l-66 2c-19.333 0.666992 -39.166 -0.833008 -59.499 -4.5s-39 -11.167 -56 -22.5s-31 -27.833 -42 -49.5s-16.5 -50.167 -16.5 -85.5
c0 -38 3.66699 -79.167 11 -123.5s15.5 -88.333 24.5 -132l25 -124.5c7.66699 -39.333 11.5 -73 11.5 -101c0 -46 -13.667 -84.833 -41 -116.5s-66.333 -54.167 -117 -67.5c50.667 -14.667 89.667 -37.5 117 -68.5s41 -69.833 41 -116.5c0 -28 -3.83301 -61.667 -11.5 -101
l-25 -124c-9 -43.333 -17.167 -87.166 -24.5 -131.499s-11 -85.833 -11 -124.5c0 -35.333 5.5 -63.666 16.5 -84.999s25 -37.833 42 -49.5s35.667 -19.334 56 -23.001s40.166 -5.16699 59.499 -4.5l66 2l2 -41c-28.667 -3.33301 -57.5 -6.16602 -86.5 -8.49902
s-56.833 -3.5 -83.5 -3.5c-28.667 0 -55.5 2.5 -80.5 7.5s-46.667 14.667 -65 29s-32.833 34 -43.5 59s-16 57.5 -16 97.5c0 46 4.33301 94.333 13 145s18 100.334 28 149.001l28 137.5c8.66699 43 13 79.833 13 110.5c0 18 -3.66699 34.5 -11 49.5s-19.666 28 -36.999 39
s-40.5 19.5 -69.5 25.5s-64.833 9 -107.5 9v41z" />
    <glyph glyph-name="bar" unicode="|" horiz-adv-x="328" 
d="M205 -51h-82v1782h82v-1782z" />
    <glyph glyph-name="braceright" unicode="}" horiz-adv-x="768" 
d="M645 819c-43.333 0 -79.334 -2.99609 -108.001 -8.99609s-51.667 -14.5 -69 -25.5s-29.666 -24 -36.999 -39s-11 -31.5 -11 -49.5c0 -30.667 4.33301 -67.5 13 -110.5l28 -137.5c10 -48.667 19.333 -98.334 28 -149.001s13 -99 13 -145c0 -40 -5.33301 -72.5 -16 -97.5
s-25.167 -44.667 -43.5 -59s-40 -24 -65 -29s-51.833 -7.5 -80.5 -7.5c-26.667 0 -54.5 1.16699 -83.5 3.5s-57.833 5.16602 -86.5 8.49902l2 41l66 -2c19.333 -0.666992 39.166 0.833008 59.499 4.5s39 11.334 56 23.001s31 28.167 42 49.5s16.5 49.666 16.5 84.999
c0 38.667 -3.83301 80.167 -11.5 124.5s-16 88.166 -25 131.499s-17.167 84.666 -24.5 123.999s-11 73 -11 101c0 46.667 13.667 85.5 41 116.5s66.333 53.833 117 68.5c-50.667 13.333 -89.667 35.833 -117 67.5s-41 70.5 -41 116.5c0 28 3.66699 61.667 11 101
s15.5 80.833 24.5 124.5s17.333 87.667 25 132s11.5 85.5 11.5 123.5c0 35.333 -5.5 63.833 -16.5 85.5s-25 38.167 -42 49.5s-35.667 18.833 -56 22.5s-40.166 5.16699 -59.499 4.5l-66 -2l-2 41c25.333 2 52 4.5 80 7.5s55.333 4.5 82 4.5
c28.667 0 55.834 -2.5 81.501 -7.5s48.167 -14.5 67.5 -28.5s34.833 -33.5 46.5 -58.5s17.5 -57.5 17.5 -97.5c0 -46 -4.33301 -94.5 -13 -145.5s-18 -100.833 -28 -149.5l-28 -137.5c-8.66699 -43 -13 -79.833 -13 -110.5c0 -18 3.66699 -34.5 11 -49.5
s19.666 -28 36.999 -39s40.333 -19.5 69 -25.5s64.667 -9 108 -9v-41z" />
    <glyph glyph-name="asciitilde" unicode="~" horiz-adv-x="758" 
d="M123 492c3.33301 30 10.666 57.002 21.999 81.002c9.33301 20.667 23.5 39.5 42.5 56.5s45.167 25.5 78.5 25.5c20.667 0 41.667 -3.16699 63 -9.5s43 -13.333 65 -21s43.667 -14.667 65 -21s42.333 -9.5 63 -9.5c15.333 0 27.666 3.16699 36.999 9.5
s16.666 13.166 21.999 20.499c6 8.66699 10.333 19 13 31h41c-3.33301 -30.667 -10.666 -58 -21.999 -82c-9.33301 -20.667 -23.666 -39.334 -42.999 -56.001s-45.333 -25 -78 -25c-20.667 0 -41.834 3.16699 -63.501 9.5s-43.5 13.333 -65.5 21s-43.667 14.667 -65 21
s-42 9.5 -62 9.5c-15.333 0 -27.666 -3.33301 -36.999 -10s-16.666 -13.667 -21.999 -21c-6 -8.66699 -10.333 -18.667 -13 -30h-41z" />
    <glyph glyph-name="uni00A0" unicode="&#xa0;" horiz-adv-x="471" 
 />
    <glyph glyph-name="exclamdown" unicode="&#xa1;" horiz-adv-x="430" 
d="M307 1085c0 -12.667 -2.33301 -24.667 -7 -36s-11 -21.166 -19 -29.499s-17.667 -14.833 -29 -19.5s-23.666 -7 -36.999 -7c-12.667 0 -24.667 2.33301 -36 7s-21.166 11.167 -29.499 19.5s-14.833 18.166 -19.5 29.499s-7 23.333 -7 36s2.33301 24.667 7 36
s11.167 21.333 19.5 30s18.166 15.334 29.499 20.001s23.333 7 36 7s24.667 -2.33301 36 -7s21.166 -11.334 29.499 -20.001s14.833 -18.667 19.5 -30s7 -23.333 7 -36zM233 -197c-0.666992 -10.667 -4.66602 -19.999 -11.999 -27.999s-15.833 -14.5 -25.5 -19.5
s-19.667 -8.83301 -30 -11.5s-18.5 -4 -24.5 -4c-4.66699 0 -9.33398 0.166992 -14.001 0.5s-9 2 -13 5s-7.33301 7.83301 -10 14.5s-4 16.334 -4 29.001c0 18.667 1.16699 45.834 3.5 81.501s5.33301 76.667 9 123s8 96.333 13 150l15 164l15 165l13.5 152.5
c4 47.333 7.33301 89.666 10 126.999s4.33398 66.666 5.00098 87.999l52 -2c0 -84.667 0.5 -169.167 1.5 -253.5s1.66699 -169.333 2 -255s0.166016 -172.334 -0.500977 -260.001s-2.66699 -176.5 -6 -266.5z" />
    <glyph glyph-name="cent" unicode="&#xa2;" horiz-adv-x="922" 
d="M502 1229l60.9971 6c33.333 0 62.333 -4 87 -12s45.167 -18.667 61.5 -32s28.5 -28.333 36.5 -45s12 -34 12 -52c0 -28 -7.33301 -51.667 -22 -71s-30.667 -35.333 -48 -48c-20.667 -14.667 -43.667 -26.334 -69 -35.001l-25 45c8 7.33301 15.333 15.666 22 24.999
c5.33301 8 10.5 18 15.5 30s7.5 25.667 7.5 41c0 12 -2.5 23.333 -7.5 34s-12.167 20 -21.5 28s-20.5 14.333 -33.5 19s-27.5 7 -43.5 7c-6.66699 0 -12.5 -0.333008 -17.5 -1s-10.167 -1 -15.5 -1v-624h20c40 0 76.833 6 110.5 18s62.834 25.667 87.501 41
c28.667 17.333 55 37.333 79 60l35 -39c-27.333 -29.333 -58 -56.333 -92 -81c-29.333 -21.333 -64.166 -41.5 -104.499 -60.5s-85.5 -30.833 -135.5 -35.5v-344h-62v342c-54 2.66699 -100.833 13.334 -140.5 32.001s-72.167 43 -97.5 73s-44.166 64.167 -56.499 102.5
s-18.5 78.5 -18.5 120.5c0 44.667 7 89.834 21 135.501s34.167 88.5 60.5 128.5s59 75.667 98 107s83.5 55 133.5 71v302h62v-287zM261.997 838c0 -32 3.5 -63 10.5 -93s17.833 -57.667 32.5 -83s33.167 -47.5 55.5 -66.5s48.833 -33.167 79.5 -42.5v598
c-29.333 -12 -55 -29.167 -77 -51.5s-40.5 -47.5 -55.5 -75.5s-26.333 -58 -34 -90s-11.5 -64 -11.5 -96z" />
    <glyph glyph-name="sterling" unicode="&#xa3;" horiz-adv-x="1147" 
d="M209 834l188 -0.00292969l-44.5 90.5c-15 29.667 -28.667 59.5 -41 89.5s-22.333 60.833 -30 92.5s-11.5 65.5 -11.5 101.5c0 49.333 9.66699 92 29 128s44.833 65.833 76.5 89.5s67.334 41.167 107.001 52.5s80.167 17 121.5 17c45.333 0 85.166 -6.66699 119.499 -20
s63 -31 86 -53s40.333 -47.167 52 -75.5s17.5 -57.166 17.5 -86.499c0 -48.667 -16.333 -91.667 -49 -129s-79.334 -64.666 -140.001 -81.999l-24 36c36 20.667 64.667 48.667 86 84s32 77 32 125c0 22.667 -3.83301 44 -11.5 64s-19 37.167 -34 51.5
s-33.667 25.666 -56 33.999s-47.833 12.5 -76.5 12.5c-23.333 0 -46.166 -4.33301 -68.499 -13s-42 -21.667 -59 -39s-30.667 -39 -41 -65s-15.5 -56 -15.5 -90c0 -35.333 3 -69.833 9 -103.5s13.5 -67.334 22.5 -101.001s18.833 -67.834 29.5 -102.501s21 -70.667 31 -108
h268v-50h-256c9.33301 -38 16.833 -77.167 22.5 -117.5s8.5 -83.5 8.5 -129.5c0 -18.667 -0.833008 -36 -2.5 -52s-4.16699 -31.667 -7.5 -47l56.5 -27.5c18.333 -9 36.666 -17.167 54.999 -24.5s36.666 -13.166 54.999 -17.499s37.166 -6.5 56.499 -6.5
c24.667 0 48.834 4.83301 72.501 14.5s45.834 23.5 66.501 41.5s39.334 39.667 56.001 65s30.334 53.333 41.001 84l38 -12c-7.33301 -36.667 -19.333 -75.167 -36 -115.5s-37.834 -77.5 -63.501 -111.5s-55 -62 -88 -84s-69.167 -33 -108.5 -33
c-25.333 0 -48.666 4 -69.999 12s-41.5 18 -60.5 30s-37.333 25.333 -55 40l-52.5 43c-12.667 -22 -27.334 -41 -44.001 -57s-34.334 -29.167 -53.001 -39.5s-38 -18 -58 -23s-39.333 -7.5 -58 -7.5c-22.667 0 -44.167 3.33301 -64.5 10s-38.333 16.167 -54 28.5
s-28.167 27.833 -37.5 46.5s-14 40 -14 64c0 18 3.5 35.833 10.5 53.5s17.833 33.5 32.5 47.5s33.5 25.333 56.5 34s50.5 13 82.5 13c31.333 0 60.333 -3.16699 87 -9.5s52.334 -14.166 77.001 -23.499c0 6 0.333008 12.667 1 20s1 15 1 23
c0 52.667 -5.33301 100.834 -16 144.501s-23.667 84.834 -39 123.501h-211v50zM297 259.997c14 0 28.499 1.99902 43.499 5.99902s29.5 10.833 43.5 20.5s27 22 39 37s22 33.5 30 55.5c-25.333 18.667 -51.666 34.167 -78.999 46.5s-58.333 18.5 -93 18.5
c-33.333 0 -58.833 -8.66699 -76.5 -26s-26.5 -37.333 -26.5 -60c0 -16 3.16699 -30 9.5 -42s15 -22.167 26 -30.5s23.667 -14.666 38 -18.999s29.5 -6.5 45.5 -6.5z" />
    <glyph glyph-name="currency" unicode="&#xa4;" horiz-adv-x="1106" 
d="M195 758c0 40 6.16699 78.001 18.5 114.001s29.833 69.667 52.5 101l-143 143l72 72l143 -144c30 23.333 63 41.166 99 53.499s74.667 18.5 116 18.5c40 0 78 -6.66699 114 -20s69 -31.333 99 -54l145 146l72 -72l-145 -145c22.667 -30 40.5 -63 53.5 -99
s19.5 -74 19.5 -114c0 -41.333 -6.16699 -80 -18.5 -116s-29.833 -69 -52.5 -99l143 -144l-72 -71l-143 143c-30.667 -22.667 -64.167 -40.334 -100.5 -53.001s-74.5 -19 -114.5 -19c-41.333 0 -80 6.33301 -116 19s-69 30.334 -99 53.001l-143 -143l-72 71l143 144
c-22.667 30 -40.167 63 -52.5 99s-18.5 74.667 -18.5 116zM276 758.001c0 -38.667 7.16699 -74.834 21.5 -108.501s34 -63 59 -88s54.333 -44.667 88 -59s69.834 -21.5 108.501 -21.5s74.667 7.16699 108 21.5s62.5 34 87.5 59s44.667 54.333 59 88
s21.5 69.834 21.5 108.501c0 38 -7.16699 73.833 -21.5 107.5s-34 63 -59 88s-54.167 44.667 -87.5 59s-69.333 21.5 -108 21.5s-74.834 -7.16699 -108.501 -21.5s-63 -34 -88 -59s-44.667 -54.333 -59 -88s-21.5 -69.5 -21.5 -107.5z" />
    <glyph glyph-name="yen" unicode="&#xa5;" horiz-adv-x="1055" 
d="M784 1464c22.667 0 43.333 -1.99512 62 -5.99512s34.667 -10.5 48 -19.5s23.666 -20.5 30.999 -34.5s11 -31.333 11 -52c0 -34.667 -7 -74.334 -21 -119.001s-33.667 -93.667 -59 -147s-55.333 -111.166 -90 -173.499l-113 -197.5h193v-62h-228l-47 -82h275v-61h-309
c-40 -72.667 -69.5 -133.667 -88.5 -183s-28.5 -90 -28.5 -122c0 -16 1.83301 -30.833 5.5 -44.5s8.16699 -26 13.5 -37s11.333 -20.5 18 -28.5s12.667 -14.333 18 -19l-12 -49c-6 -1.33301 -12.5 -2.33301 -19.5 -3s-14.167 -1 -21.5 -1c-17.333 0 -33.833 1.5 -49.5 4.5
s-29.167 9 -40.5 18s-20.333 21.167 -27 36.5s-10 35.666 -10 60.999c0 14.667 2.66699 31.667 8 51s14.5 43 27.5 71s30 61.833 51 101.5l79.5 143.5h-178v61h213l47 82h-260v62h241l-33 72.5l-30 66.5l-105 234c-26.667 59.333 -49 105.166 -67 137.499s-33.333 54 -46 65
s-26 16.5 -40 16.5c-7.33301 0 -15.666 -1 -24.999 -3s-18 -4 -26 -6l-29 -8l-21 43c25.333 17.333 53.166 33 83.499 47s60.5 21 90.5 21c16 0 30.833 -2.83301 44.5 -8.5s27.334 -15.834 41.001 -30.501s28.334 -34.5 44.001 -59.5s33.167 -56.5 52.5 -94.5l66.5 -137
l87.5 -186l25 -54l63 113c21.333 39.333 40.666 78.666 57.999 117.999s31.5 78.333 42.5 117s16.5 75 16.5 109c0 23.333 -2.83301 43.166 -8.5 59.499s-12.167 29.833 -19.5 40.5c-8 12 -17 21.667 -27 29z" />
    <glyph glyph-name="brokenbar" unicode="&#xa6;" horiz-adv-x="328" 
d="M205 717v-768h-82v768h82zM123 963v768h82v-768h-82z" />
    <glyph glyph-name="section" unicode="&#xa7;" horiz-adv-x="983" 
d="M123 891c0 76 19.668 144.338 59.001 205.005c-18.667 23.333 -33.167 49.333 -43.5 78s-15.5 60.667 -15.5 96c0 58.667 12.167 113 36.5 163s57 93.167 98 129.5s88.833 64.833 143.5 85.5s112 31 172 31c50.667 0 94.167 -6.33301 130.5 -19s66 -29.167 89 -49.5
s40 -43.5 51 -69.5s16.5 -52.333 16.5 -79c0 -30 -5.33301 -57.5 -16 -82.5s-23.667 -47 -39 -66s-31.5 -35 -48.5 -48s-32.167 -22.5 -45.5 -28.5l-23 29c12.667 17.333 24 41.333 34 72s15 62.667 15 96c0 23.333 -3 46.166 -9 68.499s-16.667 42 -32 59
s-36.333 30.667 -63 41s-60.334 15.5 -101.001 15.5s-80.667 -6.16699 -120 -18.5s-74.333 -30 -105 -53s-55.334 -51.167 -74.001 -84.5s-28 -70.666 -28 -111.999c0 -42.667 9 -80.334 27 -113.001s41.5 -62.334 70.5 -89.001s62.167 -50.834 99.5 -72.501l114.5 -63.5
l115 -62.5c37.667 -21 71 -43.833 100 -68.5s52.5 -52 70.5 -82s27 -64.333 27 -103c0 -34 -6.16699 -66.833 -18.5 -98.5s-29.833 -60.167 -52.5 -85.5c22.667 -25.333 40.167 -53.833 52.5 -85.5s18.5 -68.167 18.5 -109.5c0 -42.667 -9.83301 -83.167 -29.5 -121.5
s-46.5 -72 -80.5 -101s-74.167 -52 -120.5 -69s-96.166 -25.5 -149.499 -25.5c-61.333 0 -112.333 6.33301 -153 19s-73 28.667 -97 48s-41 40.333 -51 63s-15 43.667 -15 63c0 36.667 8.5 68.5 25.5 95.5s37.667 49.667 62 68s50 32.666 77 42.999
s50.167 17.166 69.5 20.499l8 -41c-6 -2 -14.5 -6.66699 -25.5 -14s-22 -17.5 -33 -30.5s-20.5 -28.667 -28.5 -47s-12 -39.166 -12 -62.499c0 -27.333 4.83301 -51.833 14.5 -73.5s23 -40 40 -55s36.667 -26.333 59 -34s46.166 -11.5 71.499 -11.5
c29.333 0 59.666 4.33301 90.999 13s60 21.834 86 39.501s47.333 40 64 67s25 58.833 25 95.5c0 42 -8.66699 78.833 -26 110.5s-40.166 60.167 -68.499 85.5s-60.5 48 -96.5 68s-73 39.5 -111 58.5l-111 57.5c-36 19.333 -68.167 40.666 -96.5 63.999
s-51.166 49.666 -68.499 78.999s-26 63.333 -26 102zM215.001 983.005c0 -38.667 7.83301 -72.668 23.5 -102.001s36.667 -55.833 63 -79.5s56.5 -45.167 90.5 -64.5s69.167 -38.333 105.5 -57l108.5 -56.5c36 -19 69 -39.833 99 -62.5c8 20.667 12 42 12 64
c0 36.667 -8.16699 69 -24.5 97s-38 53.167 -65 75.5s-57.833 42.833 -92.5 61.5l-107 56.5c-36.667 19 -72.667 39 -108 60s-67 44.833 -95 71.5c-3.33301 -10.667 -5.83301 -21.167 -7.5 -31.5s-2.5 -21.166 -2.5 -32.499z" />
    <glyph glyph-name="dieresis" unicode="&#xa8;" horiz-adv-x="430" 
d="M164 1065c0 -23.333 -7.83301 -42.833 -23.5 -58.5s-35.167 -23.5 -58.5 -23.5c-22.667 0 -42 7.83301 -58 23.5s-24 35.167 -24 58.5c0 22.667 8 42 24 58s35.333 24 58 24c23.333 0 42.833 -8 58.5 -24s23.5 -35.333 23.5 -58zM430 1065
c0 -23.333 -7.83301 -42.833 -23.5 -58.5s-35.167 -23.5 -58.5 -23.5c-22.667 0 -42 7.83301 -58 23.5s-24 35.167 -24 58.5c0 22.667 8 42 24 58s35.333 24 58 24c23.333 0 42.833 -8 58.5 -24s23.5 -35.333 23.5 -58z" />
    <glyph glyph-name="copyright" unicode="&#xa9;" horiz-adv-x="1393" 
d="M123 573c0 79.333 15 153.833 45 223.5s70.833 130.5 122.5 182.5s112.334 93 182.001 123s144.167 45 223.5 45s153.833 -15 223.5 -45s130.5 -71 182.5 -123s93 -112.833 123 -182.5s45 -144.167 45 -223.5s-15 -153.833 -45 -223.5s-71 -130.334 -123 -182.001
s-112.833 -92.5 -182.5 -122.5s-144.167 -45 -223.5 -45s-153.833 15 -223.5 45s-130.334 70.833 -182.001 122.5s-92.5 112.334 -122.5 182.001s-45 144.167 -45 223.5zM184 573c0 -70 13.5 -136 40.5 -198s63.833 -116.333 110.5 -163s101 -83.5 163 -110.5
s128 -40.5 198 -40.5s136.167 13.5 198.5 40.5s116.666 63.833 162.999 110.5s83 101 110 163s40.5 128 40.5 198s-13.5 136.167 -40.5 198.5s-63.667 116.666 -110 162.999s-100.666 83 -162.999 110s-128.5 40.5 -198.5 40.5s-136 -13.5 -198 -40.5
s-116.333 -63.667 -163 -110s-83.5 -100.666 -110.5 -162.999s-40.5 -128.5 -40.5 -198.5zM1030 461c-16 -33.333 -35.165 -65.8359 -57.498 -97.5029s-47.5 -60 -75.5 -85s-59 -45.167 -93 -60.5s-71.333 -23 -112 -23c-50 0 -93.667 10.167 -131 30.5
s-68.5 47.5 -93.5 81.5s-43.667 72.833 -56 116.5s-18.5 88.834 -18.5 135.501c0 50.667 7.83301 100.834 23.5 150.501s38 94 67 133s64.167 70.5 105.5 94.5s88 36 140 36c30.667 0 57.5 -4.33301 80.5 -13s42 -19.667 57 -33s26.167 -27.666 33.5 -42.999s11 -30 11 -44
c0 -14.667 -3 -29.334 -9 -44.001s-14.833 -28.5 -26.5 -41.5s-25.5 -24.667 -41.5 -35s-34 -18.166 -54 -23.499l-10 29c11.333 17.333 19.5 37.333 24.5 60s5.5 44.167 1.5 64.5s-13.167 37.5 -27.5 51.5s-34.833 21 -61.5 21c-25.333 0 -48 -7.33301 -68 -22
s-37 -35.167 -51 -61.5s-24.667 -57.833 -32 -94.5s-11 -77 -11 -121c0 -39.333 4 -77.833 12 -115.5s20.667 -71.334 38 -101.001s39.166 -53.667 65.499 -72s58.166 -27.5 95.499 -27.5c30 0 57.5 6.33301 82.5 19s47.167 28.334 66.5 47.001s36 38.5 50 59.5
s25.333 39.833 34 56.5z" />
    <glyph glyph-name="ordfeminine" unicode="&#xaa;" horiz-adv-x="737" 
d="M655 897c-8 -14.667 -17.3359 -27.6689 -28.0029 -39.002c-9.33301 -10 -20 -19 -32 -27s-25.333 -12 -40 -12c-33.333 0 -56.5 12.333 -69.5 37s-21.167 60.334 -24.5 107.001c-5.33301 -13.333 -13.666 -28.166 -24.999 -44.499s-25 -32 -41 -47s-34 -27.5 -54 -37.5
s-41.667 -15 -65 -15c-25.333 0 -49.666 5.16699 -72.999 15.5s-44 26.166 -62 47.499s-32.333 48.333 -43 81s-16 71.334 -16 116.001c0 51.333 6.83301 98.5 20.5 141.5s31.834 80 54.501 111s49 55.167 79 72.5s61.333 26 94 26c28 0 51.5 -5.16699 70.5 -15.5
s34.5 -21.833 46.5 -34.5c14 -14.667 25.333 -31 34 -49l6 47c1.33301 10 5.33301 18.333 12 25s14.334 12 23.001 16s17.334 6.83301 26.001 8.5s15.667 2.5 21 2.5c9.33301 0 15.833 -2.16699 19.5 -6.5s5.5 -11.166 5.5 -20.499c0 -6 -1.83301 -21.667 -5.5 -47
s-7.66699 -56.333 -12 -93s-8.33301 -77.5 -12 -122.5s-5.5 -90.5 -5.5 -136.5c0 -31.333 3 -55.333 9 -72s14.667 -25 26 -25c7.33301 0 13.666 2.16699 18.999 6.5s10.666 9.16602 15.999 14.499zM470.997 1196c0 22 -3.16504 43.3291 -9.49805 63.9961s-15 39 -26 55
s-23.833 28.833 -38.5 38.5s-30.334 14.5 -47.001 14.5c-20.667 0 -39.834 -5.66699 -57.501 -17s-33 -27.166 -46 -47.499s-23.167 -44.833 -30.5 -73.5s-11 -60.334 -11 -95.001c0 -69.333 11.167 -122.166 33.5 -158.499s51.5 -54.5 87.5 -54.5
c16 0 32.667 6.33301 50 19s33 30.834 47 54.501s25.5 52.334 34.5 86.001s13.5 71.834 13.5 114.501z" />
    <glyph glyph-name="guillemotleft" unicode="&#xab;" horiz-adv-x="1116" 
d="M778 51l-41 -51l-614 461l614 461l41 -52l-461 -409zM993 51l-41 -51l-514 461l514 461l41 -52l-389 -409z" />
    <glyph glyph-name="sfthyphen" unicode="&#xad;" horiz-adv-x="737" 
d="M123 614h491v-82h-491v82z" />
    <glyph glyph-name="registered" unicode="&#xae;" horiz-adv-x="922" 
d="M123 1157c0 46.667 8.83301 90.5 26.5 131.5s41.834 76.833 72.501 107.5s66.5 54.834 107.5 72.501s84.833 26.5 131.5 26.5s90.5 -8.83301 131.5 -26.5s76.833 -41.834 107.5 -72.501s54.834 -66.5 72.501 -107.5s26.5 -84.833 26.5 -131.5
s-8.83301 -90.5 -26.5 -131.5s-41.834 -76.833 -72.501 -107.5s-66.5 -54.834 -107.5 -72.501s-84.833 -26.5 -131.5 -26.5s-90.5 8.83301 -131.5 26.5s-76.833 41.834 -107.5 72.501s-54.834 66.5 -72.501 107.5s-26.5 84.833 -26.5 131.5zM184 1157
c0 -38 7.33301 -73.667 22 -107s34.5 -62.5 59.5 -87.5s54.333 -44.833 88 -59.5s69.5 -22 107.5 -22s73.667 7.33301 107 22s62.5 34.5 87.5 59.5s44.833 54.167 59.5 87.5s22 69 22 107s-7.33301 73.833 -22 107.5s-34.5 63 -59.5 88s-54.167 44.833 -87.5 59.5
s-69 22 -107 22s-73.833 -7.33301 -107.5 -22s-63 -34.5 -88 -59.5s-44.833 -54.333 -59.5 -88s-22 -69.5 -22 -107.5zM471 1122h-76v-164h-61v390h164c15.333 0 29.833 -3 43.5 -9s25.5 -14.167 35.5 -24.5s18 -22.333 24 -36s9 -28.167 9 -43.5
c0 -24.667 -6.83301 -46.5 -20.5 -65.5s-31.167 -32.833 -52.5 -41.5l84 -141l-52 -31zM395 1286v-101.998h103c13.333 0 25.166 5.16699 35.499 15.5s15.5 22.166 15.5 35.499s-5.16699 25.166 -15.5 35.499s-22.166 15.5 -35.499 15.5h-103z" />
    <glyph glyph-name="macron" unicode="&#xaf;" horiz-adv-x="510" 
d="M492 1106c2.66699 0 5.33496 -2 8.00195 -6s4.83398 -9 6.50098 -15s3 -12.5 4 -19.5s1.5 -13.167 1.5 -18.5c0 -11.333 -6.83301 -18.666 -20.5 -21.999s-28.834 -5 -45.501 -5c-55.333 0 -109.833 1 -163.5 3s-107.5 3 -161.5 3h-51
c-16.667 0 -33.334 -0.666992 -50.001 -2c-3.33301 0 -6.33301 2.16699 -9 6.5s-4.83398 9.5 -6.50098 15.5s-2.83398 12.333 -3.50098 19s-1 12.667 -1 18c0 11.333 6.83301 18.666 20.5 21.999s28.834 5 45.501 5c55.333 0 109.833 -1 163.5 -3s107.5 -3 161.5 -3h50.5
c17 0 33.833 0.666992 50.5 2z" />
    <glyph glyph-name="degree" unicode="&#xb0;" horiz-adv-x="594" 
d="M123 1331c0 24 4.5 46.5 13.5 67.5s21.5 39.5 37.5 55.5s34.5 28.5 55.5 37.5s43.5 13.5 67.5 13.5s46.5 -4.5 67.5 -13.5s39.5 -21.5 55.5 -37.5s28.5 -34.5 37.5 -55.5s13.5 -43.5 13.5 -67.5s-4.5 -46.5 -13.5 -67.5s-21.5 -39.5 -37.5 -55.5s-34.5 -28.5 -55.5 -37.5
s-43.5 -13.5 -67.5 -13.5s-46.5 4.5 -67.5 13.5s-39.5 21.5 -55.5 37.5s-28.5 34.5 -37.5 55.5s-13.5 43.5 -13.5 67.5zM184 1331c0 -15.333 3 -29.833 9 -43.5s14.167 -25.5 24.5 -35.5s22.333 -18 36 -24s28.167 -9 43.5 -9s29.833 3 43.5 9s25.667 14 36 24
s18.5 21.833 24.5 35.5s9 28.167 9 43.5s-3 29.833 -9 43.5s-14.167 25.667 -24.5 36s-22.333 18.5 -36 24.5s-28.167 9 -43.5 9s-29.833 -3 -43.5 -9s-25.667 -14.167 -36 -24.5s-18.5 -22.333 -24.5 -36s-9 -28.167 -9 -43.5z" />
    <glyph glyph-name="plusminus" unicode="&#xb1;" horiz-adv-x="840" 
d="M461 931v-256h246v-82h-246v-266h-92v266h-246v82h246v256h92zM114 246h604v-82h-604v82z" />
    <glyph glyph-name="twosuperior" unicode="&#xb2;" horiz-adv-x="584" 
d="M82 942c0 48.667 7.66797 91.1641 23.001 127.497s34.166 68.666 56.499 96.999s46.5 53.833 72.5 76.5s50.167 44.834 72.5 66.501s41 43.834 56 66.501s22.5 48.667 22.5 78c0 16.667 -2.66699 30.334 -8 41.001s-12.5 19 -21.5 25s-19 10.167 -30 12.5
s-22.5 3.5 -34.5 3.5s-24.167 -1.33301 -36.5 -4s-23.166 -7.16699 -32.499 -13.5s-17 -14.833 -23 -25.5s-9 -23.667 -9 -39c0 -20.667 5 -36.334 15 -47.001s23.667 -16 41 -16v-39c-8.66699 -5.33301 -18.667 -9.83301 -30 -13.5s-22.666 -5.5 -33.999 -5.5
s-22.333 1.66699 -33 5s-20.334 8.5 -29.001 15.5s-15.5 16.333 -20.5 28s-7.5 25.5 -7.5 41.5c0 26 5.83301 48.667 17.5 68s26.834 35.333 45.501 48s39.834 22.167 63.501 28.5s47.834 9.5 72.501 9.5c23.333 0 46.166 -2.83301 68.499 -8.5s42.166 -14.667 59.499 -27
s31.333 -28.166 42 -47.499s16 -43 16 -71c0 -34 -6.66699 -62.167 -20 -84.5s-30.333 -41.833 -51 -58.5s-43.667 -31.667 -69 -45s-50.333 -28 -75 -44s-47.334 -34.667 -68.001 -56s-36.334 -48 -47.001 -80c4.66699 6 14.667 11.833 30 17.5s30.666 8.5 45.999 8.5
c18.667 0 35.834 -2 51.501 -6s30.834 -8.16699 45.501 -12.5l43.5 -12.5c14.333 -4 29.166 -6 44.499 -6c10 0 19.333 1.5 28 4.5s16.334 6.5 23.001 10.5c7.33301 4.66699 14 10 20 16l23 -22c-8 -14.667 -16.167 -28.667 -24.5 -42s-17 -25.166 -26 -35.499
s-18.833 -18.5 -29.5 -24.5s-22.334 -9 -35.001 -9c-19.333 0 -37.833 3.33301 -55.5 10s-34.667 14 -51 22l-46.5 22c-14.667 6.66699 -28.334 10 -41.001 10c-13.333 0 -24.333 -3 -33 -9s-15.667 -12.667 -21 -20s-9.16602 -14.5 -11.499 -21.5l-4.5 -13.5h-41z" />
    <glyph glyph-name="threesuperior" unicode="&#xb3;" horiz-adv-x="584" 
d="M236 1280c36 19.333 65.3291 44.9971 87.9961 76.9971s34 71.333 34 118c0 50 -22.333 75 -67 75c-11.333 0 -22.333 -1.83301 -33 -5.5s-20.334 -9.33398 -29.001 -17.001s-15.5 -17.167 -20.5 -28.5s-7.5 -24.333 -7.5 -39c0 -13.333 2.33301 -25 7 -35
s10 -18.333 16 -25c7.33301 -7.33301 15.333 -14 24 -20l-8 -18c-32 7.33301 -58.833 19.333 -80.5 36s-32.5 35.334 -32.5 56.001s5.5 39.167 16.5 55.5s25.5 30.166 43.5 41.499s38.333 19.833 61 25.5s45.667 8.5 69 8.5c18.667 0 36.834 -2.16699 54.501 -6.5
s33.334 -10.666 47.001 -18.999s24.5 -19 32.5 -32s12 -28.5 12 -46.5c0 -22 -5.66699 -43.167 -17 -63.5s-24.333 -38.666 -39 -54.999s-29.167 -30.5 -43.5 -42.5s-24.166 -20.667 -29.499 -26c20.667 -3.33301 41 -9.66602 61 -18.999s38 -21.166 54 -35.499
s28.833 -31.166 38.5 -50.499s14.5 -41 14.5 -65c0 -34.667 -6.5 -64.334 -19.5 -89.001s-29.667 -44.667 -50 -60s-43.333 -26.666 -69 -33.999s-51.167 -11 -76.5 -11c-30.667 0 -58.667 3.83301 -84 11.5s-47 18.5 -65 32.5s-31.833 31 -41.5 51s-14.5 42.333 -14.5 67
c0 23.333 6.5 44.166 19.5 62.499s27.5 32.166 43.5 41.499l33 -16c-6 -13.333 -10.167 -26.5 -12.5 -39.5s-3.5 -26.5 -3.5 -40.5c0 -23.333 3.33301 -43.166 10 -59.499s15.667 -29.833 27 -40.5s24 -18.5 38 -23.5s28.667 -7.5 44 -7.5s29.5 2.5 42.5 7.5
s24.333 13 34 24s17.334 25.333 23.001 43s8.5 39.167 8.5 64.5c0 20 -2.33301 39.167 -7 57.5s-12.667 34.5 -24 48.5s-26.166 25.167 -44.499 33.5s-40.833 12.5 -67.5 12.5z" />
    <glyph glyph-name="acute" unicode="&#xb4;" horiz-adv-x="297" 
d="M0 971l193 200l104 -102l-270 -141z" />
    <glyph glyph-name="mu" unicode="&#xb5;" 
d="M410 217c-8.66699 -27.333 -19.999 -53.832 -33.999 -79.499s-30 -48.834 -48 -69.501s-37.333 -37.167 -58 -49.5s-42.334 -18.5 -65.001 -18.5c-8.66699 0 -17.334 1.16699 -26.001 3.5s-16.834 5.16602 -24.501 8.49902s-14.167 7 -19.5 11s-9.33301 8 -12 12
c-2 -74.667 -3.83301 -154 -5.5 -238s-2.5 -168.667 -2.5 -254c0 -12.667 -4.5 -23.5 -13.5 -32.5s-19.5 -16.333 -31.5 -22s-24.333 -9.83398 -37 -12.501s-23 -4 -31 -4c-10 0 -19.333 3 -28 9s-13 19.333 -13 40c0 10 0.666992 22.5 2 37.5s3.33301 31.167 6 48.5l8.5 53
c3 18 6.5 35 10.5 51c0 133.333 0.333008 251.833 1 355.5s1.66699 194.5 3 272.5s2.83301 144.333 4.5 199s3.33398 99.5 5.00098 134.5s3.5 61.333 5.5 79s3.66699 28.5 5 32.5c2.66699 6 8.16699 11.333 16.5 16s17.666 8.33398 27.999 11.001s21 4.66699 32 6
s20.5 2 28.5 2c10 0 18.333 -2.66699 25 -8s10 -14.333 10 -27c0 -9.33301 -0.833008 -26.666 -2.5 -51.999s-3.66699 -57.833 -6 -97.5s-4.33301 -85.334 -6 -137.001s-2.5 -108.167 -2.5 -169.5c0 -37.333 2.5 -69.666 7.5 -96.999s11.833 -49.666 20.5 -66.999
s18.834 -30.166 30.501 -38.499s24.167 -12.5 37.5 -12.5c16.667 0 33.834 6 51.501 18s34.667 29.167 51 51.5s31.333 49.666 45 81.999s24.834 69.166 33.501 110.499c3.33301 36 6.5 74.5 9.5 115.5l8.5 117c2.66699 37 5.16699 70.167 7.5 99.5s4.5 50.333 6.5 63
c2 9.33301 7.33301 17.166 16 23.499s18.5 11.333 29.5 15s21.667 6.33398 32 8.00098s18.166 2.5 23.499 2.5c11.333 0 19.166 -2.5 23.499 -7.5s6.5 -12.833 6.5 -23.5c0 -9.33301 -0.833008 -27.166 -2.5 -53.499l-6 -92l-7.5 -112.5l-7.5 -115.5
c-2.33301 -37 -4.33301 -70.5 -6 -100.5s-2.5 -52.667 -2.5 -68c0 -45.333 2.5 -81 7.5 -107s16.167 -39 33.5 -39c12.667 0 26.5 8.16699 41.5 24.5s31.333 39.166 49 68.499s36.834 64.166 57.501 104.499l67 132.5l10 21l41 -31l-10 -21l-84.5 -169.5
c-24.333 -49.667 -47.5 -91.5 -69.5 -125.5s-44.333 -59.833 -67 -77.5s-48 -26.5 -76 -26.5c-26 0 -47.5 5 -64.5 15s-30.5 24.333 -40.5 43s-17.167 41.334 -21.5 68.001s-6.5 57 -6.5 91z" />
    <glyph glyph-name="paragraph" unicode="&#xb6;" horiz-adv-x="1544" 
d="M1146 1452l41.0029 -30.999c-14.667 -20 -27.667 -42.333 -39 -67s-21 -54.5 -29 -89.5s-14 -77.167 -18 -126.5s-6 -108.333 -6 -177v-756c0 -56 -0.833008 -104.833 -2.5 -146.5s-5.66699 -78.667 -12 -111s-15.833 -61.333 -28.5 -87s-29.667 -50.834 -51 -75.501
c-37.333 -42 -89.666 -76.333 -156.999 -103s-147.333 -40 -240 -40c-57.333 0 -112 8 -164 24s-97.667 38.333 -137 67s-70.666 63 -93.999 103s-35 84.333 -35 133c0 36 5.83301 68.333 17.5 97s26.667 54 45 76s38.666 41.167 60.999 57.5s44.166 29.833 65.499 40.5
s40.666 18.834 57.999 24.501s30.333 9.5 39 11.5l21 -40c-15.333 -8 -32.5 -18.833 -51.5 -32.5s-36.833 -31 -53.5 -52s-30.667 -46.5 -42 -76.5s-17 -65.333 -17 -106c0 -43.333 7.33301 -82.166 22 -116.499s35.167 -63.333 61.5 -87s57.666 -41.667 93.999 -54
s76.166 -18.5 119.499 -18.5c48.667 0 93 6.66699 133 20s74.5 35.666 103.5 66.999s51.5 72.833 67.5 124.5s24 116.167 24 193.5v723c0 53.333 1.16699 104.166 3.5 152.499s8.5 95.333 18.5 141s25.333 90 46 133s49 85.833 85 128.5zM1126 1546
c-23.333 0 -50.498 0.998047 -81.498 2.99805s-63.667 4.5 -98 7.5s-69.333 6.33301 -105 10s-70.167 7 -103.5 10s-64.166 5.5 -92.499 7.5s-52.5 3 -72.5 3c-61.333 0 -116 -12.667 -164 -38s-88.5 -58.666 -121.5 -99.999s-58.167 -88 -75.5 -140s-26 -104.667 -26 -158
c0 -47.333 7.33301 -93.5 22 -138.5s37 -84.833 67 -119.5s68 -62.5 114 -83.5s100.333 -31.5 163 -31.5c59.333 0 113.166 4.33301 161.499 13s90.5 18.334 126.5 29.001c41.333 12 78.666 26 111.999 42v-53c-33.333 -15.333 -70.666 -29 -111.999 -41
c-36 -10.667 -78.167 -20.167 -126.5 -28.5s-102.166 -12.5 -161.499 -12.5c-93.333 0 -174.5 13.167 -243.5 39.5s-126.333 61.333 -172 105s-79.834 93.334 -102.501 149.001s-34 112.834 -34 171.501c0 60.667 12 120.167 36 178.5s59.5 110.333 106.5 156
s105.667 82.5 176 110.5s151.833 42 244.5 42c30.667 0 65.667 -1 105 -3s80.166 -4.66699 122.499 -8l127 -10.5l117.5 -10.5c36 -3.33301 67.333 -6 94 -8s46 -3 58 -3c13.333 0 28.833 0.666992 46.5 2s35.834 3.66602 54.501 6.99902s37.167 7.66602 55.5 12.999
s34.5 11.666 48.5 18.999l41 -30c-14.667 -20 -27.667 -42.333 -39 -67s-21 -54.667 -29 -90s-14 -77.666 -18 -126.999s-6 -108.333 -6 -177v-1043c0 -56 -0.833008 -103.833 -2.5 -143.5s-5.66699 -74.334 -12 -104.001s-15.833 -56.167 -28.5 -79.5
s-29.667 -47.333 -51 -72c-28 -32 -65 -59.667 -111 -83s-100 -40 -162 -50l-10 53c34 13.333 64.667 31.333 92 54s50.666 49.834 69.999 81.501s34.333 67.334 45 107.001s16 83.167 16 130.5v1010c0 53.333 1.16699 104.166 3.5 152.499s8.66602 95.333 18.999 141
s25.833 90 46.5 133s49 85.833 85 128.5c-34 -21.333 -69 -36 -105 -44s-72.667 -12 -110 -12z" />
    <glyph glyph-name="periodcentered" unicode="&#xb7;" horiz-adv-x="430" 
d="M123 543c0 12.667 2.33301 24.667 7 36s11.167 21.166 19.5 29.499s18.166 14.833 29.499 19.5s23.333 7 36 7s24.667 -2.33301 36 -7s21.166 -11.167 29.499 -19.5s14.833 -18.166 19.5 -29.499s7 -23.333 7 -36s-2.33301 -24.667 -7 -36s-11.167 -21.166 -19.5 -29.499
s-18.166 -14.833 -29.499 -19.5s-23.333 -7 -36 -7s-24.667 2.33301 -36 7s-21.166 11.167 -29.499 19.5s-14.833 18.166 -19.5 29.499s-7 23.333 -7 36z" />
    <glyph glyph-name="cedilla" unicode="&#xb8;" horiz-adv-x="256" 
d="M41 12l51 -0.00292969v-37c56 0 97.333 -7.66699 124 -23s40 -35.666 40 -60.999c0 -14.667 -5.16699 -30.667 -15.5 -48s-25.5 -34.666 -45.5 -51.999s-45.167 -33.666 -75.5 -48.999s-65.5 -28.333 -105.5 -39l-14 47c54.667 19.333 94 37.333 118 54s36 30 36 40
c0 11.333 -10 20.333 -30 27s-47.667 10 -83 10v131z" />
    <glyph glyph-name="onesuperior" unicode="&#xb9;" horiz-adv-x="328" 
d="M31 1368c20.667 17.333 38.3291 34.333 52.9961 51s27.334 33.5 38.001 50.5s19.667 34.333 27 52s14.333 36.167 21 55.5h74c1.33301 -21.333 2.33301 -48.5 3 -81.5s1 -69.5 1 -109.5c0 -36 -0.333008 -73.5 -1 -112.5s-1.5 -78 -2.5 -117
s-2.16699 -76.833 -3.5 -113.5s-3 -70.334 -5 -101.001h-93c0.666992 14 1.33398 31.667 2.00098 53s1.33398 44.5 2.00098 69.5s1.33398 51.333 2.00098 79s1 54.834 1 81.501c0 43.333 -0.666992 79.666 -2 108.999s-3 54.333 -5 75
c-6.66699 -9.33301 -14.667 -18.333 -24 -27c-8 -7.33301 -17.667 -15.666 -29 -24.999s-24.333 -18 -39 -26z" />
    <glyph glyph-name="ordmasculine" unicode="&#xba;" horiz-adv-x="666" 
d="M256 1239c10 56.667 26.166 99.832 48.499 129.499s50.5 44.5 84.5 44.5c27.333 0 52.833 -6.5 76.5 -19.5s44.334 -31.167 62.001 -54.5s31.5 -51.333 41.5 -84s15 -68.667 15 -108c0 -41.333 -5.66699 -81.5 -17 -120.5s-27.5 -74 -48.5 -105
s-46.667 -55.833 -77 -74.5s-64.833 -28 -103.5 -28s-73.667 7.83301 -105 23.5s-58.166 36.834 -80.499 63.501s-39.666 58 -51.999 94s-18.5 74.667 -18.5 116c0 36 4.16699 68.667 12.5 98s18.833 55.666 31.5 78.999s26.834 43.5 42.501 60.5s31.167 31.167 46.5 42.5
s29.166 19.833 41.499 25.5s21.833 8.5 28.5 8.5l8 -25c-16.667 -10.667 -31.334 -28 -44.001 -52c-11.333 -21.333 -21.5 -50.666 -30.5 -87.999s-13.5 -87 -13.5 -149c0 -33.333 2.5 -64.833 7.5 -94.5s12.667 -55.834 23 -78.501s23.166 -40.5 38.499 -53.5
s33.333 -19.5 54 -19.5c18 0 35.5 6.66699 52.5 20s32.167 33 45.5 59s24.166 58.167 32.499 96.5s12.5 82.5 12.5 132.5c0 26.667 -2.5 50.834 -7.5 72.501s-11.667 40 -20 55s-18.166 26.5 -29.499 34.5s-23 12 -35 12c-20.667 0 -37.167 -11 -49.5 -33
s-22.5 -52.667 -30.5 -92z" />
    <glyph glyph-name="guillemotright" unicode="&#xbb;" horiz-adv-x="1116" 
d="M799 461l-461 409l41 52l614 -461l-614 -461l-41 51zM512 461l-389 409l41 52l514 -461l-514 -461l-41 51z" />
    <glyph glyph-name="onequarter" unicode="&#xbc;" horiz-adv-x="717" 
d="M133 233c48 42 86.165 82.501 114.498 121.501s50 75.667 65 110s24.667 66 29 95s6.5 54.167 6.5 75.5h103c0 -38 -8.83301 -75.5 -26.5 -112.5s-39 -72.167 -64 -105.5s-50.833 -64 -77.5 -92l-66 -71h12c18.667 0 36 -3 52 -9s31.167 -12.833 45.5 -20.5l42.5 -23
c14 -7.66699 28.333 -13.5 43 -17.5c1.33301 33.333 2 68 2 104v111l92 19c0 -28 -0.166992 -62.833 -0.5 -104.5s-1.5 -85.5 -3.5 -131.5c7.33301 1.33301 14.666 3.16602 21.999 5.49902s13.666 4.83301 18.999 7.5l10 -31c-7.33301 -6 -15.666 -11.333 -24.999 -16
s-18.666 -7.66699 -27.999 -9c0 -26.667 -0.666992 -50.167 -2 -70.5s-2.66602 -43.166 -3.99902 -68.499h-93c2.66699 25.333 4.5 48 5.5 68l3.5 71c-15.333 4 -30.166 10.167 -44.499 18.5l-43.5 25c-14.667 8.33301 -30.167 15.5 -46.5 21.5s-34.5 9 -54.5 9
c-17.333 0 -32.5 -3.33301 -45.5 -10s-21.5 -12.334 -25.5 -17.001zM122.998 778.001h471v-51h-471v51zM214.998 1286c20.667 17.333 38.3291 34.333 52.9961 51s27.334 33.5 38.001 50.5s19.667 34.333 27 52s14.333 36.167 21 55.5h74
c1.33301 -21.333 2.33301 -48.5 3 -81.5s1 -69.5 1 -109.5c0 -36 -0.333008 -73.5 -1 -112.5s-1.5 -78 -2.5 -117s-2.16699 -76.833 -3.5 -113.5s-3 -70.334 -5 -101.001h-93c0.666992 14 1.33398 31.667 2.00098 53s1.33398 44.5 2.00098 69.5s1.33398 51.333 2.00098 79
s1 54.834 1 81.501c0 43.333 -0.666992 79.666 -2 108.999s-3 54.333 -5 75c-6.66699 -9.33301 -14.667 -18.333 -24 -27c-8 -7.33301 -17.667 -15.666 -29 -24.999s-24.333 -18 -39 -26z" />
    <glyph glyph-name="onehalf" unicode="&#xbd;" horiz-adv-x="717" 
d="M209 1287c20.667 17.333 38.3291 34.333 52.9961 51s27.334 33.5 38.001 50.5s19.667 34.333 27 52s14.333 36.167 21 55.5h74c1.33301 -21.333 2.33301 -48.5 3 -81.5s1 -69.5 1 -109.5c0 -36 -0.333008 -73.5 -1 -112.5s-1.5 -78 -2.5 -117
s-2.16699 -76.833 -3.5 -113.5s-3 -70.334 -5 -101.001h-93c0.666992 14 1.33398 31.667 2.00098 53s1.33398 44.5 2.00098 69.5s1.33398 51.333 2.00098 79s1 54.834 1 81.501c0 43.333 -0.666992 79.666 -2 108.999s-3 54.333 -5 75
c-6.66699 -9.33301 -14.667 -18.333 -24 -27c-8 -7.33301 -17.667 -15.666 -29 -24.999s-24.333 -18 -39 -26zM167.995 1c0 48.667 7.66797 91.1641 23.001 127.497s34.166 68.666 56.499 96.999s46.5 53.833 72.5 76.5s50.167 44.834 72.5 66.501s41 43.834 56 66.501
s22.5 48.667 22.5 78c0 16.667 -2.66699 30.334 -8 41.001s-12.5 19 -21.5 25s-19 10.167 -30 12.5s-22.5 3.5 -34.5 3.5s-24.167 -1.33301 -36.5 -4s-23.166 -7.16699 -32.499 -13.5s-17 -14.833 -23 -25.5s-9 -23.667 -9 -39c0 -20.667 5 -36.334 15 -47.001
s23.667 -16 41 -16v-39c-8.66699 -5.33301 -18.667 -9.83301 -30 -13.5s-22.666 -5.5 -33.999 -5.5s-22.333 1.66699 -33 5s-20.334 8.5 -29.001 15.5s-15.5 16.333 -20.5 28s-7.5 25.5 -7.5 41.5c0 26 5.83301 48.667 17.5 68s26.834 35.333 45.501 48
s39.834 22.167 63.501 28.5s47.834 9.5 72.501 9.5c23.333 0 46.166 -2.83301 68.499 -8.5s42.166 -14.667 59.499 -27s31.333 -28.166 42 -47.499s16 -43 16 -71c0 -34 -6.66699 -62.167 -20 -84.5s-30.333 -41.833 -51 -58.5s-43.667 -31.667 -69 -45s-50.333 -28 -75 -44
s-47.334 -34.667 -68.001 -56s-36.334 -48 -47.001 -80c4.66699 6 14.667 11.833 30 17.5s30.666 8.5 45.999 8.5c18.667 0 35.834 -2 51.501 -6s30.834 -8.16699 45.501 -12.5l43.5 -12.5c14.333 -4 29.166 -6 44.499 -6c10 0 19.333 1.5 28 4.5s16.334 6.5 23.001 10.5
c7.33301 4.66699 14 10 20 16l23 -22c-8 -14.667 -16.167 -28.667 -24.5 -42s-17 -25.166 -26 -35.499s-18.833 -18.5 -29.5 -24.5s-22.334 -9 -35.001 -9c-19.333 0 -37.833 3.33301 -55.5 10s-34.667 14 -51 22l-46.5 22c-14.667 6.66699 -28.334 10 -41.001 10
c-13.333 0 -24.333 -3 -33 -9s-15.667 -12.667 -21 -20s-9.16602 -14.5 -11.499 -21.5l-4.5 -13.5h-41zM122.996 777.997h471v-51h-471v51z" />
    <glyph glyph-name="threequarters" unicode="&#xbe;" horiz-adv-x="717" 
d="M133 233c48 42 86.165 82.501 114.498 121.501s50 75.667 65 110s24.667 66 29 95s6.5 54.167 6.5 75.5h103c0 -38 -8.83301 -75.5 -26.5 -112.5s-39 -72.167 -64 -105.5s-50.833 -64 -77.5 -92l-66 -71h12c18.667 0 36 -3 52 -9s31.167 -12.833 45.5 -20.5l42.5 -23
c14 -7.66699 28.333 -13.5 43 -17.5c1.33301 33.333 2 68 2 104v111l92 19c0 -28 -0.166992 -62.833 -0.5 -104.5s-1.5 -85.5 -3.5 -131.5c7.33301 1.33301 14.666 3.16602 21.999 5.49902s13.666 4.83301 18.999 7.5l10 -31c-7.33301 -6 -15.666 -11.333 -24.999 -16
s-18.666 -7.66699 -27.999 -9c0 -26.667 -0.666992 -50.167 -2 -70.5s-2.66602 -43.166 -3.99902 -68.499h-93c2.66699 25.333 4.5 48 5.5 68l3.5 71c-15.333 4 -30.166 10.167 -44.499 18.5l-43.5 25c-14.667 8.33301 -30.167 15.5 -46.5 21.5s-34.5 9 -54.5 9
c-17.333 0 -32.5 -3.33301 -45.5 -10s-21.5 -12.334 -25.5 -17.001zM122.998 778.001h471v-51h-471v51zM296.998 1188c36 19.333 65.3291 44.9971 87.9961 76.9971s34 71.333 34 118c0 50 -22.333 75 -67 75c-11.333 0 -22.333 -1.83301 -33 -5.5
s-20.334 -9.33398 -29.001 -17.001s-15.5 -17.167 -20.5 -28.5s-7.5 -24.333 -7.5 -39c0 -13.333 2.33301 -25 7 -35s10 -18.333 16 -25c7.33301 -7.33301 15.333 -14 24 -20l-8 -18c-32 7.33301 -58.833 19.333 -80.5 36s-32.5 35.334 -32.5 56.001s5.5 39.167 16.5 55.5
s25.5 30.166 43.5 41.499s38.333 19.833 61 25.5s45.667 8.5 69 8.5c18.667 0 36.834 -2.16699 54.501 -6.5s33.334 -10.666 47.001 -18.999s24.5 -19 32.5 -32s12 -28.5 12 -46.5c0 -22 -5.66699 -43.167 -17 -63.5s-24.333 -38.666 -39 -54.999s-29.167 -30.5 -43.5 -42.5
s-24.166 -20.667 -29.499 -26c20.667 -3.33301 41 -9.66602 61 -18.999s38 -21.166 54 -35.499s28.833 -31.166 38.5 -50.499s14.5 -41 14.5 -65c0 -34.667 -6.5 -64.334 -19.5 -89.001s-29.667 -44.667 -50 -60s-43.333 -26.666 -69 -33.999s-51.167 -11 -76.5 -11
c-30.667 0 -58.667 3.83301 -84 11.5s-47 18.5 -65 32.5s-31.833 31 -41.5 51s-14.5 42.333 -14.5 67c0 23.333 6.5 44.166 19.5 62.499s27.5 32.166 43.5 41.499l33 -16c-6 -13.333 -10.167 -26.5 -12.5 -39.5s-3.5 -26.5 -3.5 -40.5c0 -23.333 3.33301 -43.166 10 -59.499
s15.667 -29.833 27 -40.5s24 -18.5 38 -23.5s28.667 -7.5 44 -7.5s29.5 2.5 42.5 7.5s24.333 13 34 24s17.334 25.333 23.001 43s8.5 39.167 8.5 64.5c0 20 -2.33301 39.167 -7 57.5s-12.667 34.5 -24 48.5s-26.166 25.167 -44.499 33.5s-40.833 12.5 -67.5 12.5z" />
    <glyph glyph-name="questiondown" unicode="&#xbf;" horiz-adv-x="891" 
d="M473 803c0.666992 -9.33301 1.66895 -18.6621 3.00195 -27.9951c0.666992 -8 1.33398 -16.5 2.00098 -25.5s1 -17.167 1 -24.5c0 -75.333 -6.5 -139.833 -19.5 -193.5s-29.333 -100.167 -49 -139.5s-40.834 -72.833 -63.501 -100.5l-63.5 -76
c-19.667 -23 -36 -45.167 -49 -66.5s-19.5 -45 -19.5 -71c0 -28.667 6.5 -54.834 19.5 -78.501s30 -43.834 51 -60.501s45 -29.5 72 -38.5s54.5 -13.5 82.5 -13.5c26 0 51.167 4.33301 75.5 13s46.166 21.834 65.499 39.501s34.833 40.167 46.5 67.5
s17.5 59.666 17.5 96.999c0 35.333 -5.16699 66.166 -15.5 92.499s-21.5 48.166 -33.5 65.499s-23 30.166 -33 38.499s-14.667 12.5 -14 12.5l24 41l15 -4.5c10 -3 22.167 -8.16699 36.5 -15.5s29.833 -17 46.5 -29s32.167 -27.333 46.5 -46s26.333 -40.667 36 -66
s14.5 -55 14.5 -89c0 -40.667 -9.5 -76.834 -28.5 -108.501s-43.833 -58.167 -74.5 -79.5s-64.834 -37.666 -102.501 -48.999s-75.5 -17 -113.5 -17c-42.667 0 -83.667 6.5 -123 19.5s-74 32.333 -104 58s-54 57.334 -72 95.001s-27 81.5 -27 131.5
c0 30.667 7.5 59.167 22.5 85.5s33.833 52.666 56.5 78.999l73.5 82.5c26.333 28.667 50.833 61.167 73.5 97.5s41.5 77.5 56.5 123.5s22.5 99.333 22.5 160v21h45zM537.002 1085c0 -12.667 -2.33203 -24.668 -6.99902 -36.001s-11.334 -21.166 -20.001 -29.499
s-18.667 -14.833 -30 -19.5s-23.333 -7 -36 -7s-24.667 2.33301 -36 7s-21.166 11.167 -29.499 19.5s-14.833 18.166 -19.5 29.499s-7 23.333 -7 36s2.33301 24.667 7 36s11.167 21.333 19.5 30s18.166 15.334 29.499 20.001s23.333 7 36 7c26 0 48 -9 66 -27s27 -40 27 -66
z" />
    <glyph glyph-name="Agrave" unicode="&#xc0;" horiz-adv-x="1352" 
d="M969 358c0 -58.667 1.5 -105.001 4.5 -139.001s7.66699 -59.667 14 -77s14.5 -28.333 24.5 -33s21.667 -7 35 -7c18 0 36.667 5.66699 56 17s38.333 26 57 44s36.5 38 53.5 60s32.667 43.5 47 64.5s26.666 40.667 36.999 59l23.5 42.5l31 62l41 -31l-31 -62l-26 -48.5
c-12 -22.333 -27 -47 -45 -74s-38.333 -55 -61 -84s-47 -55.5 -73 -79.5s-53.333 -43.667 -82 -59s-58 -23 -88 -23c-27.333 0 -51.666 4.66699 -72.999 14s-39.333 25.833 -54 49.5s-25.834 56 -33.501 97s-11.5 93.167 -11.5 156.5c0 24.667 0.5 48.167 1.5 70.5
s2.5 49.5 4.5 81.5c-34 -66 -73.167 -129.667 -117.5 -191s-91.833 -115.666 -142.5 -162.999s-103.5 -85.166 -158.5 -113.499s-110.5 -42.5 -166.5 -42.5c-35.333 0 -69 6.33301 -101 19s-60.333 32.167 -85 58.5s-44.334 60.166 -59.001 101.499s-22 90.666 -22 147.999
c0 92 10.167 182.333 30.5 271s48.5 174.5 84.5 257.5s78.333 162.333 127 238s101 145.834 157 210.501s114.667 123.167 176 175.5s122.666 97.166 183.999 134.499s121.166 66 179.499 86s112.833 30 163.5 30c56 0 100.667 -14.167 134 -42.5s50 -68.5 50 -120.5
c0 -34.667 -6.83301 -68.5 -20.5 -101.5s-31.667 -64.667 -54 -95s-47.666 -59 -75.999 -86s-56.833 -51.333 -85.5 -73s-56.5 -40.667 -83.5 -57s-50.167 -29.166 -69.5 -38.499l-30 41c16.667 8.66699 35.834 20.667 57.501 36s43.5 33.333 65.5 54s43.5 43.5 64.5 68.5
s39.833 51.333 56.5 79s30 56.334 40 86.001s15 59.167 15 88.5c0 28.667 -7.5 52.5 -22.5 71.5s-39.167 28.5 -72.5 28.5c-39.333 0 -82 -10.167 -128 -30.5s-93.333 -49.166 -142 -86.499s-97.5 -81.833 -146.5 -133.5s-96.167 -108.667 -141.5 -171
s-87.5 -129 -126.5 -200s-73 -144.667 -102 -221s-51.833 -154 -68.5 -233s-25 -157.5 -25 -235.5c0 -36 2.66699 -69.167 8 -99.5s14 -56.333 26 -78s27.667 -38.5 47 -50.5s43.333 -18 72 -18c36 0 71.333 8.16699 106 24.5s68.334 38.5 101.001 66.5
s64.167 60.667 94.5 98s58.833 77.333 85.5 120s51.5 86.5 74.5 131.5s43.5 89.5 61.5 133.5c4.66699 50 10 97.833 16 143.5s12 86.5 18 122.5s11.667 65.833 17 89.5s10 38.167 14 43.5c2.66699 4.66699 8.33398 10 17.001 16s18.5 11.5 29.5 16.5s22.167 9.33301 33.5 13
s21 5.5 29 5.5c20 0 30 -10 30 -30c0 -18.667 -1.33301 -40.334 -4 -65.001s-6.33398 -50.334 -11.001 -77.001s-10.167 -53.5 -16.5 -80.5s-13.5 -51.833 -21.5 -74.5c-5.33301 -72.667 -9.66602 -142.5 -12.999 -209.5s-5 -130.5 -5 -190.5zM741 1751l-205 225l133 62
l113 -256z" />
    <glyph glyph-name="Aacute" unicode="&#xc1;" horiz-adv-x="1352" 
d="M969 358c0 -58.667 1.5 -105.001 4.5 -139.001s7.66699 -59.667 14 -77s14.5 -28.333 24.5 -33s21.667 -7 35 -7c18 0 36.667 5.66699 56 17s38.333 26 57 44s36.5 38 53.5 60s32.667 43.5 47 64.5s26.666 40.667 36.999 59l23.5 42.5l31 62l41 -31l-31 -62l-26 -48.5
c-12 -22.333 -27 -47 -45 -74s-38.333 -55 -61 -84s-47 -55.5 -73 -79.5s-53.333 -43.667 -82 -59s-58 -23 -88 -23c-27.333 0 -51.666 4.66699 -72.999 14s-39.333 25.833 -54 49.5s-25.834 56 -33.501 97s-11.5 93.167 -11.5 156.5c0 24.667 0.5 48.167 1.5 70.5
s2.5 49.5 4.5 81.5c-34 -66 -73.167 -129.667 -117.5 -191s-91.833 -115.666 -142.5 -162.999s-103.5 -85.166 -158.5 -113.499s-110.5 -42.5 -166.5 -42.5c-35.333 0 -69 6.33301 -101 19s-60.333 32.167 -85 58.5s-44.334 60.166 -59.001 101.499s-22 90.666 -22 147.999
c0 92 10.167 182.333 30.5 271s48.5 174.5 84.5 257.5s78.333 162.333 127 238s101 145.834 157 210.501s114.667 123.167 176 175.5s122.666 97.166 183.999 134.499s121.166 66 179.499 86s112.833 30 163.5 30c56 0 100.667 -14.167 134 -42.5s50 -68.5 50 -120.5
c0 -34.667 -6.83301 -68.5 -20.5 -101.5s-31.667 -64.667 -54 -95s-47.666 -59 -75.999 -86s-56.833 -51.333 -85.5 -73s-56.5 -40.667 -83.5 -57s-50.167 -29.166 -69.5 -38.499l-30 41c16.667 8.66699 35.834 20.667 57.501 36s43.5 33.333 65.5 54s43.5 43.5 64.5 68.5
s39.833 51.333 56.5 79s30 56.334 40 86.001s15 59.167 15 88.5c0 28.667 -7.5 52.5 -22.5 71.5s-39.167 28.5 -72.5 28.5c-39.333 0 -82 -10.167 -128 -30.5s-93.333 -49.166 -142 -86.499s-97.5 -81.833 -146.5 -133.5s-96.167 -108.667 -141.5 -171
s-87.5 -129 -126.5 -200s-73 -144.667 -102 -221s-51.833 -154 -68.5 -233s-25 -157.5 -25 -235.5c0 -36 2.66699 -69.167 8 -99.5s14 -56.333 26 -78s27.667 -38.5 47 -50.5s43.333 -18 72 -18c36 0 71.333 8.16699 106 24.5s68.334 38.5 101.001 66.5
s64.167 60.667 94.5 98s58.833 77.333 85.5 120s51.5 86.5 74.5 131.5s43.5 89.5 61.5 133.5c4.66699 50 10 97.833 16 143.5s12 86.5 18 122.5s11.667 65.833 17 89.5s10 38.167 14 43.5c2.66699 4.66699 8.33398 10 17.001 16s18.5 11.5 29.5 16.5s22.167 9.33301 33.5 13
s21 5.5 29 5.5c20 0 30 -10 30 -30c0 -18.667 -1.33301 -40.334 -4 -65.001s-6.33398 -50.334 -11.001 -77.001s-10.167 -53.5 -16.5 -80.5s-13.5 -51.833 -21.5 -74.5c-5.33301 -72.667 -9.66602 -142.5 -12.999 -209.5s-5 -130.5 -5 -190.5zM778 1831l193 200l104 -102
l-270 -141z" />
    <glyph glyph-name="Acircumflex" unicode="&#xc2;" horiz-adv-x="1352" 
d="M969 358c0 -58.667 1.5 -105.001 4.5 -139.001s7.66699 -59.667 14 -77s14.5 -28.333 24.5 -33s21.667 -7 35 -7c18 0 36.667 5.66699 56 17s38.333 26 57 44s36.5 38 53.5 60s32.667 43.5 47 64.5s26.666 40.667 36.999 59l23.5 42.5l31 62l41 -31l-31 -62l-26 -48.5
c-12 -22.333 -27 -47 -45 -74s-38.333 -55 -61 -84s-47 -55.5 -73 -79.5s-53.333 -43.667 -82 -59s-58 -23 -88 -23c-27.333 0 -51.666 4.66699 -72.999 14s-39.333 25.833 -54 49.5s-25.834 56 -33.501 97s-11.5 93.167 -11.5 156.5c0 24.667 0.5 48.167 1.5 70.5
s2.5 49.5 4.5 81.5c-34 -66 -73.167 -129.667 -117.5 -191s-91.833 -115.666 -142.5 -162.999s-103.5 -85.166 -158.5 -113.499s-110.5 -42.5 -166.5 -42.5c-35.333 0 -69 6.33301 -101 19s-60.333 32.167 -85 58.5s-44.334 60.166 -59.001 101.499s-22 90.666 -22 147.999
c0 92 10.167 182.333 30.5 271s48.5 174.5 84.5 257.5s78.333 162.333 127 238s101 145.834 157 210.501s114.667 123.167 176 175.5s122.666 97.166 183.999 134.499s121.166 66 179.499 86s112.833 30 163.5 30c56 0 100.667 -14.167 134 -42.5s50 -68.5 50 -120.5
c0 -34.667 -6.83301 -68.5 -20.5 -101.5s-31.667 -64.667 -54 -95s-47.666 -59 -75.999 -86s-56.833 -51.333 -85.5 -73s-56.5 -40.667 -83.5 -57s-50.167 -29.166 -69.5 -38.499l-30 41c16.667 8.66699 35.834 20.667 57.501 36s43.5 33.333 65.5 54s43.5 43.5 64.5 68.5
s39.833 51.333 56.5 79s30 56.334 40 86.001s15 59.167 15 88.5c0 28.667 -7.5 52.5 -22.5 71.5s-39.167 28.5 -72.5 28.5c-39.333 0 -82 -10.167 -128 -30.5s-93.333 -49.166 -142 -86.499s-97.5 -81.833 -146.5 -133.5s-96.167 -108.667 -141.5 -171
s-87.5 -129 -126.5 -200s-73 -144.667 -102 -221s-51.833 -154 -68.5 -233s-25 -157.5 -25 -235.5c0 -36 2.66699 -69.167 8 -99.5s14 -56.333 26 -78s27.667 -38.5 47 -50.5s43.333 -18 72 -18c36 0 71.333 8.16699 106 24.5s68.334 38.5 101.001 66.5
s64.167 60.667 94.5 98s58.833 77.333 85.5 120s51.5 86.5 74.5 131.5s43.5 89.5 61.5 133.5c4.66699 50 10 97.833 16 143.5s12 86.5 18 122.5s11.667 65.833 17 89.5s10 38.167 14 43.5c2.66699 4.66699 8.33398 10 17.001 16s18.5 11.5 29.5 16.5s22.167 9.33301 33.5 13
s21 5.5 29 5.5c20 0 30 -10 30 -30c0 -18.667 -1.33301 -40.334 -4 -65.001s-6.33398 -50.334 -11.001 -77.001s-10.167 -53.5 -16.5 -80.5s-13.5 -51.833 -21.5 -74.5c-5.33301 -72.667 -9.66602 -142.5 -12.999 -209.5s-5 -130.5 -5 -190.5zM948 2038l266 -195l-30 -41
l-236 123l-235 -123l-31 41z" />
    <glyph glyph-name="Atilde" unicode="&#xc3;" horiz-adv-x="1352" 
d="M969 358c0 -58.667 1.5 -105.001 4.5 -139.001s7.66699 -59.667 14 -77s14.5 -28.333 24.5 -33s21.667 -7 35 -7c18 0 36.667 5.66699 56 17s38.333 26 57 44s36.5 38 53.5 60s32.667 43.5 47 64.5s26.666 40.667 36.999 59l23.5 42.5l31 62l41 -31l-31 -62l-26 -48.5
c-12 -22.333 -27 -47 -45 -74s-38.333 -55 -61 -84s-47 -55.5 -73 -79.5s-53.333 -43.667 -82 -59s-58 -23 -88 -23c-27.333 0 -51.666 4.66699 -72.999 14s-39.333 25.833 -54 49.5s-25.834 56 -33.501 97s-11.5 93.167 -11.5 156.5c0 24.667 0.5 48.167 1.5 70.5
s2.5 49.5 4.5 81.5c-34 -66 -73.167 -129.667 -117.5 -191s-91.833 -115.666 -142.5 -162.999s-103.5 -85.166 -158.5 -113.499s-110.5 -42.5 -166.5 -42.5c-35.333 0 -69 6.33301 -101 19s-60.333 32.167 -85 58.5s-44.334 60.166 -59.001 101.499s-22 90.666 -22 147.999
c0 92 10.167 182.333 30.5 271s48.5 174.5 84.5 257.5s78.333 162.333 127 238s101 145.834 157 210.501s114.667 123.167 176 175.5s122.666 97.166 183.999 134.499s121.166 66 179.499 86s112.833 30 163.5 30c56 0 100.667 -14.167 134 -42.5s50 -68.5 50 -120.5
c0 -34.667 -6.83301 -68.5 -20.5 -101.5s-31.667 -64.667 -54 -95s-47.666 -59 -75.999 -86s-56.833 -51.333 -85.5 -73s-56.5 -40.667 -83.5 -57s-50.167 -29.166 -69.5 -38.499l-30 41c16.667 8.66699 35.834 20.667 57.501 36s43.5 33.333 65.5 54s43.5 43.5 64.5 68.5
s39.833 51.333 56.5 79s30 56.334 40 86.001s15 59.167 15 88.5c0 28.667 -7.5 52.5 -22.5 71.5s-39.167 28.5 -72.5 28.5c-39.333 0 -82 -10.167 -128 -30.5s-93.333 -49.166 -142 -86.499s-97.5 -81.833 -146.5 -133.5s-96.167 -108.667 -141.5 -171
s-87.5 -129 -126.5 -200s-73 -144.667 -102 -221s-51.833 -154 -68.5 -233s-25 -157.5 -25 -235.5c0 -36 2.66699 -69.167 8 -99.5s14 -56.333 26 -78s27.667 -38.5 47 -50.5s43.333 -18 72 -18c36 0 71.333 8.16699 106 24.5s68.334 38.5 101.001 66.5
s64.167 60.667 94.5 98s58.833 77.333 85.5 120s51.5 86.5 74.5 131.5s43.5 89.5 61.5 133.5c4.66699 50 10 97.833 16 143.5s12 86.5 18 122.5s11.667 65.833 17 89.5s10 38.167 14 43.5c2.66699 4.66699 8.33398 10 17.001 16s18.5 11.5 29.5 16.5s22.167 9.33301 33.5 13
s21 5.5 29 5.5c20 0 30 -10 30 -30c0 -18.667 -1.33301 -40.334 -4 -65.001s-6.33398 -50.334 -11.001 -77.001s-10.167 -53.5 -16.5 -80.5s-13.5 -51.833 -21.5 -74.5c-5.33301 -72.667 -9.66602 -142.5 -12.999 -209.5s-5 -130.5 -5 -190.5zM657 1843
c3.33301 30.667 10.666 58 21.999 82c9.33301 20.667 23.5 39.5 42.5 56.5s45.167 25.5 78.5 25.5c20.667 0 41.667 -3.16699 63 -9.5s43 -13.5 65 -21.5s43.667 -15.167 65 -21.5s42.333 -9.5 63 -9.5c15.333 0 27.666 3.16699 36.999 9.5s16.666 13.5 21.999 21.5
c6 8.66699 10.333 19 13 31h41c-3.33301 -30.667 -10.666 -58 -21.999 -82c-9.33301 -20.667 -23.666 -39.5 -42.999 -56.5s-45.333 -25.5 -78 -25.5c-20.667 0 -41.834 3.16699 -63.501 9.5s-43.5 13.333 -65.5 21s-43.667 14.667 -65 21s-42 9.5 -62 9.5
c-15.333 0 -27.666 -3.33301 -36.999 -10s-16.666 -13.667 -21.999 -21c-6 -8.66699 -10.333 -18.667 -13 -30h-41z" />
    <glyph glyph-name="Adieresis" unicode="&#xc4;" horiz-adv-x="1352" 
d="M969 358c0 -58.667 1.5 -105.001 4.5 -139.001s7.66699 -59.667 14 -77s14.5 -28.333 24.5 -33s21.667 -7 35 -7c18 0 36.667 5.66699 56 17s38.333 26 57 44s36.5 38 53.5 60s32.667 43.5 47 64.5s26.666 40.667 36.999 59l23.5 42.5l31 62l41 -31l-31 -62l-26 -48.5
c-12 -22.333 -27 -47 -45 -74s-38.333 -55 -61 -84s-47 -55.5 -73 -79.5s-53.333 -43.667 -82 -59s-58 -23 -88 -23c-27.333 0 -51.666 4.66699 -72.999 14s-39.333 25.833 -54 49.5s-25.834 56 -33.501 97s-11.5 93.167 -11.5 156.5c0 24.667 0.5 48.167 1.5 70.5
s2.5 49.5 4.5 81.5c-34 -66 -73.167 -129.667 -117.5 -191s-91.833 -115.666 -142.5 -162.999s-103.5 -85.166 -158.5 -113.499s-110.5 -42.5 -166.5 -42.5c-35.333 0 -69 6.33301 -101 19s-60.333 32.167 -85 58.5s-44.334 60.166 -59.001 101.499s-22 90.666 -22 147.999
c0 92 10.167 182.333 30.5 271s48.5 174.5 84.5 257.5s78.333 162.333 127 238s101 145.834 157 210.501s114.667 123.167 176 175.5s122.666 97.166 183.999 134.499s121.166 66 179.499 86s112.833 30 163.5 30c56 0 100.667 -14.167 134 -42.5s50 -68.5 50 -120.5
c0 -34.667 -6.83301 -68.5 -20.5 -101.5s-31.667 -64.667 -54 -95s-47.666 -59 -75.999 -86s-56.833 -51.333 -85.5 -73s-56.5 -40.667 -83.5 -57s-50.167 -29.166 -69.5 -38.499l-30 41c16.667 8.66699 35.834 20.667 57.501 36s43.5 33.333 65.5 54s43.5 43.5 64.5 68.5
s39.833 51.333 56.5 79s30 56.334 40 86.001s15 59.167 15 88.5c0 28.667 -7.5 52.5 -22.5 71.5s-39.167 28.5 -72.5 28.5c-39.333 0 -82 -10.167 -128 -30.5s-93.333 -49.166 -142 -86.499s-97.5 -81.833 -146.5 -133.5s-96.167 -108.667 -141.5 -171
s-87.5 -129 -126.5 -200s-73 -144.667 -102 -221s-51.833 -154 -68.5 -233s-25 -157.5 -25 -235.5c0 -36 2.66699 -69.167 8 -99.5s14 -56.333 26 -78s27.667 -38.5 47 -50.5s43.333 -18 72 -18c36 0 71.333 8.16699 106 24.5s68.334 38.5 101.001 66.5
s64.167 60.667 94.5 98s58.833 77.333 85.5 120s51.5 86.5 74.5 131.5s43.5 89.5 61.5 133.5c4.66699 50 10 97.833 16 143.5s12 86.5 18 122.5s11.667 65.833 17 89.5s10 38.167 14 43.5c2.66699 4.66699 8.33398 10 17.001 16s18.5 11.5 29.5 16.5s22.167 9.33301 33.5 13
s21 5.5 29 5.5c20 0 30 -10 30 -30c0 -18.667 -1.33301 -40.334 -4 -65.001s-6.33398 -50.334 -11.001 -77.001s-10.167 -53.5 -16.5 -80.5s-13.5 -51.833 -21.5 -74.5c-5.33301 -72.667 -9.66602 -142.5 -12.999 -209.5s-5 -130.5 -5 -190.5zM913 1925
c0 -23.333 -7.83301 -42.833 -23.5 -58.5s-35.167 -23.5 -58.5 -23.5c-22.667 0 -42 7.83301 -58 23.5s-24 35.167 -24 58.5c0 22.667 8 42 24 58s35.333 24 58 24c23.333 0 42.833 -8 58.5 -24s23.5 -35.333 23.5 -58zM1179 1925c0 -23.333 -7.83301 -42.833 -23.5 -58.5
s-35.167 -23.5 -58.5 -23.5c-22.667 0 -42 7.83301 -58 23.5s-24 35.167 -24 58.5c0 22.667 8 42 24 58s35.333 24 58 24c23.333 0 42.833 -8 58.5 -24s23.5 -35.333 23.5 -58z" />
    <glyph glyph-name="Aring" unicode="&#xc5;" horiz-adv-x="1352" 
d="M969 358c0 -58.667 1.5 -105.001 4.5 -139.001s7.66699 -59.667 14 -77s14.5 -28.333 24.5 -33s21.667 -7 35 -7c18 0 36.667 5.66699 56 17s38.333 26 57 44s36.5 38 53.5 60s32.667 43.5 47 64.5s26.666 40.667 36.999 59l23.5 42.5l31 62l41 -31l-31 -62l-26 -48.5
c-12 -22.333 -27 -47 -45 -74s-38.333 -55 -61 -84s-47 -55.5 -73 -79.5s-53.333 -43.667 -82 -59s-58 -23 -88 -23c-27.333 0 -51.666 4.66699 -72.999 14s-39.333 25.833 -54 49.5s-25.834 56 -33.501 97s-11.5 93.167 -11.5 156.5c0 24.667 0.5 48.167 1.5 70.5
s2.5 49.5 4.5 81.5c-34 -66 -73.167 -129.667 -117.5 -191s-91.833 -115.666 -142.5 -162.999s-103.5 -85.166 -158.5 -113.499s-110.5 -42.5 -166.5 -42.5c-35.333 0 -69 6.33301 -101 19s-60.333 32.167 -85 58.5s-44.334 60.166 -59.001 101.499s-22 90.666 -22 147.999
c0 92 10.167 182.333 30.5 271s48.5 174.5 84.5 257.5s78.333 162.333 127 238s101 145.834 157 210.501s114.667 123.167 176 175.5s122.666 97.166 183.999 134.499s121.166 66 179.499 86s112.833 30 163.5 30c56 0 100.667 -14.167 134 -42.5s50 -68.5 50 -120.5
c0 -34.667 -6.83301 -68.5 -20.5 -101.5s-31.667 -64.667 -54 -95s-47.666 -59 -75.999 -86s-56.833 -51.333 -85.5 -73s-56.5 -40.667 -83.5 -57s-50.167 -29.166 -69.5 -38.499l-30 41c16.667 8.66699 35.834 20.667 57.501 36s43.5 33.333 65.5 54s43.5 43.5 64.5 68.5
s39.833 51.333 56.5 79s30 56.334 40 86.001s15 59.167 15 88.5c0 28.667 -7.5 52.5 -22.5 71.5s-39.167 28.5 -72.5 28.5c-39.333 0 -82 -10.167 -128 -30.5s-93.333 -49.166 -142 -86.499s-97.5 -81.833 -146.5 -133.5s-96.167 -108.667 -141.5 -171
s-87.5 -129 -126.5 -200s-73 -144.667 -102 -221s-51.833 -154 -68.5 -233s-25 -157.5 -25 -235.5c0 -36 2.66699 -69.167 8 -99.5s14 -56.333 26 -78s27.667 -38.5 47 -50.5s43.333 -18 72 -18c36 0 71.333 8.16699 106 24.5s68.334 38.5 101.001 66.5
s64.167 60.667 94.5 98s58.833 77.333 85.5 120s51.5 86.5 74.5 131.5s43.5 89.5 61.5 133.5c4.66699 50 10 97.833 16 143.5s12 86.5 18 122.5s11.667 65.833 17 89.5s10 38.167 14 43.5c2.66699 4.66699 8.33398 10 17.001 16s18.5 11.5 29.5 16.5s22.167 9.33301 33.5 13
s21 5.5 29 5.5c20 0 30 -10 30 -30c0 -18.667 -1.33301 -40.334 -4 -65.001s-6.33398 -50.334 -11.001 -77.001s-10.167 -53.5 -16.5 -80.5s-13.5 -51.833 -21.5 -74.5c-5.33301 -72.667 -9.66602 -142.5 -12.999 -209.5s-5 -130.5 -5 -190.5zM768 1943
c0 22.667 4.33301 44.167 13 64.5s20.5 38 35.5 53s32.333 26.833 52 35.5s40.834 13 63.501 13s43.834 -4.33301 63.501 -13s37 -20.5 52 -35.5s26.833 -32.667 35.5 -53s13 -41.833 13 -64.5c0 -22 -4.33301 -42.833 -13 -62.5s-20.5 -36.667 -35.5 -51
s-32.333 -25.833 -52 -34.5s-40.834 -13 -63.501 -13s-43.834 4.33301 -63.501 13s-37 20.167 -52 34.5s-26.833 31.333 -35.5 51s-13 40.5 -13 62.5zM829 1945c0 -14 2.83301 -27.167 8.5 -39.5s13.167 -23.166 22.5 -32.499s20.166 -16.666 32.499 -21.999
s25.5 -8 39.5 -8s27.167 2.66699 39.5 8s23.166 12.666 32.499 21.999s16.666 20.166 21.999 32.499s8 25.5 8 39.5s-2.66699 27.167 -8 39.5s-12.666 23.333 -21.999 33s-20.166 17.167 -32.499 22.5s-25.5 8 -39.5 8s-27.167 -2.66699 -39.5 -8
s-23.166 -12.833 -32.499 -22.5s-16.833 -20.667 -22.5 -33s-8.5 -25.5 -8.5 -39.5z" />
    <glyph glyph-name="AE" unicode="&#xc6;" horiz-adv-x="1997" 
d="M1536 1444c0 26.667 -6.66699 51.1611 -20 73.4941s-31.333 41.333 -54 57s-48.5 27.834 -77.5 36.501s-59.167 13 -90.5 13c-36 0 -72 -6.33301 -108 -19s-68.333 -32.667 -97 -60s-51.834 -62.666 -69.501 -105.999s-26.5 -95.666 -26.5 -156.999
c0 -34 4 -67.5 12 -100.5s19.833 -63.333 35.5 -91s35.167 -51.667 58.5 -72s50.333 -35.5 81 -45.5c28.667 7.33301 54.334 12.5 77.001 15.5s40.667 4.5 54 4.5c22.667 0 38.834 -3.66699 48.501 -11s14.5 -16.666 14.5 -27.999c0 -5.33301 -1 -10.5 -3 -15.5
s-5.66699 -9.5 -11 -13.5s-12.833 -7.33301 -22.5 -10s-22.167 -4 -37.5 -4c-19.333 0 -38.166 0.666992 -56.499 2s-36.166 3.66602 -53.499 6.99902c-50 -14 -93.667 -37 -131 -69s-68.666 -69.667 -93.999 -113s-44.333 -90.5 -57 -141.5s-19 -102.5 -19 -154.5
c0 -56 7.66699 -110.667 23 -164s38.333 -100.5 69 -141.5s69.167 -74 115.5 -99s100.833 -37.5 163.5 -37.5c66.667 0 125 12 175 36s92.667 55.667 128 95c-32 8 -65.333 22 -100 42s-66.334 44.833 -95.001 74.5s-52.167 63.334 -70.5 101.001s-27.5 78.5 -27.5 122.5
c0 38.667 6.66699 74.834 20 108.501s31.666 63 54.999 88s51 44.667 83 59s66.667 21.5 104 21.5c34.667 0 68.167 -6.33301 100.5 -19s60.833 -31.334 85.5 -56.001s44.5 -55.167 59.5 -91.5s22.5 -77.833 22.5 -124.5c0 -24 -2.5 -48.667 -7.5 -74s-12 -50.333 -21 -75
s-19.333 -48.167 -31 -70.5s-24.5 -42.833 -38.5 -61.5c40 5.33301 74.833 16.666 104.5 33.999s55.834 38 78.501 62s42 49.833 58 77.5s30.667 54.5 44 80.5l10 21l41 -31l-10 -21c-20.667 -41.333 -43.667 -79 -69 -113s-53.333 -63 -84 -87
s-64.334 -42.5 -101.001 -55.5s-76.334 -19.833 -119.001 -20.5c-52 -52 -113.833 -94 -185.5 -126s-151.834 -48 -240.501 -48c-60 0 -116 7.83301 -168 23.5s-99 37.334 -141 65.001s-78.333 60.834 -109 99.501s-54.667 81 -72 127c-19.333 -34 -41.5 -67.667 -66.5 -101
s-53 -63.5 -84 -90.5s-65 -48.833 -102 -65.5s-76.833 -25 -119.5 -25c-57.333 0 -106.5 13.333 -147.5 40s-74.667 63.167 -101 109.5s-45.833 101 -58.5 164s-19 130.5 -19 202.5c0 83.333 7.33301 170.333 22 261s36 179.667 64 267s62 170.5 102 249.5
s85.333 148.333 136 208s106.334 107.167 167.001 142.5s125.667 53 195 53c27.333 0 52.333 -3.16699 75 -9.5s43 -14.666 61 -24.999s34.167 -21.833 48.5 -34.5s26.5 -25 36.5 -37c41.333 36 88.666 62.333 141.999 79s107 25 161 25c43.333 0 85.333 -5.16699 126 -15.5
s76.5 -25.5 107.5 -45.5s55.833 -44.5 74.5 -73.5s28 -61.833 28 -98.5c0 -26 -4.5 -49.333 -13.5 -70s-21 -38.167 -36 -52.5s-32.5 -25.166 -52.5 -32.499s-41.333 -11 -64 -11c-15.333 0 -31 1.66699 -47 5s-31.667 9 -47 17l19 41c13.333 -6 26.833 -10.833 40.5 -14.5
s26.5 -5.5 38.5 -5.5c32 0 58.5 10.667 79.5 32s31.5 51.666 31.5 90.999zM829 1289.99c0 52.667 7.66309 99.5039 22.9961 140.504s36.333 76.833 63 107.5c-18 20.667 -42.167 39.5 -72.5 56.5s-68.833 25.5 -115.5 25.5c-51.333 0 -99 -16.5 -143 -49.5
s-84.167 -77.333 -120.5 -133s-68.666 -120.167 -96.999 -193.5s-52.166 -150.333 -71.499 -231s-34 -162.334 -44 -245.001s-15 -161.334 -15 -236.001c0 -59.333 3.83301 -114.666 11.5 -165.999s19.334 -95.833 35.001 -133.5s35.5 -67.334 59.5 -89.001
s52.667 -32.5 86 -32.5c24.667 0 49.834 5.5 75.501 16.5s50.834 26.667 75.501 47s48.667 44.666 72 72.999s44.666 59.833 63.999 94.5c-3.33301 16.667 -5.5 33.167 -6.5 49.5s-1.5 32.5 -1.5 48.5c0 76 11.833 142.167 35.5 198.5s54 104.5 91 144.5
s78.5 73.167 124.5 99.5s91.333 47.5 136 63.5c-42.667 16 -80.5 36.333 -113.5 61s-60.667 52.167 -83 82.5s-39.333 62.666 -51 96.999s-17.5 68.833 -17.5 103.5zM1669 439.998c0 41.333 -4.83008 77.167 -14.4971 107.5s-22.5 55.333 -38.5 75s-34.333 34.167 -55 43.5
s-42 14 -64 14c-23.333 0 -45 -5 -65 -15s-37.5 -24.167 -52.5 -42.5s-26.833 -40.333 -35.5 -66s-13 -54.167 -13 -85.5c0 -40 8.5 -76.833 25.5 -110.5s38.667 -63.334 65 -89.001s55.166 -46.667 86.499 -63s61.666 -27.166 90.999 -32.499
c10 16.667 19.333 35.5 28 56.5s16.167 43 22.5 66s11.166 46.5 14.499 70.5s5 47.667 5 71z" />
    <glyph glyph-name="Ccedilla" unicode="&#xc7;" horiz-adv-x="1116" 
d="M153 760c0 -120 13.6729 -224.666 41.0059 -313.999s63.5 -163.666 108.5 -222.999s96.333 -103.833 154 -133.5s116.834 -44.5 177.501 -44.5c43.333 0 86.166 8 128.499 24s83.5 40 123.5 72s78.5 72 115.5 120s71.5 104.333 103.5 169l11 21l41 -31l-11 -21
c-34.667 -70 -72.834 -132 -114.501 -186s-85.834 -99.833 -132.501 -137.5s-95.167 -67 -145.5 -88s-101.833 -33.5 -154.5 -37.5v-43c75.333 0 131.166 -10.333 167.499 -31s54.5 -48 54.5 -82c0 -20 -6.83301 -41.833 -20.5 -65.5s-34.334 -47 -62.001 -70
s-61.834 -44.833 -102.501 -65.5s-88 -38.334 -142 -53.001l-19 63c74 26.667 127.167 51.167 159.5 73.5s48.5 40.166 48.5 53.499c0 15.333 -13.5 27.5 -40.5 36.5s-64.5 13.5 -112.5 13.5v171c-69.333 4.66699 -136.333 23.5 -201 56.5s-122.334 80.833 -173.001 143.5
s-91.167 140.334 -121.5 233.001s-45.5 201 -45.5 325c0 112.667 9.5 214.834 28.5 306.501s44.667 173.334 77 245.001s70 133.834 113 186.501s88.167 96.167 135.5 130.5s95.666 59.833 144.999 76.5s96.666 25 141.999 25c59.333 0 114 -10.167 164 -30.5
s93 -49 129 -86s64.167 -82 84.5 -135s30.5 -111.833 30.5 -176.5c0 -62 -9.5 -120.333 -28.5 -175s-44.333 -102.5 -76 -143.5s-68 -73.5 -109 -97.5s-83.833 -36 -128.5 -36c-30 0 -58 5.33301 -84 16s-48.667 25.667 -68 45s-34.666 43 -45.999 71s-17 59 -17 93
c0 32.667 5 64.167 15 94.5s22.667 58.333 38 84s32.166 48.334 50.499 68.001s36.166 35.167 53.499 46.5l27 -27c-14 -16 -27.167 -33.167 -39.5 -51.5s-23.166 -38 -32.499 -59s-16.666 -43.5 -21.999 -67.5s-8 -50 -8 -78c0 -28.667 3.5 -54.334 10.5 -77.001
s16.667 -42 29 -58s26.5 -28.167 42.5 -36.5s33 -12.5 51 -12.5c24.667 0 49.334 9.16699 74.001 27.5s46.667 45.333 66 81s35 79.5 47 131.5s18 112 18 180c0 61.333 -6.83301 114.5 -20.5 159.5s-32.5 82.167 -56.5 111.5s-52.333 51.166 -85 65.499
s-67.667 21.5 -105 21.5c-26.667 0 -57 -5.83301 -91 -17.5s-68.833 -30.834 -104.5 -57.501s-70.5 -61.834 -104.5 -105.501s-64.5 -97.667 -91.5 -162s-48.667 -139.833 -65 -226.5s-24.5 -186.334 -24.5 -299.001z" />
    <glyph glyph-name="Egrave" unicode="&#xc8;" horiz-adv-x="1269" 
d="M532 0c66.667 0 125.005 12.002 175.005 36.002s92.667 55.667 128 95c-42.667 8 -81.834 22 -117.501 42s-66.5 44.833 -92.5 74.5s-46.333 63.334 -61 101.001s-22 78.5 -22 122.5c0 43.333 7.66699 83.166 23 119.499s36 67.666 62 93.999s56.167 46.833 90.5 61.5
s70.166 22 107.499 22c34.667 0 68.167 -6.33301 100.5 -19s60.833 -31.167 85.5 -55.5s44.5 -54.666 59.5 -90.999s22.5 -78.166 22.5 -125.499c0 -48 -10.333 -98.333 -31 -151s-50 -102.667 -88 -150c40 5.33301 75 16.666 105 33.999s56.167 38 78.5 62
s41.666 49.833 57.999 77.5s30.833 54.5 43.5 80.5l10 21l41 -31l-10 -21c-20.667 -41.333 -43.667 -79 -69 -113s-53.333 -63 -84 -87s-64.334 -42.5 -101.001 -55.5s-76.334 -19.833 -119.001 -20.5c-51.333 -52 -113 -94 -185 -126s-152.333 -48 -241 -48
c-78 0 -149 13 -213 39s-118.833 61.333 -164.5 106s-81.167 96.667 -106.5 156s-38 122.666 -38 189.999c0 76 11.833 142.167 35.5 198.5s54.167 104.5 91.5 144.5s78.833 73.167 124.5 99.5s90.834 47.5 135.501 63.5c-42.667 16 -80.334 36.333 -113.001 61
s-60.167 52.167 -82.5 82.5s-39.333 62.666 -51 96.999s-17.5 68.833 -17.5 103.5c0 62.667 13 118.167 39 166.5s59.833 89 101.5 122s88.667 58 141 75s105.166 25.5 158.499 25.5c44 0 86.167 -5.33301 126.5 -16s75.5 -25.667 105.5 -45
c16 3.33301 32.833 5.83301 50.5 7.5s36.167 2.5 55.5 2.5v-41c-11.333 0 -22 -0.333008 -32 -1s-19.667 -1.66699 -29 -3c19.333 -18.667 34.333 -39.5 45 -62.5s16 -48.5 16 -76.5c0 -26 -4.16699 -49.667 -12.5 -71s-20 -39.666 -35 -54.999s-32.5 -27.166 -52.5 -35.499
s-41.333 -12.5 -64 -12.5c-25.333 0 -47.833 4 -67.5 12s-36.167 18.667 -49.5 32s-23.666 29 -30.999 47s-11 36.667 -11 56c0 16.667 2.83301 33.667 8.5 51s14.334 34 26.001 50s26.667 31 45 45s40.166 26 65.499 36c-25.333 10.667 -51.833 18.167 -79.5 22.5
s-51.167 6.5 -70.5 6.5c-46.667 0 -87.834 -8.16699 -123.501 -24.5s-65.5 -39.5 -89.5 -69.5s-42.167 -66.333 -54.5 -109s-18.5 -90.334 -18.5 -143.001c0 -34 4 -67.5 12 -100.5s19.667 -63.333 35 -91s34.666 -51.667 57.999 -72s50.333 -35.5 81 -45.5
c28.667 7.33301 54.334 12.5 77.001 15.5s40.667 4.5 54 4.5c22.667 0 39 -3.66699 49 -11s15 -16.666 15 -27.999c0 -5.33301 -1 -10.5 -3 -15.5s-5.66699 -9.5 -11 -13.5s-12.833 -7.33301 -22.5 -10s-22.167 -4 -37.5 -4c-19.333 0 -38.333 0.666992 -57 2
s-36.667 3.66602 -54 6.99902c-44 -11.333 -84.333 -30.333 -121 -57s-68.167 -60.334 -94.5 -101.001s-46.833 -88 -61.5 -142s-22 -114 -22 -180c0 -76 10.333 -141.667 31 -197s48.334 -101 83.001 -137s74 -62.667 118 -80s89.667 -26 137 -26zM962.005 461.002
c0 41.333 -4.83301 76.999 -14.5 106.999s-22.5 54.833 -38.5 74.5s-34.333 34.167 -55 43.5s-42 14 -64 14c-23.333 0 -46 -5.16699 -68 -15.5s-41.833 -25.166 -59.5 -44.499s-31.834 -43.333 -42.501 -72s-16 -61 -16 -97c0 -40 6.5 -76.833 19.5 -110.5
s31.333 -63.334 55 -89.001s52 -46.667 85 -63s69.167 -27.166 108.5 -32.499c30.667 44 53.334 91 68.001 141s22 98 22 144zM829.005 1444c0 28.667 -6.99805 53.3311 -20.998 73.998s-31.667 38.334 -53 53.001c-26 -7.33301 -48.333 -16.666 -67 -27.999
s-33.834 -23.833 -45.501 -37.5s-20.334 -28 -26.001 -43s-8.5 -29.5 -8.5 -43.5c0 -26.667 9.5 -49.667 28.5 -69s45.5 -29 79.5 -29c36 0 63.833 11.5 83.5 34.5s29.5 52.5 29.5 88.5zM686.007 1751l-205 225l133 62l113 -256z" />
    <glyph glyph-name="Eacute" unicode="&#xc9;" horiz-adv-x="1269" 
d="M532 0c66.667 0 125.005 12.002 175.005 36.002s92.667 55.667 128 95c-42.667 8 -81.834 22 -117.501 42s-66.5 44.833 -92.5 74.5s-46.333 63.334 -61 101.001s-22 78.5 -22 122.5c0 43.333 7.66699 83.166 23 119.499s36 67.666 62 93.999s56.167 46.833 90.5 61.5
s70.166 22 107.499 22c34.667 0 68.167 -6.33301 100.5 -19s60.833 -31.167 85.5 -55.5s44.5 -54.666 59.5 -90.999s22.5 -78.166 22.5 -125.499c0 -48 -10.333 -98.333 -31 -151s-50 -102.667 -88 -150c40 5.33301 75 16.666 105 33.999s56.167 38 78.5 62
s41.666 49.833 57.999 77.5s30.833 54.5 43.5 80.5l10 21l41 -31l-10 -21c-20.667 -41.333 -43.667 -79 -69 -113s-53.333 -63 -84 -87s-64.334 -42.5 -101.001 -55.5s-76.334 -19.833 -119.001 -20.5c-51.333 -52 -113 -94 -185 -126s-152.333 -48 -241 -48
c-78 0 -149 13 -213 39s-118.833 61.333 -164.5 106s-81.167 96.667 -106.5 156s-38 122.666 -38 189.999c0 76 11.833 142.167 35.5 198.5s54.167 104.5 91.5 144.5s78.833 73.167 124.5 99.5s90.834 47.5 135.501 63.5c-42.667 16 -80.334 36.333 -113.001 61
s-60.167 52.167 -82.5 82.5s-39.333 62.666 -51 96.999s-17.5 68.833 -17.5 103.5c0 62.667 13 118.167 39 166.5s59.833 89 101.5 122s88.667 58 141 75s105.166 25.5 158.499 25.5c44 0 86.167 -5.33301 126.5 -16s75.5 -25.667 105.5 -45
c16 3.33301 32.833 5.83301 50.5 7.5s36.167 2.5 55.5 2.5v-41c-11.333 0 -22 -0.333008 -32 -1s-19.667 -1.66699 -29 -3c19.333 -18.667 34.333 -39.5 45 -62.5s16 -48.5 16 -76.5c0 -26 -4.16699 -49.667 -12.5 -71s-20 -39.666 -35 -54.999s-32.5 -27.166 -52.5 -35.499
s-41.333 -12.5 -64 -12.5c-25.333 0 -47.833 4 -67.5 12s-36.167 18.667 -49.5 32s-23.666 29 -30.999 47s-11 36.667 -11 56c0 16.667 2.83301 33.667 8.5 51s14.334 34 26.001 50s26.667 31 45 45s40.166 26 65.499 36c-25.333 10.667 -51.833 18.167 -79.5 22.5
s-51.167 6.5 -70.5 6.5c-46.667 0 -87.834 -8.16699 -123.501 -24.5s-65.5 -39.5 -89.5 -69.5s-42.167 -66.333 -54.5 -109s-18.5 -90.334 -18.5 -143.001c0 -34 4 -67.5 12 -100.5s19.667 -63.333 35 -91s34.666 -51.667 57.999 -72s50.333 -35.5 81 -45.5
c28.667 7.33301 54.334 12.5 77.001 15.5s40.667 4.5 54 4.5c22.667 0 39 -3.66699 49 -11s15 -16.666 15 -27.999c0 -5.33301 -1 -10.5 -3 -15.5s-5.66699 -9.5 -11 -13.5s-12.833 -7.33301 -22.5 -10s-22.167 -4 -37.5 -4c-19.333 0 -38.333 0.666992 -57 2
s-36.667 3.66602 -54 6.99902c-44 -11.333 -84.333 -30.333 -121 -57s-68.167 -60.334 -94.5 -101.001s-46.833 -88 -61.5 -142s-22 -114 -22 -180c0 -76 10.333 -141.667 31 -197s48.334 -101 83.001 -137s74 -62.667 118 -80s89.667 -26 137 -26zM962.005 461.002
c0 41.333 -4.83301 76.999 -14.5 106.999s-22.5 54.833 -38.5 74.5s-34.333 34.167 -55 43.5s-42 14 -64 14c-23.333 0 -46 -5.16699 -68 -15.5s-41.833 -25.166 -59.5 -44.499s-31.834 -43.333 -42.501 -72s-16 -61 -16 -97c0 -40 6.5 -76.833 19.5 -110.5
s31.333 -63.334 55 -89.001s52 -46.667 85 -63s69.167 -27.166 108.5 -32.499c30.667 44 53.334 91 68.001 141s22 98 22 144zM829.005 1444c0 28.667 -6.99805 53.3311 -20.998 73.998s-31.667 38.334 -53 53.001c-26 -7.33301 -48.333 -16.666 -67 -27.999
s-33.834 -23.833 -45.501 -37.5s-20.334 -28 -26.001 -43s-8.5 -29.5 -8.5 -43.5c0 -26.667 9.5 -49.667 28.5 -69s45.5 -29 79.5 -29c36 0 63.833 11.5 83.5 34.5s29.5 52.5 29.5 88.5zM475.007 1831l193 200l104 -102l-270 -141z" />
    </font>
</defs>
</svg>
